{"glyphs":{"0":{"ha":694,"x_min":54,"x_max":640,"o":"m 307 -14 q 170 26 226 -14 q 84 136 114 67 q 54 293 54 206 q 76 463 54 381 q 142 609 99 544 q 250 712 186 674 q 396 750 314 750 q 528 710 474 750 q 612 600 583 669 q 640 442 640 531 q 618 273 640 354 q 553 127 596 192 q 448 24 510 63 q 307 -14 386 -14 m 315 42 q 463 91 399 42 q 565 227 528 140 q 601 426 601 314 q 544 622 601 550 q 383 693 486 693 q 233 643 299 693 q 131 506 168 593 q 93 308 93 419 q 152 113 93 185 q 315 42 211 42 z "},"1":{"ha":694,"x_min":97,"x_max":597,"o":"m 97 0 l 101 21 l 256 46 l 369 690 l 224 715 l 228 736 l 597 736 l 593 715 l 439 690 l 325 46 l 471 21 l 467 0 l 97 0 z "},"2":{"ha":694,"x_min":35,"x_max":569,"o":"m 35 0 l 40 26 q 263 227 174 147 q 403 363 351 307 q 476 465 454 418 q 499 568 499 513 q 465 664 499 628 q 361 700 431 700 q 244 655 294 700 q 154 532 194 610 l 128 544 q 230 690 165 631 q 388 750 294 750 q 524 702 478 750 q 569 579 569 654 q 542 468 569 521 q 458 358 514 415 q 319 228 403 300 q 121 60 235 157 l 454 60 l 522 200 l 542 200 l 494 0 l 35 0 z "},"3":{"ha":694,"x_min":7,"x_max":575,"o":"m 238 -193 q 97 -161 158 -193 q 15 -87 36 -129 q 7 -56 7 -71 q 15 -37 7 -44 q 31 -26 22 -29 l 50 -18 l 63 -18 l 71 -42 q 135 -123 89 -90 q 249 -156 181 -156 q 425 -87 364 -156 q 486 86 486 -18 q 458 195 486 146 q 375 274 431 244 q 239 304 319 304 l 232 335 l 235 335 q 367 360 306 335 q 467 436 429 386 q 506 557 506 486 q 474 660 506 621 q 367 700 443 700 q 248 656 300 700 q 157 532 196 613 l 131 544 q 231 690 168 631 q 386 750 294 750 q 528 701 481 750 q 575 578 575 651 q 518 430 575 489 q 379 336 461 371 q 513 245 472 308 q 554 110 554 182 q 515 -44 554 25 q 406 -153 476 -112 q 238 -193 335 -193 z "},"4":{"ha":694,"x_min":-29,"x_max":611,"o":"m 308 -181 l 361 115 l -29 115 l -25 140 l 521 736 l 540 736 l 438 160 l 611 160 l 603 115 l 431 115 l 378 -181 l 308 -181 m 40 160 l 368 160 l 447 606 l 40 160 z "},"5":{"ha":694,"x_min":35,"x_max":604,"o":"m 199 -194 q 79 -169 124 -194 q 35 -110 35 -144 q 38 -94 35 -101 q 51 -79 40 -86 l 75 -65 l 79 -65 l 92 -86 q 141 -126 106 -110 q 246 -142 176 -142 q 433 -72 361 -142 q 506 128 506 -3 q 447 286 506 233 q 257 339 389 339 q 128 326 203 339 l 199 736 l 604 736 l 594 681 l 225 681 l 174 390 q 227 397 197 394 q 285 399 257 399 q 448 365 386 399 q 538 276 510 331 q 565 160 565 221 q 521 -15 565 65 q 394 -145 476 -96 q 199 -194 313 -194 z "},"6":{"ha":694,"x_min":50,"x_max":653,"o":"m 296 -14 q 162 22 217 -14 q 78 119 107 57 q 50 260 50 181 q 117 535 50 403 q 317 771 183 667 q 653 931 451 875 l 644 899 q 387 767 492 849 q 221 586 282 686 q 138 379 160 486 q 241 494 179 450 q 389 539 303 539 q 504 508 457 539 q 576 428 551 478 q 601 321 601 379 q 558 144 601 219 q 446 28 515 69 q 296 -14 376 -14 m 125 251 q 149 117 125 169 q 213 41 174 65 q 294 17 251 17 q 465 95 400 17 q 529 301 529 174 q 489 438 529 386 q 369 490 449 490 q 274 467 321 490 q 188 403 226 444 q 128 307 149 363 q 125 251 125 279 z "},"7":{"ha":694,"x_min":40,"x_max":650,"o":"m 40 -181 q 110 -49 78 -110 q 178 78 142 13 q 267 224 215 143 q 395 417 319 306 q 582 681 471 528 l 106 681 l 115 736 l 650 736 l 647 714 q 515 533 581 622 q 387 342 450 443 q 262 113 324 240 q 139 -181 200 -14 l 40 -181 z "},"8":{"ha":694,"x_min":38,"x_max":633,"o":"m 279 -14 q 158 10 214 -14 q 70 80 103 35 q 38 186 38 125 q 103 345 38 274 q 293 482 168 417 q 187 589 218 538 q 156 690 156 640 q 193 803 156 749 q 292 894 231 858 q 424 931 353 931 q 578 875 522 931 q 633 743 633 819 q 583 614 633 676 q 406 486 532 551 q 511 399 474 439 q 563 321 549 360 q 576 238 576 282 q 537 115 576 172 q 430 22 497 58 q 279 -14 363 -14 m 372 508 q 378 506 375 507 q 480 568 438 538 q 544 638 522 599 q 567 736 567 676 q 526 850 567 808 q 410 892 486 892 q 269 842 314 892 q 224 719 224 792 q 252 617 224 667 q 372 508 281 568 m 111 207 q 160 72 111 118 q 300 25 210 25 q 453 78 399 25 q 508 218 508 132 q 487 312 508 272 q 423 387 465 351 q 319 464 381 422 q 197 378 242 417 q 131 299 151 339 q 111 207 111 258 z "},"9":{"ha":694,"x_min":4,"x_max":607,"o":"m 4 -194 l 13 -162 q 270 -31 165 -112 q 436 150 375 50 q 519 357 497 250 q 416 242 478 286 q 268 197 354 197 q 153 228 200 197 q 81 308 106 258 q 56 415 56 357 q 99 592 56 517 q 211 708 142 667 q 361 750 281 750 q 496 715 442 750 q 578 617 550 679 q 607 476 607 556 q 540 202 607 335 q 340 -35 474 69 q 4 -194 206 -139 m 128 435 q 168 298 128 350 q 288 246 208 246 q 383 269 336 246 q 469 333 431 292 q 529 429 508 374 q 532 485 532 457 q 508 619 532 567 q 444 695 483 671 q 363 719 406 719 q 192 641 257 719 q 128 435 128 563 z "}," ":{"ha":347,"x_min":0,"x_max":0,"o":""}," ":{"ha":694,"x_min":0,"x_max":0,"o":""}," ":{"ha":347,"x_min":0,"x_max":0,"o":""}," ":{"ha":174,"x_min":0,"x_max":0,"o":""}," ":{"ha":35,"x_min":0,"x_max":0,"o":""},"​":{"ha":0,"x_min":0,"x_max":0,"o":""},"A":{"ha":897,"x_min":-21,"x_max":786,"o":"m -21 0 l -15 21 l 44 40 l 526 924 l 553 924 l 719 42 l 786 21 l 782 0 l 521 0 l 526 21 l 640 42 l 583 354 l 265 354 l 101 40 l 215 21 l 211 0 l -21 0 m 288 396 l 576 396 l 503 806 l 288 396 z "},"B":{"ha":744,"x_min":14,"x_max":661,"o":"m 14 0 l 18 21 l 119 44 l 267 874 l 171 897 l 175 917 l 401 917 q 591 868 521 917 q 661 719 661 819 q 608 578 661 646 q 458 482 554 510 q 606 407 557 463 q 656 267 656 351 q 609 129 656 189 q 484 35 563 69 q 313 0 406 0 l 14 0 m 403 874 l 342 874 l 275 494 l 346 494 q 476 524 422 494 q 558 603 529 554 q 586 711 586 653 q 403 874 586 874 m 360 453 l 267 453 l 194 40 l 318 40 q 515 106 450 40 q 581 265 581 171 q 521 408 581 364 q 360 453 461 453 z "},"C":{"ha":921,"x_min":83,"x_max":838,"o":"m 450 -14 q 261 32 344 -14 q 131 163 178 78 q 83 361 83 247 q 121 572 83 469 q 228 755 158 674 q 391 883 297 836 q 597 931 485 931 q 740 910 689 931 q 838 863 792 890 l 808 660 l 788 660 l 763 826 q 675 873 722 858 q 568 888 628 888 q 393 847 469 888 q 265 735 317 807 q 188 571 214 664 q 161 374 161 478 q 204 192 161 272 q 318 66 247 113 q 474 19 389 19 q 567 30 525 19 q 644 61 608 40 l 740 253 l 761 253 l 718 54 q 604 4 664 22 q 450 -14 544 -14 z "},"D":{"ha":943,"x_min":14,"x_max":867,"o":"m 14 0 l 19 21 l 118 44 l 265 872 l 169 896 l 175 917 l 425 917 q 679 866 582 917 q 822 731 776 815 q 867 544 867 646 q 847 402 867 476 q 788 256 828 328 q 684 127 747 185 q 534 35 621 69 q 335 0 447 0 l 14 0 m 410 875 l 342 875 l 194 42 l 351 42 q 592 104 494 42 q 740 279 690 167 q 790 542 790 392 q 694 785 790 694 q 410 875 599 875 z "},"E":{"ha":765,"x_min":14,"x_max":735,"o":"m 14 0 l 19 21 l 118 44 l 265 872 l 169 896 l 175 917 l 735 917 l 696 692 l 675 692 l 657 875 l 342 875 l 275 494 l 501 494 l 553 610 l 578 610 l 531 340 l 506 340 l 494 453 l 267 453 l 194 42 l 557 42 l 643 239 l 664 239 l 622 0 l 14 0 z "},"F":{"ha":765,"x_min":14,"x_max":735,"o":"m 14 0 l 19 21 l 118 44 l 265 872 l 169 896 l 175 917 l 735 917 l 696 692 l 675 692 l 657 875 l 342 875 l 275 494 l 501 494 l 553 610 l 578 610 l 531 340 l 506 340 l 494 453 l 267 453 l 196 44 l 307 21 l 301 0 l 14 0 z "},"G":{"ha":961,"x_min":83,"x_max":869,"o":"m 428 -14 q 246 35 324 -14 q 126 169 168 85 q 83 361 83 254 q 119 560 83 460 q 219 745 154 661 q 377 880 285 829 q 585 931 469 931 q 742 911 683 931 q 847 863 800 892 l 817 660 l 796 660 l 768 824 q 682 873 729 858 q 569 888 635 888 q 393 849 469 888 q 265 742 317 810 q 185 587 213 675 q 158 400 158 499 q 240 131 158 231 q 472 32 322 32 q 558 42 514 32 q 650 75 601 53 l 700 354 l 585 382 l 589 403 l 869 403 l 865 382 l 764 358 l 715 89 q 578 14 657 42 q 428 -14 499 -14 z "},"H":{"ha":1008,"x_min":14,"x_max":994,"o":"m 14 0 l 17 21 l 118 46 l 265 874 l 158 896 l 164 917 l 450 917 l 444 896 l 340 871 l 274 497 l 746 497 l 813 874 l 703 896 l 708 917 l 994 917 l 989 896 l 888 871 l 740 43 l 847 21 l 844 0 l 558 0 l 561 21 l 665 46 l 738 456 l 267 456 l 193 43 l 303 21 l 300 0 l 14 0 z "},"I":{"ha":460,"x_min":13,"x_max":446,"o":"m 13 0 l 17 21 l 118 46 l 265 874 l 171 897 l 175 917 l 446 917 l 442 897 l 342 874 l 194 46 l 288 21 l 283 0 l 13 0 z "},"J":{"ha":465,"x_min":-89,"x_max":458,"o":"m -43 -240 q -76 -226 -62 -240 q -81 -192 -89 -212 l -60 -137 l -53 -137 q -19 -147 -32 -144 q 10 -150 -7 -150 q 59 -133 36 -150 q 101 -69 82 -117 q 136 71 119 -22 l 278 874 l 183 897 l 188 917 l 458 917 l 454 897 l 354 874 l 250 292 q 185 13 219 119 q 93 -150 150 -94 q 30 -210 53 -190 q -8 -235 7 -229 q -43 -240 -24 -240 z "},"K":{"ha":885,"x_min":13,"x_max":863,"o":"m 13 0 l 17 21 l 118 46 l 265 874 l 171 897 l 175 917 l 446 917 l 442 897 l 342 874 l 271 478 l 697 868 l 593 897 l 597 917 l 863 917 l 858 897 l 782 881 l 338 490 l 722 36 l 796 21 l 792 0 l 649 0 l 268 463 l 194 46 l 301 21 l 297 0 l 13 0 z "},"L":{"ha":765,"x_min":14,"x_max":658,"o":"m 14 0 l 19 21 l 118 44 l 265 872 l 171 897 l 175 917 l 460 917 l 456 897 l 340 872 l 194 42 l 532 42 l 633 288 l 658 288 l 608 0 l 14 0 z "},"M":{"ha":1204,"x_min":14,"x_max":1190,"o":"m 14 0 l 19 21 l 121 44 l 293 869 l 189 899 l 193 917 l 386 917 l 561 128 l 1000 917 l 1190 917 l 1186 897 l 1076 869 l 972 44 l 1056 21 l 1051 0 l 793 0 l 799 21 l 894 43 l 1000 825 l 535 -7 l 508 -7 l 328 831 l 176 43 l 274 21 l 269 0 l 14 0 z "},"N":{"ha":997,"x_min":13,"x_max":983,"o":"m 13 0 l 17 21 l 118 44 l 265 874 l 154 897 l 158 917 l 338 917 l 713 147 l 840 872 l 721 897 l 725 917 l 983 917 l 979 897 l 888 872 l 732 -7 l 704 -7 l 304 808 l 169 49 l 278 21 l 274 0 l 13 0 z "},"O":{"ha":969,"x_min":83,"x_max":886,"o":"m 401 -14 q 234 32 306 -14 q 123 160 163 78 q 83 349 83 242 q 121 574 83 469 q 225 760 158 679 q 380 885 292 840 q 568 931 468 931 q 737 885 665 931 q 847 757 808 839 q 886 568 886 675 q 851 351 886 456 q 752 165 817 247 q 599 34 688 82 q 401 -14 510 -14 m 433 17 q 578 56 510 17 q 698 166 646 94 q 780 334 750 238 q 810 546 810 431 q 774 732 810 653 q 678 856 739 811 q 538 900 617 900 q 388 860 457 900 q 268 748 319 819 q 188 581 217 676 q 160 374 160 485 q 195 187 160 267 q 292 62 231 107 q 433 17 354 17 z "},"P":{"ha":749,"x_min":13,"x_max":707,"o":"m 13 0 l 17 21 l 118 44 l 265 874 l 171 897 l 175 917 l 408 917 q 626 863 544 917 q 707 697 707 808 q 666 553 707 619 q 551 448 625 488 q 375 408 476 408 l 258 408 l 194 44 l 317 21 l 313 0 l 13 0 m 342 876 l 265 449 l 363 449 q 565 516 499 449 q 631 692 631 583 q 569 829 631 782 q 411 876 507 876 l 342 876 z "},"Q":{"ha":992,"x_min":83,"x_max":964,"o":"m 779 -204 q 674 -190 735 -204 q 540 -135 614 -176 q 382 -14 465 -94 q 224 39 290 -8 q 120 166 157 86 q 83 349 83 246 q 121 574 83 469 q 225 760 158 679 q 380 885 292 840 q 568 931 468 931 q 737 885 665 931 q 847 757 808 839 q 886 568 886 675 q 857 369 886 465 q 773 194 828 274 q 642 62 718 115 q 475 -7 567 8 q 628 -106 560 -74 q 749 -149 696 -139 q 842 -160 803 -160 q 912 -153 879 -160 q 964 -140 944 -147 l 958 -169 q 878 -194 926 -185 q 779 -204 831 -204 m 433 17 q 578 56 510 17 q 698 166 646 94 q 780 334 750 238 q 810 546 810 431 q 774 732 810 653 q 678 856 739 811 q 538 900 617 900 q 388 860 457 900 q 268 748 319 819 q 188 581 217 676 q 160 374 160 485 q 195 187 160 267 q 292 62 231 107 q 433 17 354 17 z "},"R":{"ha":776,"x_min":13,"x_max":721,"o":"m 13 0 l 17 21 l 118 44 l 265 874 l 169 897 l 174 917 l 410 917 q 596 865 531 917 q 661 724 661 814 q 613 564 661 638 q 449 458 564 490 l 649 39 l 721 21 l 717 0 l 581 0 l 378 442 l 265 442 l 194 44 l 286 21 l 282 0 l 13 0 m 411 875 l 342 875 l 272 483 l 358 483 q 483 517 433 483 q 558 601 533 550 q 583 707 583 653 q 542 829 583 783 q 411 875 500 875 z "},"S":{"ha":689,"x_min":42,"x_max":619,"o":"m 267 -14 q 142 3 193 -14 q 42 50 92 19 l 68 250 l 90 250 l 119 85 q 193 42 144 58 q 290 26 242 26 q 444 85 389 26 q 500 236 500 143 q 476 325 500 289 q 410 391 453 361 q 311 458 368 421 q 191 560 226 514 q 156 675 156 607 q 192 797 156 738 q 288 893 228 856 q 421 931 347 931 q 526 915 476 931 q 619 872 575 900 l 594 678 l 572 678 l 550 831 q 497 872 532 853 q 413 890 461 890 q 272 844 325 890 q 219 715 219 797 q 233 642 219 675 q 281 575 246 608 q 383 500 317 542 q 484 430 443 464 q 546 354 525 396 q 567 253 567 313 q 529 130 567 192 q 424 27 492 68 q 267 -14 357 -14 z "},"T":{"ha":890,"x_min":104,"x_max":918,"o":"m 196 0 l 200 21 l 342 49 l 489 875 l 214 875 l 125 671 l 104 671 l 147 917 l 918 917 l 875 671 l 854 671 l 840 875 l 564 875 l 417 49 l 551 21 l 547 0 l 196 0 z "},"U":{"ha":1015,"x_min":174,"x_max":1021,"o":"m 454 -14 q 252 51 331 -14 q 174 257 174 115 q 176 304 174 281 q 183 356 179 328 l 274 875 l 174 897 l 178 917 l 467 917 l 461 897 l 351 875 l 264 376 q 256 321 258 347 q 254 271 254 294 q 285 133 254 185 q 368 60 315 82 q 489 38 421 38 q 601 67 543 38 q 706 160 660 96 q 772 328 753 224 l 868 872 l 750 897 l 754 917 l 1021 917 l 1017 897 l 915 872 l 824 356 q 747 139 800 219 q 618 22 693 58 q 454 -14 543 -14 z "},"V":{"ha":890,"x_min":125,"x_max":918,"o":"m 358 -7 l 206 875 l 125 897 l 129 917 l 390 917 l 386 897 l 285 878 l 407 124 l 414 124 l 782 878 l 683 897 l 688 917 l 918 917 l 914 897 l 839 878 l 385 -7 l 358 -7 z "},"W":{"ha":1311,"x_min":125,"x_max":1339,"o":"m 306 -7 l 206 876 l 125 897 l 129 917 l 390 917 l 386 897 l 285 876 l 357 125 l 361 125 l 736 924 l 765 924 l 882 125 l 888 125 l 1206 878 l 1104 897 l 1108 917 l 1339 917 l 1335 897 l 1261 878 l 858 -7 l 832 -7 l 717 767 l 710 767 l 332 -7 l 306 -7 z "},"X":{"ha":926,"x_min":-35,"x_max":949,"o":"m -35 0 l -31 21 l 92 51 l 440 458 l 242 874 l 138 897 l 142 917 l 438 917 l 433 897 l 326 876 l 326 872 l 499 507 l 788 871 l 788 875 l 668 897 l 672 917 l 949 917 l 944 897 l 853 875 l 517 471 l 714 51 l 826 21 l 822 0 l 497 0 l 501 21 l 633 50 l 633 54 l 458 419 l 157 54 l 157 50 l 267 21 l 263 0 l -35 0 z "},"Y":{"ha":925,"x_min":125,"x_max":954,"o":"m 240 0 l 244 21 l 365 49 l 435 432 l 229 874 l 125 897 l 129 917 l 425 917 l 421 897 l 314 875 l 314 871 l 496 468 l 803 871 l 803 875 l 699 897 l 703 917 l 954 917 l 950 897 l 864 875 l 510 435 l 440 49 l 554 21 l 550 0 l 240 0 z "},"Z":{"ha":853,"x_min":49,"x_max":804,"o":"m 49 0 l 53 28 l 704 875 l 292 875 l 206 685 l 185 685 l 225 917 l 804 917 l 800 889 l 157 49 l 601 49 l 686 247 l 707 247 l 663 0 l 49 0 z "},"À":{"ha":897,"x_min":-21,"x_max":786,"o":"m -21 0 l -15 21 l 44 40 l 526 924 l 553 924 l 719 42 l 786 21 l 782 0 l 521 0 l 526 21 l 640 42 l 583 354 l 265 354 l 101 40 l 215 21 l 211 0 l -21 0 m 288 396 l 576 396 l 503 806 l 288 396 m 533 986 l 371 1132 q 354 1162 356 1144 q 358 1197 353 1179 l 413 1197 l 547 986 l 533 986 z "},"Á":{"ha":897,"x_min":-21,"x_max":786,"o":"m -21 0 l -15 21 l 44 40 l 526 924 l 553 924 l 719 42 l 786 21 l 782 0 l 521 0 l 526 21 l 640 42 l 583 354 l 265 354 l 101 40 l 215 21 l 211 0 l -21 0 m 288 396 l 576 396 l 503 806 l 288 396 m 533 986 l 688 1197 l 754 1197 q 741 1160 751 1176 q 711 1128 731 1144 l 547 986 l 533 986 z "},"Â":{"ha":897,"x_min":-21,"x_max":786,"o":"m -21 0 l -15 21 l 44 40 l 526 924 l 553 924 l 719 42 l 786 21 l 782 0 l 521 0 l 526 21 l 640 42 l 583 354 l 265 354 l 101 40 l 215 21 l 211 0 l -21 0 m 288 396 l 576 396 l 503 806 l 288 396 m 354 986 l 565 1197 l 589 1197 l 711 986 l 697 986 l 564 1125 l 368 986 l 354 986 z "},"Ã":{"ha":897,"x_min":-21,"x_max":786,"o":"m -21 0 l -15 21 l 44 40 l 526 924 l 553 924 l 719 42 l 786 21 l 782 0 l 521 0 l 526 21 l 640 42 l 583 354 l 265 354 l 101 40 l 215 21 l 211 0 l -21 0 m 288 396 l 576 396 l 503 806 l 288 396 m 363 1011 q 429 1138 401 1107 q 490 1169 457 1169 q 535 1152 515 1169 q 574 1111 556 1135 q 609 1070 592 1088 q 646 1053 626 1053 q 694 1081 672 1053 q 744 1169 715 1110 l 758 1169 q 692 1042 721 1074 q 631 1011 664 1011 q 585 1028 606 1011 q 547 1069 565 1046 q 512 1110 529 1093 q 475 1128 494 1128 q 427 1099 449 1128 q 376 1011 406 1071 l 363 1011 z "},"Ä":{"ha":897,"x_min":-21,"x_max":786,"o":"m -21 0 l -15 21 l 44 40 l 526 924 l 553 924 l 719 42 l 786 21 l 782 0 l 521 0 l 526 21 l 640 42 l 583 354 l 265 354 l 101 40 l 215 21 l 211 0 l -21 0 m 288 396 l 576 396 l 503 806 l 288 396 m 432 1040 q 395 1055 410 1040 q 381 1092 381 1069 q 395 1128 381 1114 q 432 1143 410 1143 q 469 1128 454 1143 q 483 1092 483 1114 q 469 1055 483 1069 q 432 1040 454 1040 m 688 1040 q 651 1055 665 1040 q 636 1092 636 1069 q 651 1128 636 1114 q 688 1143 665 1143 q 724 1128 710 1143 q 739 1092 739 1114 q 724 1055 739 1069 q 688 1040 710 1040 z "},"Ā":{"ha":897,"x_min":-21,"x_max":786,"o":"m -21 0 l -15 21 l 44 40 l 526 924 l 553 924 l 719 42 l 786 21 l 782 0 l 521 0 l 526 21 l 640 42 l 583 354 l 265 354 l 101 40 l 215 21 l 211 0 l -21 0 m 288 396 l 576 396 l 503 806 l 288 396 m 386 1074 l 393 1113 l 728 1113 l 721 1074 l 386 1074 z "},"Ă":{"ha":897,"x_min":-21,"x_max":786,"o":"m -21 0 l -15 21 l 44 40 l 526 924 l 553 924 l 719 42 l 786 21 l 782 0 l 521 0 l 526 21 l 640 42 l 583 354 l 265 354 l 101 40 l 215 21 l 211 0 l -21 0 m 288 396 l 576 396 l 503 806 l 288 396 m 540 986 q 428 1038 461 986 q 393 1197 396 1090 l 407 1197 q 436 1093 419 1128 q 481 1046 453 1058 q 549 1033 508 1033 q 619 1047 588 1033 q 678 1095 650 1060 q 736 1197 706 1131 l 750 1197 q 665 1038 714 1089 q 540 986 615 986 z "},"Å":{"ha":897,"x_min":-21,"x_max":786,"o":"m -21 0 l -15 21 l 44 40 l 526 924 l 553 924 l 719 42 l 786 21 l 782 0 l 521 0 l 526 21 l 640 42 l 583 354 l 265 354 l 101 40 l 215 21 l 211 0 l -21 0 m 288 396 l 576 396 l 503 806 l 288 396 m 540 986 q 474 1011 496 986 q 451 1076 451 1036 q 487 1167 451 1128 q 578 1206 522 1206 q 644 1181 621 1206 q 667 1115 667 1156 q 631 1025 667 1064 q 540 986 596 986 m 549 1010 q 600 1040 581 1010 q 619 1114 619 1071 q 610 1161 619 1140 q 571 1182 600 1182 q 519 1152 539 1182 q 499 1075 499 1122 q 508 1029 499 1049 q 549 1010 518 1010 z "},"Ǻ":{"ha":897,"x_min":-21,"x_max":800,"o":"m -21 0 l -15 21 l 44 40 l 526 924 l 553 924 l 719 42 l 786 21 l 782 0 l 521 0 l 526 21 l 640 42 l 583 354 l 265 354 l 101 40 l 215 21 l 211 0 l -21 0 m 288 396 l 576 396 l 503 806 l 288 396 m 540 986 q 474 1011 496 986 q 451 1076 451 1036 q 487 1167 451 1128 q 578 1206 522 1206 q 644 1181 621 1206 q 667 1115 667 1156 q 631 1025 667 1064 q 540 986 596 986 m 549 1010 q 600 1040 581 1010 q 619 1114 619 1071 q 610 1161 619 1140 q 571 1182 600 1182 q 519 1152 539 1182 q 499 1075 499 1122 q 508 1029 499 1049 q 549 1010 518 1010 m 579 1257 l 733 1468 l 800 1468 q 787 1431 797 1447 q 757 1399 776 1415 l 593 1257 l 579 1257 z "},"Ạ":{"ha":897,"x_min":-21,"x_max":786,"o":"m -21 0 l -15 21 l 44 40 l 526 924 l 553 924 l 719 42 l 786 21 l 782 0 l 521 0 l 526 21 l 640 42 l 583 354 l 265 354 l 101 40 l 215 21 l 211 0 l -21 0 m 288 396 l 576 396 l 503 806 l 288 396 z "},"Ą":{"ha":897,"x_min":-21,"x_max":786,"o":"m -21 0 l -15 21 l 44 40 l 526 924 l 553 924 l 719 42 l 786 21 l 782 0 l 692 0 q 585 -115 621 -65 q 550 -224 550 -164 q 573 -283 550 -264 q 636 -301 596 -301 q 676 -295 656 -301 q 714 -278 697 -289 l 718 -278 l 715 -293 q 674 -321 700 -308 q 611 -333 647 -333 q 530 -306 561 -333 q 499 -232 499 -279 q 549 -112 499 -171 q 664 0 599 -53 l 521 0 l 526 21 l 640 42 l 583 354 l 267 354 l 101 39 l 215 21 l 211 0 l -21 0 m 288 396 l 576 396 l 503 804 l 288 396 z "},"Ȁ":{"ha":897,"x_min":-21,"x_max":786,"o":"m -21 0 l -15 21 l 44 40 l 526 924 l 553 924 l 719 42 l 786 21 l 782 0 l 521 0 l 526 21 l 640 42 l 583 354 l 265 354 l 101 40 l 215 21 l 211 0 l -21 0 m 288 396 l 576 396 l 503 806 l 288 396 m 607 986 l 481 1110 q 451 1155 457 1133 q 449 1197 446 1176 l 501 1197 l 621 986 l 607 986 m 458 986 l 332 1110 q 303 1155 308 1133 q 300 1197 297 1176 l 353 1197 l 472 986 l 458 986 z "},"Ȃ":{"ha":897,"x_min":-21,"x_max":786,"o":"m -21 0 l -15 21 l 44 40 l 526 924 l 553 924 l 719 42 l 786 21 l 782 0 l 521 0 l 526 21 l 640 42 l 583 354 l 265 354 l 101 40 l 215 21 l 211 0 l -21 0 m 288 396 l 576 396 l 503 806 l 288 396 m 364 988 q 449 1147 400 1096 q 574 1199 499 1199 q 685 1147 653 1199 q 721 988 718 1094 l 707 988 q 678 1091 696 1056 q 633 1139 660 1126 q 565 1151 607 1151 q 495 1138 526 1151 q 435 1090 464 1125 q 378 988 407 1054 l 364 988 z "},"Ắ":{"ha":897,"x_min":-21,"x_max":786,"o":"m -21 0 l -15 21 l 44 40 l 526 924 l 553 924 l 719 42 l 786 21 l 782 0 l 521 0 l 526 21 l 640 42 l 583 354 l 265 354 l 101 40 l 215 21 l 211 0 l -21 0 m 288 396 l 576 396 l 503 806 l 288 396 z "},"Ặ":{"ha":897,"x_min":-21,"x_max":786,"o":"m -21 0 l -15 21 l 44 40 l 526 924 l 553 924 l 719 42 l 786 21 l 782 0 l 521 0 l 526 21 l 640 42 l 583 354 l 265 354 l 101 40 l 215 21 l 211 0 l -21 0 m 288 396 l 576 396 l 503 806 l 288 396 m 540 986 q 428 1038 461 986 q 393 1197 396 1090 l 407 1197 q 436 1093 419 1128 q 481 1046 453 1058 q 549 1033 508 1033 q 619 1047 588 1033 q 678 1095 650 1060 q 736 1197 706 1131 l 750 1197 q 665 1038 714 1089 q 540 986 615 986 z "},"Ằ":{"ha":897,"x_min":-21,"x_max":786,"o":"m -21 0 l -15 21 l 44 40 l 526 924 l 553 924 l 719 42 l 786 21 l 782 0 l 521 0 l 526 21 l 640 42 l 583 354 l 265 354 l 101 40 l 215 21 l 211 0 l -21 0 m 288 396 l 576 396 l 503 806 l 288 396 z "},"Ẳ":{"ha":897,"x_min":-21,"x_max":786,"o":"m -21 0 l -15 21 l 44 40 l 526 924 l 553 924 l 719 42 l 786 21 l 782 0 l 521 0 l 526 21 l 640 42 l 583 354 l 265 354 l 101 40 l 215 21 l 211 0 l -21 0 m 288 396 l 576 396 l 503 806 l 288 396 z "},"Ẵ":{"ha":897,"x_min":-21,"x_max":790,"o":"m -21 0 l -15 21 l 44 40 l 526 924 l 553 924 l 719 42 l 786 21 l 782 0 l 521 0 l 526 21 l 640 42 l 583 354 l 265 354 l 101 40 l 215 21 l 211 0 l -21 0 m 288 396 l 576 396 l 503 806 l 288 396 z "},"Ấ":{"ha":897,"x_min":-21,"x_max":878,"o":"m -21 0 l -15 21 l 44 40 l 526 924 l 553 924 l 719 42 l 786 21 l 782 0 l 521 0 l 526 21 l 640 42 l 583 354 l 265 354 l 101 40 l 215 21 l 211 0 l -21 0 m 288 396 l 576 396 l 503 806 l 288 396 m 708 1118 l 811 1317 l 878 1317 q 863 1281 875 1296 q 835 1247 851 1267 l 722 1118 l 708 1118 m 354 986 l 565 1197 l 589 1197 l 711 986 l 697 986 l 564 1125 l 368 986 l 354 986 z "},"Ậ":{"ha":897,"x_min":-21,"x_max":786,"o":"m -21 0 l -15 21 l 44 40 l 526 924 l 553 924 l 719 42 l 786 21 l 782 0 l 521 0 l 526 21 l 640 42 l 583 354 l 265 354 l 101 40 l 215 21 l 211 0 l -21 0 m 288 396 l 576 396 l 503 806 l 288 396 m 354 986 l 565 1197 l 589 1197 l 711 986 l 697 986 l 564 1125 l 368 986 l 354 986 z "},"Ầ":{"ha":897,"x_min":-21,"x_max":786,"o":"m -21 0 l -15 21 l 44 40 l 526 924 l 553 924 l 719 42 l 786 21 l 782 0 l 521 0 l 526 21 l 640 42 l 583 354 l 265 354 l 101 40 l 215 21 l 211 0 l -21 0 m 288 396 l 576 396 l 503 806 l 288 396 m 375 1118 l 257 1247 q 231 1278 242 1264 q 229 1317 221 1293 l 282 1317 l 385 1118 l 375 1118 m 354 986 l 565 1197 l 589 1197 l 711 986 l 697 986 l 564 1125 l 368 986 l 354 986 z "},"Ẩ":{"ha":897,"x_min":-21,"x_max":786,"o":"m -21 0 l -15 21 l 44 40 l 526 924 l 553 924 l 719 42 l 786 21 l 782 0 l 521 0 l 526 21 l 640 42 l 583 354 l 265 354 l 101 40 l 215 21 l 211 0 l -21 0 m 288 396 l 576 396 l 503 806 l 288 396 z "},"Ẫ":{"ha":897,"x_min":-21,"x_max":786,"o":"m -21 0 l -15 21 l 44 40 l 526 924 l 553 924 l 719 42 l 786 21 l 782 0 l 521 0 l 526 21 l 640 42 l 583 354 l 265 354 l 101 40 l 215 21 l 211 0 l -21 0 m 288 396 l 576 396 l 503 806 l 288 396 z "},"Ả":{"ha":897,"x_min":-21,"x_max":786,"o":"m -21 0 l -15 21 l 44 40 l 526 924 l 553 924 l 719 42 l 786 21 l 782 0 l 521 0 l 526 21 l 640 42 l 583 354 l 265 354 l 101 40 l 215 21 l 211 0 l -21 0 m 288 396 l 576 396 l 503 806 l 288 396 m 478 975 l 472 983 l 472 985 q 574 1026 540 1003 q 608 1092 608 1050 q 584 1147 608 1125 q 500 1178 560 1169 l 514 1215 q 617 1177 588 1208 q 647 1110 647 1146 q 478 975 647 1013 z "},"Æ":{"ha":1215,"x_min":-21,"x_max":1185,"o":"m -21 0 l -15 21 l 47 39 l 704 917 l 1185 917 l 1146 692 l 1125 692 l 1107 875 l 792 875 l 725 494 l 951 494 l 1003 610 l 1028 610 l 981 340 l 956 340 l 944 453 l 717 453 l 644 42 l 1007 42 l 1093 239 l 1114 239 l 1072 0 l 464 0 l 469 21 l 568 44 l 624 354 l 339 354 l 106 39 l 215 21 l 211 0 l -21 0 m 369 396 l 631 396 l 714 861 l 369 396 z "},"Ǽ":{"ha":1215,"x_min":-21,"x_max":1185,"o":"m -21 0 l -15 21 l 47 39 l 704 917 l 1185 917 l 1146 692 l 1125 692 l 1107 875 l 792 875 l 725 494 l 951 494 l 1003 610 l 1028 610 l 981 340 l 956 340 l 944 453 l 717 453 l 644 42 l 1007 42 l 1093 239 l 1114 239 l 1072 0 l 464 0 l 469 21 l 568 44 l 624 354 l 339 354 l 106 39 l 215 21 l 211 0 l -21 0 m 369 396 l 631 396 l 714 861 l 369 396 m 776 986 l 931 1197 l 997 1197 q 984 1160 994 1176 q 954 1128 974 1144 l 790 986 l 776 986 z "},"Ć":{"ha":921,"x_min":83,"x_max":838,"o":"m 450 -14 q 261 32 344 -14 q 131 163 178 78 q 83 361 83 247 q 121 572 83 469 q 228 755 158 674 q 391 883 297 836 q 597 931 485 931 q 740 910 689 931 q 838 863 792 890 l 808 660 l 788 660 l 763 826 q 675 873 722 858 q 568 888 628 888 q 393 847 469 888 q 265 735 317 807 q 188 571 214 664 q 161 374 161 478 q 204 192 161 272 q 318 66 247 113 q 474 19 389 19 q 567 30 525 19 q 644 61 608 40 l 740 253 l 761 253 l 718 54 q 604 4 664 22 q 450 -14 544 -14 m 586 986 l 740 1197 l 807 1197 q 794 1160 804 1176 q 764 1128 783 1144 l 600 986 l 586 986 z "},"Ĉ":{"ha":921,"x_min":83,"x_max":838,"o":"m 450 -14 q 261 32 344 -14 q 131 163 178 78 q 83 361 83 247 q 121 572 83 469 q 228 755 158 674 q 391 883 297 836 q 597 931 485 931 q 740 910 689 931 q 838 863 792 890 l 808 660 l 788 660 l 763 826 q 675 873 722 858 q 568 888 628 888 q 393 847 469 888 q 265 735 317 807 q 188 571 214 664 q 161 374 161 478 q 204 192 161 272 q 318 66 247 113 q 474 19 389 19 q 567 30 525 19 q 644 61 608 40 l 740 253 l 761 253 l 718 54 q 604 4 664 22 q 450 -14 544 -14 m 407 986 l 618 1197 l 642 1197 l 764 986 l 750 986 l 617 1125 l 421 986 l 407 986 z "},"Č":{"ha":921,"x_min":83,"x_max":838,"o":"m 450 -14 q 261 32 344 -14 q 131 163 178 78 q 83 361 83 247 q 121 572 83 469 q 228 755 158 674 q 391 883 297 836 q 597 931 485 931 q 740 910 689 931 q 838 863 792 890 l 808 660 l 788 660 l 763 826 q 675 873 722 858 q 568 888 628 888 q 393 847 469 888 q 265 735 317 807 q 188 571 214 664 q 161 374 161 478 q 204 192 161 272 q 318 66 247 113 q 474 19 389 19 q 567 30 525 19 q 644 61 608 40 l 740 253 l 761 253 l 718 54 q 604 4 664 22 q 450 -14 544 -14 m 582 986 l 454 1197 l 468 1197 l 601 1058 l 797 1197 l 811 1197 l 606 986 l 582 986 z "},"Ċ":{"ha":921,"x_min":83,"x_max":838,"o":"m 450 -14 q 261 32 344 -14 q 131 163 178 78 q 83 361 83 247 q 121 572 83 469 q 228 755 158 674 q 391 883 297 836 q 597 931 485 931 q 740 910 689 931 q 838 863 792 890 l 808 660 l 788 660 l 763 826 q 675 873 722 858 q 568 888 628 888 q 393 847 469 888 q 265 735 317 807 q 188 571 214 664 q 161 374 161 478 q 204 192 161 272 q 318 66 247 113 q 474 19 389 19 q 567 30 525 19 q 644 61 608 40 l 740 253 l 761 253 l 718 54 q 604 4 664 22 q 450 -14 544 -14 m 613 1040 q 576 1055 590 1040 q 561 1092 561 1069 q 576 1128 561 1114 q 613 1143 590 1143 q 649 1128 635 1143 q 664 1092 664 1114 q 649 1055 664 1069 q 613 1040 635 1040 z "},"Ç":{"ha":921,"x_min":83,"x_max":838,"o":"m 407 -333 q 356 -326 382 -333 q 317 -306 331 -319 l 319 -292 l 324 -292 q 363 -309 343 -304 q 406 -314 383 -314 q 478 -293 450 -314 q 506 -232 506 -272 q 474 -169 506 -190 q 361 -132 442 -147 l 436 -14 q 254 36 333 -11 q 129 166 175 83 q 83 361 83 249 q 121 572 83 469 q 228 755 158 674 q 391 883 297 836 q 597 931 485 931 q 740 910 689 931 q 838 863 792 890 l 808 660 l 788 660 l 763 826 q 675 873 722 858 q 568 888 628 888 q 393 847 469 888 q 265 735 317 807 q 188 571 214 664 q 161 374 161 478 q 204 192 161 272 q 318 66 247 113 q 474 19 389 19 q 567 30 525 19 q 644 61 608 40 l 740 253 l 761 253 l 718 54 q 608 6 665 24 q 463 -14 551 -12 l 411 -96 q 514 -139 478 -111 q 550 -217 550 -167 q 508 -301 550 -269 q 407 -333 467 -333 z "},"Ḉ":{"ha":921,"x_min":83,"x_max":838,"o":"m 586 986 l 740 1197 l 807 1197 q 794 1160 804 1176 q 764 1128 783 1144 l 600 986 l 586 986 m 407 -333 q 356 -326 382 -333 q 317 -306 331 -319 l 319 -292 l 324 -292 q 363 -309 343 -304 q 406 -314 383 -314 q 478 -293 450 -314 q 506 -232 506 -272 q 474 -169 506 -190 q 361 -132 442 -147 l 436 -14 q 254 36 333 -11 q 129 166 175 83 q 83 361 83 249 q 121 572 83 469 q 228 755 158 674 q 391 883 297 836 q 597 931 485 931 q 740 910 689 931 q 838 863 792 890 l 808 660 l 788 660 l 763 826 q 675 873 722 858 q 568 888 628 888 q 393 847 469 888 q 265 735 317 807 q 188 571 214 664 q 161 374 161 478 q 204 192 161 272 q 318 66 247 113 q 474 19 389 19 q 567 30 525 19 q 644 61 608 40 l 740 253 l 761 253 l 718 54 q 608 6 665 24 q 463 -14 551 -12 l 411 -96 q 514 -139 478 -111 q 550 -217 550 -167 q 508 -301 550 -269 q 407 -333 467 -333 z "},"Ď":{"ha":943,"x_min":14,"x_max":867,"o":"m 14 0 l 19 21 l 118 44 l 265 872 l 169 896 l 175 917 l 425 917 q 679 866 582 917 q 822 731 776 815 q 867 544 867 646 q 847 402 867 476 q 788 256 828 328 q 684 127 747 185 q 534 35 621 69 q 335 0 447 0 l 14 0 m 410 875 l 342 875 l 194 42 l 351 42 q 592 104 494 42 q 740 279 690 167 q 790 542 790 392 q 694 785 790 694 q 410 875 599 875 m 521 986 l 393 1197 l 407 1197 l 540 1058 l 736 1197 l 750 1197 l 544 986 l 521 986 z "},"Đ":{"ha":943,"x_min":14,"x_max":867,"o":"m 14 0 l 19 21 l 118 44 l 192 457 l 92 457 l 100 499 l 199 499 l 265 872 l 169 896 l 175 917 l 425 917 q 679 866 582 917 q 822 731 776 815 q 867 544 867 646 q 847 402 867 476 q 788 256 828 328 q 684 127 747 185 q 534 35 621 69 q 335 0 447 0 l 14 0 m 526 457 l 268 457 l 194 42 l 351 42 q 592 104 494 42 q 740 279 690 167 q 790 542 790 392 q 694 785 790 694 q 410 875 599 875 l 342 875 l 275 499 l 535 499 l 526 457 z "},"Ḍ":{"ha":943,"x_min":14,"x_max":867,"o":"m 14 0 l 19 21 l 118 44 l 265 872 l 169 896 l 175 917 l 425 917 q 679 866 582 917 q 822 731 776 815 q 867 544 867 646 q 847 402 867 476 q 788 256 828 328 q 684 127 747 185 q 534 35 621 69 q 335 0 447 0 l 14 0 m 410 875 l 342 875 l 194 42 l 351 42 q 592 104 494 42 q 740 279 690 167 q 790 542 790 392 q 694 785 790 694 q 410 875 599 875 z "},"Ḏ":{"ha":943,"x_min":14,"x_max":867,"o":"m 14 0 l 19 21 l 118 44 l 265 872 l 169 896 l 175 917 l 425 917 q 679 866 582 917 q 822 731 776 815 q 867 544 867 646 q 847 402 867 476 q 788 256 828 328 q 684 127 747 185 q 534 35 621 69 q 335 0 447 0 l 14 0 m 410 875 l 342 875 l 194 42 l 351 42 q 592 104 494 42 q 740 279 690 167 q 790 542 790 392 q 694 785 790 694 q 410 875 599 875 z "},"È":{"ha":765,"x_min":14,"x_max":735,"o":"m 14 0 l 19 21 l 118 44 l 265 872 l 169 896 l 175 917 l 735 917 l 696 692 l 675 692 l 657 875 l 342 875 l 275 494 l 501 494 l 553 610 l 578 610 l 531 340 l 506 340 l 494 453 l 267 453 l 194 42 l 557 42 l 643 239 l 664 239 l 622 0 l 14 0 m 493 986 l 331 1132 q 314 1162 315 1144 q 318 1197 313 1179 l 372 1197 l 507 986 l 493 986 z "},"É":{"ha":765,"x_min":14,"x_max":735,"o":"m 14 0 l 19 21 l 118 44 l 265 872 l 169 896 l 175 917 l 735 917 l 696 692 l 675 692 l 657 875 l 342 875 l 275 494 l 501 494 l 553 610 l 578 610 l 531 340 l 506 340 l 494 453 l 267 453 l 194 42 l 557 42 l 643 239 l 664 239 l 622 0 l 14 0 m 493 986 l 647 1197 l 714 1197 q 701 1160 711 1176 q 671 1128 690 1144 l 507 986 l 493 986 z "},"Ê":{"ha":765,"x_min":14,"x_max":735,"o":"m 14 0 l 19 21 l 118 44 l 265 872 l 169 896 l 175 917 l 735 917 l 696 692 l 675 692 l 657 875 l 342 875 l 275 494 l 501 494 l 553 610 l 578 610 l 531 340 l 506 340 l 494 453 l 267 453 l 194 42 l 557 42 l 643 239 l 664 239 l 622 0 l 14 0 m 314 986 l 525 1197 l 549 1197 l 671 986 l 657 986 l 524 1125 l 328 986 l 314 986 z "},"Ě":{"ha":765,"x_min":14,"x_max":735,"o":"m 14 0 l 19 21 l 118 44 l 265 872 l 169 896 l 175 917 l 735 917 l 696 692 l 675 692 l 657 875 l 342 875 l 275 494 l 501 494 l 553 610 l 578 610 l 531 340 l 506 340 l 494 453 l 267 453 l 194 42 l 557 42 l 643 239 l 664 239 l 622 0 l 14 0 m 489 986 l 361 1197 l 375 1197 l 508 1058 l 704 1197 l 718 1197 l 513 986 l 489 986 z "},"Ẽ":{"ha":765,"x_min":14,"x_max":735,"o":"m 14 0 l 19 21 l 118 44 l 265 872 l 169 896 l 175 917 l 735 917 l 696 692 l 675 692 l 657 875 l 342 875 l 275 494 l 501 494 l 553 610 l 578 610 l 531 340 l 506 340 l 494 453 l 267 453 l 194 42 l 557 42 l 643 239 l 664 239 l 622 0 l 14 0 m 322 1011 q 389 1138 361 1107 q 450 1169 417 1169 q 495 1152 475 1169 q 533 1111 515 1135 q 569 1070 551 1088 q 606 1053 586 1053 q 653 1081 632 1053 q 704 1169 675 1110 l 718 1169 q 652 1042 681 1074 q 590 1011 624 1011 q 545 1028 565 1011 q 507 1069 525 1046 q 472 1110 489 1093 q 435 1128 454 1128 q 387 1099 408 1128 q 336 1011 365 1071 l 322 1011 z "},"Ë":{"ha":765,"x_min":14,"x_max":735,"o":"m 14 0 l 19 21 l 118 44 l 265 872 l 169 896 l 175 917 l 735 917 l 696 692 l 675 692 l 657 875 l 342 875 l 275 494 l 501 494 l 553 610 l 578 610 l 531 340 l 506 340 l 494 453 l 267 453 l 194 42 l 557 42 l 643 239 l 664 239 l 622 0 l 14 0 m 392 1040 q 355 1055 369 1040 q 340 1092 340 1069 q 355 1128 340 1114 q 392 1143 369 1143 q 428 1128 414 1143 q 443 1092 443 1114 q 428 1055 443 1069 q 392 1040 414 1040 m 647 1040 q 610 1055 625 1040 q 596 1092 596 1069 q 610 1128 596 1114 q 647 1143 625 1143 q 684 1128 669 1143 q 699 1092 699 1114 q 684 1055 699 1069 q 647 1040 669 1040 z "},"Ē":{"ha":765,"x_min":14,"x_max":735,"o":"m 14 0 l 19 21 l 118 44 l 265 872 l 169 896 l 175 917 l 735 917 l 696 692 l 675 692 l 657 875 l 342 875 l 275 494 l 501 494 l 553 610 l 578 610 l 531 340 l 506 340 l 494 453 l 267 453 l 194 42 l 557 42 l 643 239 l 664 239 l 622 0 l 14 0 m 346 1074 l 353 1113 l 688 1113 l 681 1074 l 346 1074 z "},"Ĕ":{"ha":765,"x_min":14,"x_max":735,"o":"m 14 0 l 19 21 l 118 44 l 265 872 l 169 896 l 175 917 l 735 917 l 696 692 l 675 692 l 657 875 l 342 875 l 275 494 l 501 494 l 553 610 l 578 610 l 531 340 l 506 340 l 494 453 l 267 453 l 194 42 l 557 42 l 643 239 l 664 239 l 622 0 l 14 0 m 500 986 q 388 1038 421 986 q 353 1197 356 1090 l 367 1197 q 396 1093 379 1128 q 440 1046 413 1058 q 508 1033 468 1033 q 578 1047 547 1033 q 638 1095 610 1060 q 696 1197 665 1131 l 710 1197 q 624 1038 674 1089 q 500 986 575 986 z "},"Ė":{"ha":765,"x_min":14,"x_max":735,"o":"m 14 0 l 19 21 l 118 44 l 265 872 l 169 896 l 175 917 l 735 917 l 696 692 l 675 692 l 657 875 l 342 875 l 275 494 l 501 494 l 553 610 l 578 610 l 531 340 l 506 340 l 494 453 l 267 453 l 194 42 l 557 42 l 643 239 l 664 239 l 622 0 l 14 0 m 519 1040 q 483 1055 497 1040 q 468 1092 468 1069 q 483 1128 468 1114 q 519 1143 497 1143 q 556 1128 542 1143 q 571 1092 571 1114 q 556 1055 571 1069 q 519 1040 542 1040 z "},"Ę":{"ha":765,"x_min":14,"x_max":735,"o":"m 14 0 l 19 21 l 118 44 l 265 872 l 169 896 l 175 917 l 735 917 l 696 692 l 675 692 l 657 875 l 342 875 l 275 494 l 501 494 l 553 610 l 578 610 l 531 340 l 506 340 l 494 453 l 267 453 l 194 42 l 557 42 l 643 239 l 664 239 l 622 0 l 550 0 q 444 -115 479 -65 q 408 -224 408 -164 q 431 -283 408 -264 q 494 -301 454 -301 q 535 -295 514 -301 q 572 -278 556 -289 l 576 -278 l 574 -293 q 532 -321 558 -308 q 469 -333 506 -333 q 388 -306 419 -333 q 357 -232 357 -279 q 407 -112 357 -171 q 522 0 457 -53 l 14 0 z "},"Ẹ":{"ha":765,"x_min":14,"x_max":735,"o":"m 14 0 l 19 21 l 118 44 l 265 872 l 169 896 l 175 917 l 735 917 l 696 692 l 675 692 l 657 875 l 342 875 l 275 494 l 501 494 l 553 610 l 578 610 l 531 340 l 506 340 l 494 453 l 267 453 l 194 42 l 557 42 l 643 239 l 664 239 l 622 0 l 14 0 z "},"Ȅ":{"ha":765,"x_min":14,"x_max":735,"o":"m 14 0 l 19 21 l 118 44 l 265 872 l 169 896 l 175 917 l 735 917 l 696 692 l 675 692 l 657 875 l 342 875 l 275 494 l 501 494 l 553 610 l 578 610 l 531 340 l 506 340 l 494 453 l 267 453 l 194 42 l 557 42 l 643 239 l 664 239 l 622 0 l 14 0 m 567 986 l 440 1110 q 411 1155 417 1133 q 408 1197 406 1176 l 461 1197 l 581 986 l 567 986 m 418 986 l 292 1110 q 263 1155 268 1133 q 260 1197 257 1176 l 313 1197 l 432 986 l 418 986 z "},"Ȇ":{"ha":765,"x_min":14,"x_max":735,"o":"m 14 0 l 19 21 l 118 44 l 265 872 l 169 896 l 175 917 l 735 917 l 696 692 l 675 692 l 657 875 l 342 875 l 275 494 l 501 494 l 553 610 l 578 610 l 531 340 l 506 340 l 494 453 l 267 453 l 194 42 l 557 42 l 643 239 l 664 239 l 622 0 l 14 0 m 324 988 q 409 1147 360 1096 q 533 1199 458 1199 q 645 1147 613 1199 q 681 988 678 1094 l 667 988 q 638 1091 656 1056 q 593 1139 619 1126 q 525 1151 567 1151 q 455 1138 486 1151 q 395 1090 424 1125 q 338 988 367 1054 l 324 988 z "},"Ế":{"ha":765,"x_min":14,"x_max":838,"o":"m 14 0 l 19 21 l 118 44 l 265 872 l 169 896 l 175 917 l 735 917 l 696 692 l 675 692 l 657 875 l 342 875 l 275 494 l 501 494 l 553 610 l 578 610 l 531 340 l 506 340 l 494 453 l 267 453 l 194 42 l 557 42 l 643 239 l 664 239 l 622 0 l 14 0 m 668 1118 l 771 1317 l 838 1317 q 823 1281 835 1296 q 794 1247 811 1267 l 682 1118 l 668 1118 m 314 986 l 525 1197 l 549 1197 l 671 986 l 657 986 l 524 1125 l 328 986 l 314 986 z "},"Ệ":{"ha":765,"x_min":14,"x_max":735,"o":"m 14 0 l 19 21 l 118 44 l 265 872 l 169 896 l 175 917 l 735 917 l 696 692 l 675 692 l 657 875 l 342 875 l 275 494 l 501 494 l 553 610 l 578 610 l 531 340 l 506 340 l 494 453 l 267 453 l 194 42 l 557 42 l 643 239 l 664 239 l 622 0 l 14 0 m 314 986 l 525 1197 l 549 1197 l 671 986 l 657 986 l 524 1125 l 328 986 l 314 986 z "},"Ề":{"ha":765,"x_min":14,"x_max":735,"o":"m 14 0 l 19 21 l 118 44 l 265 872 l 169 896 l 175 917 l 735 917 l 696 692 l 675 692 l 657 875 l 342 875 l 275 494 l 501 494 l 553 610 l 578 610 l 531 340 l 506 340 l 494 453 l 267 453 l 194 42 l 557 42 l 643 239 l 664 239 l 622 0 l 14 0 m 335 1118 l 217 1247 q 191 1278 201 1264 q 189 1317 181 1293 l 242 1317 l 344 1118 l 335 1118 m 314 986 l 525 1197 l 549 1197 l 671 986 l 657 986 l 524 1125 l 328 986 l 314 986 z "},"Ể":{"ha":765,"x_min":14,"x_max":735,"o":"m 14 0 l 19 21 l 118 44 l 265 872 l 169 896 l 175 917 l 735 917 l 696 692 l 675 692 l 657 875 l 342 875 l 275 494 l 501 494 l 553 610 l 578 610 l 531 340 l 506 340 l 494 453 l 267 453 l 194 42 l 557 42 l 643 239 l 664 239 l 622 0 l 14 0 z "},"Ễ":{"ha":765,"x_min":14,"x_max":738,"o":"m 14 0 l 19 21 l 118 44 l 265 872 l 169 896 l 175 917 l 735 917 l 696 692 l 675 692 l 657 875 l 342 875 l 275 494 l 501 494 l 553 610 l 578 610 l 531 340 l 506 340 l 494 453 l 267 453 l 194 42 l 557 42 l 643 239 l 664 239 l 622 0 l 14 0 z "},"Ẻ":{"ha":765,"x_min":14,"x_max":735,"o":"m 14 0 l 19 21 l 118 44 l 265 872 l 169 896 l 175 917 l 735 917 l 696 692 l 675 692 l 657 875 l 342 875 l 275 494 l 501 494 l 553 610 l 578 610 l 531 340 l 506 340 l 494 453 l 267 453 l 194 42 l 557 42 l 643 239 l 664 239 l 622 0 l 14 0 m 438 975 l 432 983 l 432 985 q 534 1026 500 1003 q 568 1092 568 1050 q 544 1147 568 1125 q 460 1178 519 1169 l 474 1215 q 577 1177 547 1208 q 607 1110 607 1146 q 438 975 607 1013 z "},"Ḕ":{"ha":765,"x_min":14,"x_max":735,"o":"m 14 0 l 19 21 l 118 44 l 265 872 l 169 896 l 175 917 l 735 917 l 696 692 l 675 692 l 657 875 l 342 875 l 275 494 l 501 494 l 553 610 l 578 610 l 531 340 l 506 340 l 494 453 l 267 453 l 194 42 l 557 42 l 643 239 l 664 239 l 622 0 l 14 0 z "},"Ḗ":{"ha":765,"x_min":14,"x_max":735,"o":"m 14 0 l 19 21 l 118 44 l 265 872 l 169 896 l 175 917 l 735 917 l 696 692 l 675 692 l 657 875 l 342 875 l 275 494 l 501 494 l 553 610 l 578 610 l 531 340 l 506 340 l 494 453 l 267 453 l 194 42 l 557 42 l 643 239 l 664 239 l 622 0 l 14 0 z "},"Ḝ":{"ha":765,"x_min":14,"x_max":735,"o":"m 500 986 q 388 1038 421 986 q 353 1197 356 1090 l 367 1197 q 395 1093 378 1128 q 440 1046 413 1058 q 508 1033 467 1033 q 578 1047 547 1033 q 638 1095 610 1060 q 696 1197 667 1131 l 710 1197 q 624 1038 674 1089 q 500 986 575 986 m 14 0 l 19 21 l 118 44 l 265 872 l 169 896 l 175 917 l 735 917 l 696 692 l 675 692 l 657 875 l 342 875 l 275 494 l 501 494 l 553 610 l 578 610 l 531 340 l 506 340 l 494 453 l 267 453 l 194 42 l 557 42 l 643 239 l 664 239 l 622 0 l 369 0 l 308 -96 q 411 -139 375 -111 q 447 -217 447 -167 q 406 -301 447 -269 q 304 -333 364 -333 q 253 -326 279 -333 q 214 -306 228 -319 l 217 -292 l 221 -292 q 260 -309 240 -304 q 303 -314 281 -314 q 375 -293 347 -314 q 403 -232 403 -272 q 371 -169 403 -190 q 258 -132 339 -147 l 343 0 l 14 0 z "},"Ĝ":{"ha":961,"x_min":83,"x_max":869,"o":"m 428 -14 q 246 35 324 -14 q 126 169 168 85 q 83 361 83 254 q 119 560 83 460 q 219 745 154 661 q 377 880 285 829 q 585 931 469 931 q 742 911 683 931 q 847 863 800 892 l 817 660 l 796 660 l 768 824 q 682 873 729 858 q 569 888 635 888 q 393 849 469 888 q 265 742 317 810 q 185 587 213 675 q 158 400 158 499 q 240 131 158 231 q 472 32 322 32 q 558 42 514 32 q 650 75 601 53 l 700 354 l 585 382 l 589 403 l 869 403 l 865 382 l 764 358 l 715 89 q 578 14 657 42 q 428 -14 499 -14 m 404 986 l 615 1197 l 639 1197 l 761 986 l 747 986 l 614 1125 l 418 986 l 404 986 z "},"Ğ":{"ha":961,"x_min":83,"x_max":869,"o":"m 428 -14 q 246 35 324 -14 q 126 169 168 85 q 83 361 83 254 q 119 560 83 460 q 219 745 154 661 q 377 880 285 829 q 585 931 469 931 q 742 911 683 931 q 847 863 800 892 l 817 660 l 796 660 l 768 824 q 682 873 729 858 q 569 888 635 888 q 393 849 469 888 q 265 742 317 810 q 185 587 213 675 q 158 400 158 499 q 240 131 158 231 q 472 32 322 32 q 558 42 514 32 q 650 75 601 53 l 700 354 l 585 382 l 589 403 l 869 403 l 865 382 l 764 358 l 715 89 q 578 14 657 42 q 428 -14 499 -14 m 590 986 q 478 1038 511 986 q 443 1197 446 1090 l 457 1197 q 486 1093 469 1128 q 531 1046 503 1058 q 599 1033 558 1033 q 669 1047 638 1033 q 728 1095 700 1060 q 786 1197 756 1131 l 800 1197 q 715 1038 764 1089 q 590 986 665 986 z "},"Ġ":{"ha":961,"x_min":83,"x_max":869,"o":"m 428 -14 q 246 35 324 -14 q 126 169 168 85 q 83 361 83 254 q 119 560 83 460 q 219 745 154 661 q 377 880 285 829 q 585 931 469 931 q 742 911 683 931 q 847 863 800 892 l 817 660 l 796 660 l 768 824 q 682 873 729 858 q 569 888 635 888 q 393 849 469 888 q 265 742 317 810 q 185 587 213 675 q 158 400 158 499 q 240 131 158 231 q 472 32 322 32 q 558 42 514 32 q 650 75 601 53 l 700 354 l 585 382 l 589 403 l 869 403 l 865 382 l 764 358 l 715 89 q 578 14 657 42 q 428 -14 499 -14 m 610 1040 q 573 1055 588 1040 q 558 1092 558 1069 q 573 1128 558 1114 q 610 1143 588 1143 q 647 1128 632 1143 q 661 1092 661 1114 q 647 1055 661 1069 q 610 1040 632 1040 z "},"Ģ":{"ha":961,"x_min":83,"x_max":869,"o":"m 428 -14 q 246 35 324 -14 q 126 169 168 85 q 83 361 83 254 q 119 560 83 460 q 219 745 154 661 q 377 880 285 829 q 585 931 469 931 q 742 911 683 931 q 847 863 800 892 l 817 660 l 796 660 l 768 824 q 682 873 729 858 q 569 888 635 888 q 393 849 469 888 q 265 742 317 810 q 185 587 213 675 q 158 400 158 499 q 240 131 158 231 q 472 32 322 32 q 558 42 514 32 q 650 75 601 53 l 700 354 l 585 382 l 589 403 l 869 403 l 865 382 l 764 358 l 715 89 q 578 14 657 42 q 428 -14 499 -14 m 628 985 q 531 1012 567 986 q 496 1085 496 1038 q 538 1162 496 1133 q 644 1190 579 1190 q 667 1190 654 1190 q 690 1186 681 1189 l 686 1172 q 667 1174 676 1174 q 646 1175 657 1175 q 574 1156 604 1175 q 543 1097 543 1138 q 575 1043 543 1058 q 676 1028 607 1028 l 669 1006 q 658 989 665 993 q 628 985 651 985 z "},"Ǧ":{"ha":961,"x_min":83,"x_max":869,"o":"m 428 -14 q 246 35 324 -14 q 126 169 168 85 q 83 361 83 254 q 119 560 83 460 q 219 745 154 661 q 377 880 285 829 q 585 931 469 931 q 742 911 683 931 q 847 863 800 892 l 817 660 l 796 660 l 768 824 q 682 873 729 858 q 569 888 635 888 q 393 849 469 888 q 265 742 317 810 q 185 587 213 675 q 158 400 158 499 q 240 131 158 231 q 472 32 322 32 q 558 42 514 32 q 650 75 601 53 l 700 354 l 585 382 l 589 403 l 869 403 l 865 382 l 764 358 l 715 89 q 578 14 657 42 q 428 -14 499 -14 m 579 986 l 451 1197 l 465 1197 l 599 1058 l 794 1197 l 808 1197 l 603 986 l 579 986 z "},"Ḡ":{"ha":961,"x_min":83,"x_max":869,"o":"m 428 -14 q 246 35 324 -14 q 126 169 168 85 q 83 361 83 254 q 119 560 83 460 q 219 745 154 661 q 377 880 285 829 q 585 931 469 931 q 742 911 683 931 q 847 863 800 892 l 817 660 l 796 660 l 768 824 q 682 873 729 858 q 569 888 635 888 q 393 849 469 888 q 265 742 317 810 q 185 587 213 675 q 158 400 158 499 q 240 131 158 231 q 472 32 322 32 q 558 42 514 32 q 650 75 601 53 l 700 354 l 585 382 l 589 403 l 869 403 l 865 382 l 764 358 l 715 89 q 578 14 657 42 q 428 -14 499 -14 m 436 1074 l 443 1113 l 778 1113 l 771 1074 l 436 1074 z "},"Ĥ":{"ha":1008,"x_min":14,"x_max":994,"o":"m 14 0 l 17 21 l 118 46 l 265 874 l 158 896 l 164 917 l 450 917 l 444 896 l 340 871 l 274 497 l 746 497 l 813 874 l 703 896 l 708 917 l 994 917 l 989 896 l 888 871 l 740 43 l 847 21 l 844 0 l 558 0 l 561 21 l 665 46 l 738 456 l 267 456 l 193 43 l 303 21 l 300 0 l 14 0 m 404 986 l 615 1197 l 639 1197 l 761 986 l 747 986 l 614 1125 l 418 986 l 404 986 z "},"Ħ":{"ha":1008,"x_min":14,"x_max":994,"o":"m 14 0 l 17 21 l 118 46 l 229 671 l 125 671 l 133 713 l 236 713 l 265 874 l 158 896 l 164 917 l 450 917 l 444 896 l 340 871 l 313 713 l 783 713 l 813 874 l 703 896 l 708 917 l 994 917 l 989 896 l 888 871 l 860 713 l 957 713 l 949 671 l 851 671 l 740 43 l 847 21 l 844 0 l 558 0 l 561 21 l 665 46 l 738 456 l 267 456 l 193 43 l 303 21 l 300 0 l 14 0 m 274 497 l 746 497 l 776 671 l 304 671 l 274 497 z "},"Ḥ":{"ha":1008,"x_min":14,"x_max":994,"o":"m 14 0 l 17 21 l 118 46 l 265 874 l 158 896 l 164 917 l 450 917 l 444 896 l 340 871 l 274 497 l 746 497 l 813 874 l 703 896 l 708 917 l 994 917 l 989 896 l 888 871 l 740 43 l 847 21 l 844 0 l 558 0 l 561 21 l 665 46 l 738 456 l 267 456 l 193 43 l 303 21 l 300 0 l 14 0 z "},"Ḫ":{"ha":1008,"x_min":14,"x_max":994,"o":"m 14 0 l 17 21 l 118 46 l 265 874 l 158 896 l 164 917 l 450 917 l 444 896 l 340 871 l 274 497 l 746 497 l 813 874 l 703 896 l 708 917 l 994 917 l 989 896 l 888 871 l 740 43 l 847 21 l 844 0 l 558 0 l 561 21 l 665 46 l 738 456 l 267 456 l 193 43 l 303 21 l 300 0 l 14 0 z "},"Ì":{"ha":460,"x_min":13,"x_max":446,"o":"m 13 0 l 17 21 l 118 46 l 265 874 l 171 897 l 175 917 l 446 917 l 442 897 l 342 874 l 194 46 l 288 21 l 283 0 l 13 0 m 317 986 l 154 1132 q 138 1162 139 1144 q 142 1197 136 1179 l 196 1197 l 331 986 l 317 986 z "},"Í":{"ha":460,"x_min":13,"x_max":538,"o":"m 13 0 l 17 21 l 118 46 l 265 874 l 171 897 l 175 917 l 446 917 l 442 897 l 342 874 l 194 46 l 288 21 l 283 0 l 13 0 m 317 986 l 471 1197 l 538 1197 q 524 1160 535 1176 q 494 1128 514 1144 l 331 986 l 317 986 z "},"Î":{"ha":460,"x_min":13,"x_max":494,"o":"m 13 0 l 17 21 l 118 46 l 265 874 l 171 897 l 175 917 l 446 917 l 442 897 l 342 874 l 194 46 l 288 21 l 283 0 l 13 0 m 138 986 l 349 1197 l 372 1197 l 494 986 l 481 986 l 347 1125 l 151 986 l 138 986 z "},"Ĩ":{"ha":460,"x_min":13,"x_max":542,"o":"m 13 0 l 17 21 l 118 46 l 265 874 l 171 897 l 175 917 l 446 917 l 442 897 l 342 874 l 194 46 l 288 21 l 283 0 l 13 0 m 146 1011 q 213 1138 185 1107 q 274 1169 240 1169 q 319 1152 299 1169 q 357 1111 339 1135 q 392 1070 375 1088 q 429 1053 410 1053 q 477 1081 456 1053 q 528 1169 499 1110 l 542 1169 q 476 1042 504 1074 q 414 1011 447 1011 q 369 1028 389 1011 q 331 1069 349 1046 q 295 1110 313 1093 q 258 1128 278 1128 q 210 1099 232 1128 q 160 1011 189 1071 l 146 1011 z "},"Ï":{"ha":460,"x_min":13,"x_max":522,"o":"m 13 0 l 17 21 l 118 46 l 265 874 l 171 897 l 175 917 l 446 917 l 442 897 l 342 874 l 194 46 l 288 21 l 283 0 l 13 0 m 215 1040 q 178 1055 193 1040 q 164 1092 164 1069 q 178 1128 164 1114 q 215 1143 193 1143 q 252 1128 238 1143 q 267 1092 267 1114 q 252 1055 267 1069 q 215 1040 238 1040 m 471 1040 q 434 1055 449 1040 q 419 1092 419 1069 q 434 1128 419 1114 q 471 1143 449 1143 q 508 1128 493 1143 q 522 1092 522 1114 q 508 1055 522 1069 q 471 1040 493 1040 z "},"Ī":{"ha":460,"x_min":13,"x_max":511,"o":"m 13 0 l 17 21 l 118 46 l 265 874 l 171 897 l 175 917 l 446 917 l 442 897 l 342 874 l 194 46 l 288 21 l 283 0 l 13 0 m 169 1074 l 176 1113 l 511 1113 l 504 1074 l 169 1074 z "},"Ĭ":{"ha":460,"x_min":13,"x_max":533,"o":"m 13 0 l 17 21 l 118 46 l 265 874 l 171 897 l 175 917 l 446 917 l 442 897 l 342 874 l 194 46 l 288 21 l 283 0 l 13 0 m 324 986 q 212 1038 244 986 q 176 1197 179 1090 l 190 1197 q 219 1093 203 1128 q 264 1046 236 1058 q 332 1033 292 1033 q 402 1047 371 1033 q 461 1095 433 1060 q 519 1197 489 1131 l 533 1197 q 448 1038 497 1089 q 324 986 399 986 z "},"İ":{"ha":460,"x_min":13,"x_max":446,"o":"m 13 0 l 17 21 l 118 46 l 265 874 l 171 897 l 175 917 l 446 917 l 442 897 l 342 874 l 194 46 l 288 21 l 283 0 l 13 0 m 343 1040 q 306 1055 321 1040 q 292 1092 292 1069 q 306 1128 292 1114 q 343 1143 321 1143 q 380 1128 365 1143 q 394 1092 394 1114 q 380 1055 394 1069 q 343 1040 365 1040 z "},"Į":{"ha":460,"x_min":-12,"x_max":446,"o":"m 14 0 l 17 21 l 118 46 l 265 874 l 171 897 l 175 917 l 446 917 l 442 897 l 342 874 l 194 46 l 288 21 l 285 0 l 181 0 q 74 -115 110 -65 q 39 -224 39 -164 q 62 -283 39 -264 q 125 -301 85 -301 q 165 -295 144 -301 q 203 -278 186 -289 l 207 -278 l 204 -293 q 163 -321 189 -308 q 100 -333 136 -333 q 19 -306 50 -333 q -12 -232 -12 -279 q 38 -112 -12 -171 q 153 0 88 -53 l 14 0 z "},"Ị":{"ha":460,"x_min":13,"x_max":446,"o":"m 13 0 l 17 21 l 118 46 l 265 874 l 171 897 l 175 917 l 446 917 l 442 897 l 342 874 l 194 46 l 288 21 l 283 0 l 13 0 z "},"Ȉ":{"ha":460,"x_min":13,"x_max":446,"o":"m 13 0 l 17 21 l 118 46 l 265 874 l 171 897 l 175 917 l 446 917 l 442 897 l 342 874 l 194 46 l 288 21 l 283 0 l 13 0 m 390 986 l 264 1110 q 235 1155 240 1133 q 232 1197 229 1176 l 285 1197 l 404 986 l 390 986 m 242 986 l 115 1110 q 86 1155 92 1133 q 83 1197 81 1176 l 136 1197 l 256 986 l 242 986 z "},"Ȋ":{"ha":460,"x_min":13,"x_max":504,"o":"m 13 0 l 17 21 l 118 46 l 265 874 l 171 897 l 175 917 l 446 917 l 442 897 l 342 874 l 194 46 l 288 21 l 283 0 l 13 0 m 147 988 q 233 1147 183 1096 q 357 1199 282 1199 q 469 1147 436 1199 q 504 988 501 1094 l 490 988 q 461 1091 479 1056 q 417 1139 443 1126 q 349 1151 390 1151 q 278 1138 310 1151 q 219 1090 247 1125 q 161 988 190 1054 l 147 988 z "},"Ỉ":{"ha":460,"x_min":13,"x_max":446,"o":"m 13 0 l 17 21 l 118 46 l 265 874 l 171 897 l 175 917 l 446 917 l 442 897 l 342 874 l 194 46 l 288 21 l 283 0 l 13 0 m 261 975 l 256 983 l 256 985 q 358 1026 324 1003 q 392 1092 392 1050 q 367 1147 392 1125 q 283 1178 343 1169 l 297 1215 q 401 1177 371 1208 q 431 1110 431 1146 q 261 975 431 1013 z "},"Ḯ":{"ha":460,"x_min":13,"x_max":572,"o":"m 13 0 l 17 21 l 118 46 l 265 874 l 171 897 l 175 917 l 446 917 l 442 897 l 342 874 l 194 46 l 288 21 l 283 0 l 13 0 z "},"Ĳ":{"ha":925,"x_min":13,"x_max":918,"o":"m 13 0 l 17 21 l 118 46 l 265 874 l 171 897 l 175 917 l 446 917 l 442 897 l 342 874 l 194 46 l 288 21 l 283 0 l 13 0 m 417 -240 q 384 -226 397 -240 q 379 -192 371 -212 l 400 -137 l 407 -137 q 440 -147 428 -144 q 469 -150 453 -150 q 519 -133 496 -150 q 560 -69 542 -117 q 596 71 579 -22 l 738 874 l 643 897 l 647 917 l 918 917 l 914 897 l 814 874 l 710 292 q 644 13 679 119 q 553 -150 610 -94 q 490 -210 513 -190 q 451 -235 467 -229 q 417 -240 436 -240 z "},"Ĵ":{"ha":465,"x_min":-89,"x_max":508,"o":"m -43 -240 q -76 -226 -62 -240 q -81 -192 -89 -212 l -60 -137 l -53 -137 q -19 -147 -32 -144 q 10 -150 -7 -150 q 59 -133 36 -150 q 101 -69 82 -117 q 136 71 119 -22 l 278 874 l 183 897 l 188 917 l 458 917 l 454 897 l 354 874 l 250 292 q 185 13 219 119 q 93 -150 150 -94 q 30 -210 53 -190 q -8 -235 7 -229 q -43 -240 -24 -240 m 151 986 l 363 1197 l 386 1197 l 508 986 l 494 986 l 361 1125 l 165 986 l 151 986 z "},"Ķ":{"ha":885,"x_min":13,"x_max":863,"o":"m 13 0 l 17 21 l 118 46 l 265 874 l 171 897 l 175 917 l 446 917 l 442 897 l 342 874 l 271 478 l 697 868 l 593 897 l 597 917 l 863 917 l 858 897 l 782 881 l 338 490 l 722 36 l 796 21 l 792 0 l 649 0 l 268 463 l 194 46 l 301 21 l 297 0 l 13 0 m 328 -332 q 305 -331 318 -332 q 282 -328 292 -331 l 286 -314 q 306 -316 296 -315 q 326 -317 315 -317 q 399 -298 368 -317 q 429 -239 429 -279 q 397 -185 429 -200 q 296 -169 365 -169 l 303 -147 q 314 -131 307 -135 q 344 -126 321 -126 q 441 -153 406 -128 q 476 -226 476 -179 q 435 -303 476 -275 q 328 -332 393 -332 z "},"Ĺ":{"ha":765,"x_min":14,"x_max":658,"o":"m 14 0 l 19 21 l 118 44 l 265 872 l 171 897 l 175 917 l 460 917 l 456 897 l 340 872 l 194 42 l 532 42 l 633 288 l 658 288 l 608 0 l 14 0 m 317 986 l 471 1197 l 538 1197 q 524 1160 535 1176 q 494 1128 514 1144 l 331 986 l 317 986 z "},"Ľ":{"ha":765,"x_min":14,"x_max":665,"o":"m 14 0 l 19 21 l 118 44 l 265 872 l 171 897 l 175 917 l 460 917 l 456 897 l 340 872 l 194 42 l 532 42 l 633 288 l 658 288 l 608 0 l 14 0 m 511 657 l 601 917 l 663 917 q 658 876 665 894 q 632 828 650 857 l 525 657 l 511 657 z "},"Ļ":{"ha":765,"x_min":14,"x_max":658,"o":"m 14 0 l 19 21 l 118 44 l 265 872 l 171 897 l 175 917 l 460 917 l 456 897 l 340 872 l 194 42 l 532 42 l 633 288 l 658 288 l 608 0 l 14 0 m 274 -332 q 251 -331 264 -332 q 228 -328 238 -331 l 232 -314 q 251 -316 242 -315 q 272 -317 261 -317 q 344 -298 314 -317 q 375 -239 375 -279 q 343 -185 375 -200 q 242 -169 311 -169 l 249 -147 q 260 -131 253 -135 q 290 -126 267 -126 q 387 -153 351 -128 q 422 -226 422 -179 q 381 -303 422 -275 q 274 -332 339 -332 z "},"Ł":{"ha":765,"x_min":14,"x_max":658,"o":"m 14 0 l 19 21 l 118 44 l 179 390 l 72 331 l 85 388 l 190 447 l 265 872 l 171 897 l 175 917 l 460 917 l 456 897 l 340 872 l 272 483 l 560 639 l 547 582 l 263 428 l 194 42 l 532 42 l 633 288 l 658 288 l 608 0 l 14 0 z "},"Ŀ":{"ha":765,"x_min":14,"x_max":683,"o":"m 14 0 l 19 21 l 118 44 l 265 872 l 171 897 l 175 917 l 460 917 l 456 897 l 340 872 l 194 42 l 532 42 l 633 288 l 658 288 l 608 0 l 14 0 m 632 421 q 595 435 610 421 q 581 472 581 450 q 595 509 581 494 q 632 524 610 524 q 669 509 654 524 q 683 472 683 494 q 669 435 683 450 q 632 421 654 421 z "},"Ḷ":{"ha":765,"x_min":14,"x_max":658,"o":"m 14 0 l 19 21 l 118 44 l 265 872 l 171 897 l 175 917 l 460 917 l 456 897 l 340 872 l 194 42 l 532 42 l 633 288 l 658 288 l 608 0 l 14 0 z "},"Ḻ":{"ha":765,"x_min":14,"x_max":658,"o":"m 14 0 l 19 21 l 118 44 l 265 872 l 171 897 l 175 917 l 460 917 l 456 897 l 340 872 l 194 42 l 532 42 l 633 288 l 658 288 l 608 0 l 14 0 z "},"Ṃ":{"ha":1204,"x_min":14,"x_max":1190,"o":"m 14 0 l 19 21 l 121 44 l 293 869 l 189 899 l 193 917 l 386 917 l 561 128 l 1000 917 l 1190 917 l 1186 897 l 1076 869 l 972 44 l 1056 21 l 1051 0 l 793 0 l 799 21 l 894 43 l 1000 825 l 535 -7 l 508 -7 l 328 831 l 176 43 l 274 21 l 269 0 l 14 0 z "},"Ń":{"ha":997,"x_min":13,"x_max":983,"o":"m 13 0 l 17 21 l 118 44 l 265 874 l 154 897 l 158 917 l 338 917 l 713 147 l 840 872 l 721 897 l 725 917 l 983 917 l 979 897 l 888 872 l 732 -7 l 704 -7 l 304 808 l 169 49 l 278 21 l 274 0 l 13 0 m 596 986 l 750 1197 l 817 1197 q 803 1160 814 1176 q 774 1128 793 1144 l 610 986 l 596 986 z "},"Ň":{"ha":997,"x_min":13,"x_max":983,"o":"m 13 0 l 17 21 l 118 44 l 265 874 l 154 897 l 158 917 l 338 917 l 713 147 l 840 872 l 721 897 l 725 917 l 983 917 l 979 897 l 888 872 l 732 -7 l 704 -7 l 304 808 l 169 49 l 278 21 l 274 0 l 13 0 m 592 986 l 464 1197 l 478 1197 l 611 1058 l 807 1197 l 821 1197 l 615 986 l 592 986 z "},"Ñ":{"ha":997,"x_min":13,"x_max":983,"o":"m 13 0 l 17 21 l 118 44 l 265 874 l 154 897 l 158 917 l 338 917 l 713 147 l 840 872 l 721 897 l 725 917 l 983 917 l 979 897 l 888 872 l 732 -7 l 704 -7 l 304 808 l 169 49 l 278 21 l 274 0 l 13 0 m 425 1011 q 492 1138 464 1107 q 553 1169 519 1169 q 598 1152 578 1169 q 636 1111 618 1135 q 672 1070 654 1088 q 708 1053 689 1053 q 756 1081 735 1053 q 807 1169 778 1110 l 821 1169 q 755 1042 783 1074 q 693 1011 726 1011 q 648 1028 668 1011 q 610 1069 628 1046 q 574 1110 592 1093 q 538 1128 557 1128 q 490 1099 511 1128 q 439 1011 468 1071 l 425 1011 z "},"Ņ":{"ha":997,"x_min":13,"x_max":983,"o":"m 13 0 l 17 21 l 118 44 l 265 874 l 154 897 l 158 917 l 338 917 l 713 147 l 840 872 l 721 897 l 725 917 l 983 917 l 979 897 l 888 872 l 732 -7 l 704 -7 l 304 808 l 169 49 l 278 21 l 274 0 l 13 0 m 367 -332 q 344 -331 357 -332 q 321 -328 331 -331 l 325 -314 q 344 -316 335 -315 q 365 -317 354 -317 q 438 -298 407 -317 q 468 -239 468 -279 q 436 -185 468 -200 q 335 -169 404 -169 l 342 -147 q 353 -131 346 -135 q 383 -126 360 -126 q 480 -153 444 -128 q 515 -226 515 -179 q 474 -303 515 -275 q 367 -332 432 -332 z "},"Ṅ":{"ha":997,"x_min":13,"x_max":983,"o":"m 13 0 l 17 21 l 118 44 l 265 874 l 154 897 l 158 917 l 338 917 l 713 147 l 840 872 l 721 897 l 725 917 l 983 917 l 979 897 l 888 872 l 732 -7 l 704 -7 l 304 808 l 169 49 l 278 21 l 274 0 l 13 0 m 622 1040 q 585 1055 600 1040 q 571 1092 571 1069 q 585 1128 571 1114 q 622 1143 600 1143 q 659 1128 644 1143 q 674 1092 674 1114 q 659 1055 674 1069 q 622 1040 644 1040 z "},"Ṇ":{"ha":997,"x_min":13,"x_max":983,"o":"m 13 0 l 17 21 l 118 44 l 265 874 l 154 897 l 158 917 l 338 917 l 713 147 l 840 872 l 721 897 l 725 917 l 983 917 l 979 897 l 888 872 l 732 -7 l 704 -7 l 304 808 l 169 49 l 278 21 l 274 0 l 13 0 z "},"Ṉ":{"ha":997,"x_min":13,"x_max":983,"o":"m 13 0 l 17 21 l 118 44 l 265 874 l 154 897 l 158 917 l 338 917 l 713 147 l 840 872 l 721 897 l 725 917 l 983 917 l 979 897 l 888 872 l 732 -7 l 704 -7 l 304 808 l 169 49 l 278 21 l 274 0 l 13 0 z "},"Ò":{"ha":969,"x_min":83,"x_max":886,"o":"m 401 -14 q 234 32 306 -14 q 123 160 163 78 q 83 349 83 242 q 121 574 83 469 q 225 760 158 679 q 380 885 292 840 q 568 931 468 931 q 737 885 665 931 q 847 757 808 839 q 886 568 886 675 q 851 351 886 456 q 752 165 817 247 q 599 34 688 82 q 401 -14 510 -14 m 433 17 q 578 56 510 17 q 698 166 646 94 q 780 334 750 238 q 810 546 810 431 q 774 732 810 653 q 678 856 739 811 q 538 900 617 900 q 388 860 457 900 q 268 748 319 819 q 188 581 217 676 q 160 374 160 485 q 195 187 160 267 q 292 62 231 107 q 433 17 354 17 m 560 986 l 397 1132 q 381 1162 382 1144 q 385 1197 379 1179 l 439 1197 l 574 986 l 560 986 z "},"Ó":{"ha":969,"x_min":83,"x_max":886,"o":"m 401 -14 q 234 32 306 -14 q 123 160 163 78 q 83 349 83 242 q 121 574 83 469 q 225 760 158 679 q 380 885 292 840 q 568 931 468 931 q 737 885 665 931 q 847 757 808 839 q 886 568 886 675 q 851 351 886 456 q 752 165 817 247 q 599 34 688 82 q 401 -14 510 -14 m 433 17 q 578 56 510 17 q 698 166 646 94 q 780 334 750 238 q 810 546 810 431 q 774 732 810 653 q 678 856 739 811 q 538 900 617 900 q 388 860 457 900 q 268 748 319 819 q 188 581 217 676 q 160 374 160 485 q 195 187 160 267 q 292 62 231 107 q 433 17 354 17 m 560 986 l 714 1197 l 781 1197 q 767 1160 778 1176 q 738 1128 757 1144 l 574 986 l 560 986 z "},"Ô":{"ha":969,"x_min":83,"x_max":886,"o":"m 401 -14 q 234 32 306 -14 q 123 160 163 78 q 83 349 83 242 q 121 574 83 469 q 225 760 158 679 q 380 885 292 840 q 568 931 468 931 q 737 885 665 931 q 847 757 808 839 q 886 568 886 675 q 851 351 886 456 q 752 165 817 247 q 599 34 688 82 q 401 -14 510 -14 m 433 17 q 578 56 510 17 q 698 166 646 94 q 780 334 750 238 q 810 546 810 431 q 774 732 810 653 q 678 856 739 811 q 538 900 617 900 q 388 860 457 900 q 268 748 319 819 q 188 581 217 676 q 160 374 160 485 q 195 187 160 267 q 292 62 231 107 q 433 17 354 17 m 381 986 l 592 1197 l 615 1197 l 738 986 l 724 986 l 590 1125 l 394 986 l 381 986 z "},"Õ":{"ha":969,"x_min":83,"x_max":886,"o":"m 401 -14 q 234 32 306 -14 q 123 160 163 78 q 83 349 83 242 q 121 574 83 469 q 225 760 158 679 q 380 885 292 840 q 568 931 468 931 q 737 885 665 931 q 847 757 808 839 q 886 568 886 675 q 851 351 886 456 q 752 165 817 247 q 599 34 688 82 q 401 -14 510 -14 m 433 17 q 578 56 510 17 q 698 166 646 94 q 780 334 750 238 q 810 546 810 431 q 774 732 810 653 q 678 856 739 811 q 538 900 617 900 q 388 860 457 900 q 268 748 319 819 q 188 581 217 676 q 160 374 160 485 q 195 187 160 267 q 292 62 231 107 q 433 17 354 17 m 389 1011 q 456 1138 428 1107 q 517 1169 483 1169 q 562 1152 542 1169 q 600 1111 582 1135 q 635 1070 618 1088 q 672 1053 653 1053 q 720 1081 699 1053 q 771 1169 742 1110 l 785 1169 q 719 1042 747 1074 q 657 1011 690 1011 q 612 1028 632 1011 q 574 1069 592 1046 q 538 1110 556 1093 q 501 1128 521 1128 q 453 1099 475 1128 q 403 1011 432 1071 l 389 1011 z "},"Ö":{"ha":969,"x_min":83,"x_max":886,"o":"m 401 -14 q 234 32 306 -14 q 123 160 163 78 q 83 349 83 242 q 121 574 83 469 q 225 760 158 679 q 380 885 292 840 q 568 931 468 931 q 737 885 665 931 q 847 757 808 839 q 886 568 886 675 q 851 351 886 456 q 752 165 817 247 q 599 34 688 82 q 401 -14 510 -14 m 433 17 q 578 56 510 17 q 698 166 646 94 q 780 334 750 238 q 810 546 810 431 q 774 732 810 653 q 678 856 739 811 q 538 900 617 900 q 388 860 457 900 q 268 748 319 819 q 188 581 217 676 q 160 374 160 485 q 195 187 160 267 q 292 62 231 107 q 433 17 354 17 m 458 1040 q 422 1055 436 1040 q 407 1092 407 1069 q 422 1128 407 1114 q 458 1143 436 1143 q 495 1128 481 1143 q 510 1092 510 1114 q 495 1055 510 1069 q 458 1040 481 1040 m 714 1040 q 677 1055 692 1040 q 663 1092 663 1069 q 677 1128 663 1114 q 714 1143 692 1143 q 751 1128 736 1143 q 765 1092 765 1114 q 751 1055 765 1069 q 714 1040 736 1040 z "},"Ō":{"ha":969,"x_min":83,"x_max":886,"o":"m 401 -14 q 234 32 306 -14 q 123 160 163 78 q 83 349 83 242 q 121 574 83 469 q 225 760 158 679 q 380 885 292 840 q 568 931 468 931 q 737 885 665 931 q 847 757 808 839 q 886 568 886 675 q 851 351 886 456 q 752 165 817 247 q 599 34 688 82 q 401 -14 510 -14 m 433 17 q 578 56 510 17 q 698 166 646 94 q 780 334 750 238 q 810 546 810 431 q 774 732 810 653 q 678 856 739 811 q 538 900 617 900 q 388 860 457 900 q 268 748 319 819 q 188 581 217 676 q 160 374 160 485 q 195 187 160 267 q 292 62 231 107 q 433 17 354 17 m 413 1074 l 419 1113 l 754 1113 l 747 1074 l 413 1074 z "},"Ŏ":{"ha":969,"x_min":83,"x_max":886,"o":"m 401 -14 q 234 32 306 -14 q 123 160 163 78 q 83 349 83 242 q 121 574 83 469 q 225 760 158 679 q 380 885 292 840 q 568 931 468 931 q 737 885 665 931 q 847 757 808 839 q 886 568 886 675 q 851 351 886 456 q 752 165 817 247 q 599 34 688 82 q 401 -14 510 -14 m 433 17 q 578 56 510 17 q 698 166 646 94 q 780 334 750 238 q 810 546 810 431 q 774 732 810 653 q 678 856 739 811 q 538 900 617 900 q 388 860 457 900 q 268 748 319 819 q 188 581 217 676 q 160 374 160 485 q 195 187 160 267 q 292 62 231 107 q 433 17 354 17 m 567 986 q 455 1038 488 986 q 419 1197 422 1090 l 433 1197 q 463 1093 446 1128 q 507 1046 479 1058 q 575 1033 535 1033 q 645 1047 614 1033 q 704 1095 676 1060 q 763 1197 732 1131 l 776 1197 q 691 1038 740 1089 q 567 986 642 986 z "},"Ő":{"ha":969,"x_min":83,"x_max":886,"o":"m 401 -14 q 234 32 306 -14 q 123 160 163 78 q 83 349 83 242 q 121 574 83 469 q 225 760 158 679 q 380 885 292 840 q 568 931 468 931 q 737 885 665 931 q 847 757 808 839 q 886 568 886 675 q 851 351 886 456 q 752 165 817 247 q 599 34 688 82 q 401 -14 510 -14 m 433 17 q 578 56 510 17 q 698 166 646 94 q 780 334 750 238 q 810 546 810 431 q 774 732 810 653 q 678 856 739 811 q 538 900 617 900 q 388 860 457 900 q 268 748 319 819 q 188 581 217 676 q 160 374 160 485 q 195 187 160 267 q 292 62 231 107 q 433 17 354 17 m 488 986 l 600 1197 l 653 1197 q 650 1155 656 1176 q 621 1110 644 1133 l 501 986 l 488 986 m 636 986 l 749 1197 l 801 1197 q 799 1155 804 1176 q 769 1110 793 1133 l 650 986 l 636 986 z "},"Ọ":{"ha":969,"x_min":83,"x_max":886,"o":"m 401 -14 q 234 32 306 -14 q 123 160 163 78 q 83 349 83 242 q 121 574 83 469 q 225 760 158 679 q 380 885 292 840 q 568 931 468 931 q 737 885 665 931 q 847 757 808 839 q 886 568 886 675 q 851 351 886 456 q 752 165 817 247 q 599 34 688 82 q 401 -14 510 -14 m 433 17 q 578 56 510 17 q 698 166 646 94 q 780 334 750 238 q 810 546 810 431 q 774 732 810 653 q 678 856 739 811 q 538 900 617 900 q 388 860 457 900 q 268 748 319 819 q 188 581 217 676 q 160 374 160 485 q 195 187 160 267 q 292 62 231 107 q 433 17 354 17 z "},"Ǫ":{"ha":969,"x_min":83,"x_max":886,"o":"m 349 -333 q 267 -306 299 -333 q 236 -232 236 -279 q 281 -119 236 -174 q 385 -14 325 -64 q 226 38 293 -10 q 121 165 158 85 q 83 349 83 244 q 121 574 83 469 q 225 760 158 679 q 380 885 292 840 q 568 931 468 931 q 737 885 665 931 q 847 758 808 839 q 886 568 886 676 q 852 356 886 458 q 756 170 818 253 q 606 38 693 88 q 415 -14 519 -11 q 319 -120 351 -72 q 288 -224 288 -168 q 310 -283 288 -264 q 374 -301 333 -301 q 413 -295 392 -301 q 451 -278 435 -289 l 456 -278 l 453 -293 q 410 -321 438 -308 q 349 -333 383 -333 m 433 17 q 578 56 510 17 q 698 166 646 94 q 780 334 750 238 q 810 546 810 431 q 774 732 810 653 q 678 856 739 811 q 538 900 617 900 q 388 860 457 900 q 268 748 319 819 q 188 581 217 676 q 160 374 160 485 q 195 187 160 267 q 292 62 231 107 q 433 17 354 17 z "},"Ȍ":{"ha":969,"x_min":83,"x_max":886,"o":"m 401 -14 q 234 32 306 -14 q 123 160 163 78 q 83 349 83 242 q 121 574 83 469 q 225 760 158 679 q 380 885 292 840 q 568 931 468 931 q 737 885 665 931 q 847 757 808 839 q 886 568 886 675 q 851 351 886 456 q 752 165 817 247 q 599 34 688 82 q 401 -14 510 -14 m 433 17 q 578 56 510 17 q 698 166 646 94 q 780 334 750 238 q 810 546 810 431 q 774 732 810 653 q 678 856 739 811 q 538 900 617 900 q 388 860 457 900 q 268 748 319 819 q 188 581 217 676 q 160 374 160 485 q 195 187 160 267 q 292 62 231 107 q 433 17 354 17 m 633 986 l 507 1110 q 478 1155 483 1133 q 475 1197 472 1176 l 528 1197 l 647 986 l 633 986 m 485 986 l 358 1110 q 329 1155 335 1133 q 326 1197 324 1176 l 379 1197 l 499 986 l 485 986 z "},"Ȏ":{"ha":969,"x_min":83,"x_max":886,"o":"m 401 -14 q 234 32 306 -14 q 123 160 163 78 q 83 349 83 242 q 121 574 83 469 q 225 760 158 679 q 380 885 292 840 q 568 931 468 931 q 737 885 665 931 q 847 757 808 839 q 886 568 886 675 q 851 351 886 456 q 752 165 817 247 q 599 34 688 82 q 401 -14 510 -14 m 433 17 q 578 56 510 17 q 698 166 646 94 q 780 334 750 238 q 810 546 810 431 q 774 732 810 653 q 678 856 739 811 q 538 900 617 900 q 388 860 457 900 q 268 748 319 819 q 188 581 217 676 q 160 374 160 485 q 195 187 160 267 q 292 62 231 107 q 433 17 354 17 m 390 988 q 476 1147 426 1096 q 600 1199 525 1199 q 712 1147 679 1199 q 747 988 744 1094 l 733 988 q 704 1091 722 1056 q 660 1139 686 1126 q 592 1151 633 1151 q 522 1138 553 1151 q 462 1090 490 1125 q 404 988 433 1054 l 390 988 z "},"Ȫ":{"ha":969,"x_min":83,"x_max":886,"o":"m 401 -14 q 234 32 306 -14 q 123 160 163 78 q 83 349 83 242 q 121 574 83 469 q 225 760 158 679 q 380 885 292 840 q 568 931 468 931 q 737 885 665 931 q 847 757 808 839 q 886 568 886 675 q 851 351 886 456 q 752 165 817 247 q 599 34 688 82 q 401 -14 510 -14 m 433 17 q 578 56 510 17 q 698 166 646 94 q 780 334 750 238 q 810 546 810 431 q 774 732 810 653 q 678 856 739 811 q 538 900 617 900 q 388 860 457 900 q 268 748 319 819 q 188 581 217 676 q 160 374 160 485 q 195 187 160 267 q 292 62 231 107 q 433 17 354 17 z "},"Ȭ":{"ha":969,"x_min":83,"x_max":886,"o":"m 401 -14 q 234 32 306 -14 q 123 160 163 78 q 83 349 83 242 q 121 574 83 469 q 225 760 158 679 q 380 885 292 840 q 568 931 468 931 q 737 885 665 931 q 847 757 808 839 q 886 568 886 675 q 851 351 886 456 q 752 165 817 247 q 599 34 688 82 q 401 -14 510 -14 m 433 17 q 578 56 510 17 q 698 166 646 94 q 780 334 750 238 q 810 546 810 431 q 774 732 810 653 q 678 856 739 811 q 538 900 617 900 q 388 860 457 900 q 268 748 319 819 q 188 581 217 676 q 160 374 160 485 q 195 187 160 267 q 292 62 231 107 q 433 17 354 17 z "},"Ȱ":{"ha":969,"x_min":83,"x_max":886,"o":"m 401 -14 q 234 32 306 -14 q 123 160 163 78 q 83 349 83 242 q 121 574 83 469 q 225 760 158 679 q 380 885 292 840 q 568 931 468 931 q 737 885 665 931 q 847 757 808 839 q 886 568 886 675 q 851 351 886 456 q 752 165 817 247 q 599 34 688 82 q 401 -14 510 -14 m 433 17 q 578 56 510 17 q 698 166 646 94 q 780 334 750 238 q 810 546 810 431 q 774 732 810 653 q 678 856 739 811 q 538 900 617 900 q 388 860 457 900 q 268 748 319 819 q 188 581 217 676 q 160 374 160 485 q 195 187 160 267 q 292 62 231 107 q 433 17 354 17 z "},"Ố":{"ha":969,"x_min":83,"x_max":904,"o":"m 401 -14 q 234 32 306 -14 q 123 160 163 78 q 83 349 83 242 q 121 574 83 469 q 225 760 158 679 q 380 885 292 840 q 568 931 468 931 q 737 885 665 931 q 847 757 808 839 q 886 568 886 675 q 851 351 886 456 q 752 165 817 247 q 599 34 688 82 q 401 -14 510 -14 m 433 17 q 578 56 510 17 q 698 166 646 94 q 780 334 750 238 q 810 546 810 431 q 774 732 810 653 q 678 856 739 811 q 538 900 617 900 q 388 860 457 900 q 268 748 319 819 q 188 581 217 676 q 160 374 160 485 q 195 187 160 267 q 292 62 231 107 q 433 17 354 17 m 735 1118 l 838 1317 l 904 1317 q 890 1281 901 1296 q 861 1247 878 1267 l 749 1118 l 735 1118 m 381 986 l 592 1197 l 615 1197 l 738 986 l 724 986 l 590 1125 l 394 986 l 381 986 z "},"Ộ":{"ha":969,"x_min":83,"x_max":886,"o":"m 401 -14 q 234 32 306 -14 q 123 160 163 78 q 83 349 83 242 q 121 574 83 469 q 225 760 158 679 q 380 885 292 840 q 568 931 468 931 q 737 885 665 931 q 847 757 808 839 q 886 568 886 675 q 851 351 886 456 q 752 165 817 247 q 599 34 688 82 q 401 -14 510 -14 m 433 17 q 578 56 510 17 q 698 166 646 94 q 780 334 750 238 q 810 546 810 431 q 774 732 810 653 q 678 856 739 811 q 538 900 617 900 q 388 860 457 900 q 268 748 319 819 q 188 581 217 676 q 160 374 160 485 q 195 187 160 267 q 292 62 231 107 q 433 17 354 17 m 381 986 l 592 1197 l 615 1197 l 738 986 l 724 986 l 590 1125 l 394 986 l 381 986 z "},"Ồ":{"ha":969,"x_min":83,"x_max":886,"o":"m 401 -14 q 234 32 306 -14 q 123 160 163 78 q 83 349 83 242 q 121 574 83 469 q 225 760 158 679 q 380 885 292 840 q 568 931 468 931 q 737 885 665 931 q 847 757 808 839 q 886 568 886 675 q 851 351 886 456 q 752 165 817 247 q 599 34 688 82 q 401 -14 510 -14 m 433 17 q 578 56 510 17 q 698 166 646 94 q 780 334 750 238 q 810 546 810 431 q 774 732 810 653 q 678 856 739 811 q 538 900 617 900 q 388 860 457 900 q 268 748 319 819 q 188 581 217 676 q 160 374 160 485 q 195 187 160 267 q 292 62 231 107 q 433 17 354 17 m 401 1118 l 283 1247 q 258 1278 268 1264 q 256 1317 247 1293 l 308 1317 l 411 1118 l 401 1118 m 381 986 l 592 1197 l 615 1197 l 738 986 l 724 986 l 590 1125 l 394 986 l 381 986 z "},"Ổ":{"ha":969,"x_min":83,"x_max":886,"o":"m 401 -14 q 234 32 306 -14 q 123 160 163 78 q 83 349 83 242 q 121 574 83 469 q 225 760 158 679 q 380 885 292 840 q 568 931 468 931 q 737 885 665 931 q 847 757 808 839 q 886 568 886 675 q 851 351 886 456 q 752 165 817 247 q 599 34 688 82 q 401 -14 510 -14 m 433 17 q 578 56 510 17 q 698 166 646 94 q 780 334 750 238 q 810 546 810 431 q 774 732 810 653 q 678 856 739 811 q 538 900 617 900 q 388 860 457 900 q 268 748 319 819 q 188 581 217 676 q 160 374 160 485 q 195 187 160 267 q 292 62 231 107 q 433 17 354 17 z "},"Ỗ":{"ha":969,"x_min":83,"x_max":886,"o":"m 401 -14 q 234 32 306 -14 q 123 160 163 78 q 83 349 83 242 q 121 574 83 469 q 225 760 158 679 q 380 885 292 840 q 568 931 468 931 q 737 885 665 931 q 847 757 808 839 q 886 568 886 675 q 851 351 886 456 q 752 165 817 247 q 599 34 688 82 q 401 -14 510 -14 m 433 17 q 578 56 510 17 q 698 166 646 94 q 780 334 750 238 q 810 546 810 431 q 774 732 810 653 q 678 856 739 811 q 538 900 617 900 q 388 860 457 900 q 268 748 319 819 q 188 581 217 676 q 160 374 160 485 q 195 187 160 267 q 292 62 231 107 q 433 17 354 17 z "},"Ỏ":{"ha":969,"x_min":83,"x_max":886,"o":"m 401 -14 q 234 32 306 -14 q 123 160 163 78 q 83 349 83 242 q 121 574 83 469 q 225 760 158 679 q 380 885 292 840 q 568 931 468 931 q 737 885 665 931 q 847 757 808 839 q 886 568 886 675 q 851 351 886 456 q 752 165 817 247 q 599 34 688 82 q 401 -14 510 -14 m 433 17 q 578 56 510 17 q 698 166 646 94 q 780 334 750 238 q 810 546 810 431 q 774 732 810 653 q 678 856 739 811 q 538 900 617 900 q 388 860 457 900 q 268 748 319 819 q 188 581 217 676 q 160 374 160 485 q 195 187 160 267 q 292 62 231 107 q 433 17 354 17 m 504 975 l 499 983 l 499 985 q 601 1026 567 1003 q 635 1092 635 1050 q 610 1147 635 1125 q 526 1178 586 1169 l 540 1215 q 644 1177 614 1208 q 674 1110 674 1146 q 504 975 674 1013 z "},"Ṍ":{"ha":969,"x_min":83,"x_max":886,"o":"m 401 -14 q 234 32 306 -14 q 123 160 163 78 q 83 349 83 242 q 121 574 83 469 q 225 760 158 679 q 380 885 292 840 q 568 931 468 931 q 737 885 665 931 q 847 757 808 839 q 886 568 886 675 q 851 351 886 456 q 752 165 817 247 q 599 34 688 82 q 401 -14 510 -14 m 433 17 q 578 56 510 17 q 698 166 646 94 q 780 334 750 238 q 810 546 810 431 q 774 732 810 653 q 678 856 739 811 q 538 900 617 900 q 388 860 457 900 q 268 748 319 819 q 188 581 217 676 q 160 374 160 485 q 195 187 160 267 q 292 62 231 107 q 433 17 354 17 z "},"Ṏ":{"ha":969,"x_min":83,"x_max":886,"o":"m 401 -14 q 234 32 306 -14 q 123 160 163 78 q 83 349 83 242 q 121 574 83 469 q 225 760 158 679 q 380 885 292 840 q 568 931 468 931 q 737 885 665 931 q 847 757 808 839 q 886 568 886 675 q 851 351 886 456 q 752 165 817 247 q 599 34 688 82 q 401 -14 510 -14 m 433 17 q 578 56 510 17 q 698 166 646 94 q 780 334 750 238 q 810 546 810 431 q 774 732 810 653 q 678 856 739 811 q 538 900 617 900 q 388 860 457 900 q 268 748 319 819 q 188 581 217 676 q 160 374 160 485 q 195 187 160 267 q 292 62 231 107 q 433 17 354 17 z "},"Ṑ":{"ha":969,"x_min":83,"x_max":886,"o":"m 401 -14 q 234 32 306 -14 q 123 160 163 78 q 83 349 83 242 q 121 574 83 469 q 225 760 158 679 q 380 885 292 840 q 568 931 468 931 q 737 885 665 931 q 847 757 808 839 q 886 568 886 675 q 851 351 886 456 q 752 165 817 247 q 599 34 688 82 q 401 -14 510 -14 m 433 17 q 578 56 510 17 q 698 166 646 94 q 780 334 750 238 q 810 546 810 431 q 774 732 810 653 q 678 856 739 811 q 538 900 617 900 q 388 860 457 900 q 268 748 319 819 q 188 581 217 676 q 160 374 160 485 q 195 187 160 267 q 292 62 231 107 q 433 17 354 17 z "},"Ṓ":{"ha":969,"x_min":83,"x_max":886,"o":"m 401 -14 q 234 32 306 -14 q 123 160 163 78 q 83 349 83 242 q 121 574 83 469 q 225 760 158 679 q 380 885 292 840 q 568 931 468 931 q 737 885 665 931 q 847 757 808 839 q 886 568 886 675 q 851 351 886 456 q 752 165 817 247 q 599 34 688 82 q 401 -14 510 -14 m 433 17 q 578 56 510 17 q 698 166 646 94 q 780 334 750 238 q 810 546 810 431 q 774 732 810 653 q 678 856 739 811 q 538 900 617 900 q 388 860 457 900 q 268 748 319 819 q 188 581 217 676 q 160 374 160 485 q 195 187 160 267 q 292 62 231 107 q 433 17 354 17 z "},"Ø":{"ha":969,"x_min":10,"x_max":960,"o":"m 10 -14 l 142 126 q 83 349 83 218 q 121 574 83 469 q 225 760 158 679 q 380 885 292 840 q 568 931 468 931 q 701 903 642 931 q 801 829 760 876 l 897 931 l 960 931 l 829 792 q 886 568 886 699 q 851 351 886 456 q 752 165 817 247 q 599 34 688 82 q 401 -14 510 -14 q 269 13 328 -14 q 168 89 210 40 l 72 -14 l 10 -14 m 160 374 q 196 185 160 268 l 751 775 q 660 867 715 835 q 538 900 604 900 q 388 860 457 900 q 268 748 319 819 q 188 581 217 676 q 160 374 160 485 m 433 17 q 578 56 510 17 q 698 166 646 94 q 780 334 750 238 q 810 546 810 431 q 774 733 810 650 l 218 142 q 310 50 256 83 q 433 17 365 17 z "},"Ǿ":{"ha":969,"x_min":10,"x_max":960,"o":"m 10 -14 l 142 126 q 83 349 83 218 q 121 574 83 469 q 225 760 158 679 q 380 885 292 840 q 568 931 468 931 q 701 903 642 931 q 801 829 760 876 l 897 931 l 960 931 l 829 792 q 886 568 886 699 q 851 351 886 456 q 752 165 817 247 q 599 34 688 82 q 401 -14 510 -14 q 269 13 328 -14 q 168 89 210 40 l 72 -14 l 10 -14 m 160 374 q 196 185 160 268 l 751 775 q 660 867 715 835 q 538 900 604 900 q 388 860 457 900 q 268 748 319 819 q 188 581 217 676 q 160 374 160 485 m 433 17 q 578 56 510 17 q 698 166 646 94 q 780 334 750 238 q 810 546 810 431 q 774 733 810 650 l 218 142 q 310 50 256 83 q 433 17 365 17 m 560 986 l 714 1197 l 781 1197 q 767 1160 778 1176 q 738 1128 757 1144 l 574 986 l 560 986 z "},"Ơ":{"ha":969,"x_min":83,"x_max":938,"o":"m 401 -14 q 234 32 306 -14 q 123 160 163 78 q 83 349 83 242 q 121 574 83 469 q 225 760 158 679 q 380 885 292 840 q 568 931 468 931 q 721 893 654 931 q 758 889 740 889 q 828 905 803 889 q 863 968 853 921 l 878 1043 l 882 1047 l 906 1047 q 929 1043 921 1047 q 938 1025 938 1039 q 916 952 938 988 q 857 893 894 917 q 772 869 819 869 q 758 869 765 869 q 853 746 819 824 q 886 568 886 668 q 851 351 886 456 q 752 165 817 247 q 599 34 688 82 q 401 -14 510 -14 m 433 17 q 578 56 510 17 q 698 166 646 94 q 780 334 750 238 q 810 546 810 431 q 774 732 810 653 q 678 856 739 811 q 538 900 617 900 q 388 860 457 900 q 268 748 319 819 q 188 581 217 676 q 160 374 160 485 q 195 187 160 267 q 292 62 231 107 q 433 17 354 17 z "},"Ớ":{"ha":969,"x_min":83,"x_max":938,"o":"m 401 -14 q 234 32 306 -14 q 123 160 163 78 q 83 349 83 242 q 121 574 83 469 q 225 760 158 679 q 380 885 292 840 q 568 931 468 931 q 721 893 654 931 q 758 889 740 889 q 828 905 803 889 q 863 968 853 921 l 878 1043 l 882 1047 l 906 1047 q 929 1043 921 1047 q 938 1025 938 1039 q 916 952 938 988 q 857 893 894 917 q 772 869 819 869 q 758 869 765 869 q 853 746 819 824 q 886 568 886 668 q 851 351 886 456 q 752 165 817 247 q 599 34 688 82 q 401 -14 510 -14 m 433 17 q 578 56 510 17 q 698 166 646 94 q 780 334 750 238 q 810 546 810 431 q 774 732 810 653 q 678 856 739 811 q 538 900 617 900 q 388 860 457 900 q 268 748 319 819 q 188 581 217 676 q 160 374 160 485 q 195 187 160 267 q 292 62 231 107 q 433 17 354 17 m 560 986 l 714 1197 l 781 1197 q 767 1160 778 1176 q 738 1128 757 1144 l 574 986 l 560 986 z "},"Ợ":{"ha":969,"x_min":83,"x_max":938,"o":"m 401 -14 q 234 32 306 -14 q 123 160 163 78 q 83 349 83 242 q 121 574 83 469 q 225 760 158 679 q 380 885 292 840 q 568 931 468 931 q 721 893 654 931 q 758 889 740 889 q 828 905 803 889 q 863 968 853 921 l 878 1043 l 882 1047 l 906 1047 q 929 1043 921 1047 q 938 1025 938 1039 q 916 952 938 988 q 857 893 894 917 q 772 869 819 869 q 758 869 765 869 q 853 746 819 824 q 886 568 886 668 q 851 351 886 456 q 752 165 817 247 q 599 34 688 82 q 401 -14 510 -14 m 433 17 q 578 56 510 17 q 698 166 646 94 q 780 334 750 238 q 810 546 810 431 q 774 732 810 653 q 678 856 739 811 q 538 900 617 900 q 388 860 457 900 q 268 748 319 819 q 188 581 217 676 q 160 374 160 485 q 195 187 160 267 q 292 62 231 107 q 433 17 354 17 z "},"Ờ":{"ha":969,"x_min":83,"x_max":938,"o":"m 401 -14 q 234 32 306 -14 q 123 160 163 78 q 83 349 83 242 q 121 574 83 469 q 225 760 158 679 q 380 885 292 840 q 568 931 468 931 q 721 893 654 931 q 758 889 740 889 q 828 905 803 889 q 863 968 853 921 l 878 1043 l 882 1047 l 906 1047 q 929 1043 921 1047 q 938 1025 938 1039 q 916 952 938 988 q 857 893 894 917 q 772 869 819 869 q 758 869 765 869 q 853 746 819 824 q 886 568 886 668 q 851 351 886 456 q 752 165 817 247 q 599 34 688 82 q 401 -14 510 -14 m 433 17 q 578 56 510 17 q 698 166 646 94 q 780 334 750 238 q 810 546 810 431 q 774 732 810 653 q 678 856 739 811 q 538 900 617 900 q 388 860 457 900 q 268 748 319 819 q 188 581 217 676 q 160 374 160 485 q 195 187 160 267 q 292 62 231 107 q 433 17 354 17 m 560 986 l 397 1132 q 381 1162 382 1144 q 385 1197 379 1179 l 439 1197 l 574 986 l 560 986 z "},"Ở":{"ha":969,"x_min":83,"x_max":938,"o":"m 401 -14 q 234 32 306 -14 q 123 160 163 78 q 83 349 83 242 q 121 574 83 469 q 225 760 158 679 q 380 885 292 840 q 568 931 468 931 q 721 893 654 931 q 758 889 740 889 q 828 905 803 889 q 863 968 853 921 l 878 1043 l 882 1047 l 906 1047 q 929 1043 921 1047 q 938 1025 938 1039 q 916 952 938 988 q 857 893 894 917 q 772 869 819 869 q 758 869 765 869 q 853 746 819 824 q 886 568 886 668 q 851 351 886 456 q 752 165 817 247 q 599 34 688 82 q 401 -14 510 -14 m 433 17 q 578 56 510 17 q 698 166 646 94 q 780 334 750 238 q 810 546 810 431 q 774 732 810 653 q 678 856 739 811 q 538 900 617 900 q 388 860 457 900 q 268 748 319 819 q 188 581 217 676 q 160 374 160 485 q 195 187 160 267 q 292 62 231 107 q 433 17 354 17 m 504 975 l 499 983 l 499 985 q 601 1026 567 1003 q 635 1092 635 1050 q 610 1147 635 1125 q 526 1178 586 1169 l 540 1215 q 644 1177 614 1208 q 674 1110 674 1146 q 504 975 674 1013 z "},"Ỡ":{"ha":969,"x_min":83,"x_max":938,"o":"m 401 -14 q 234 32 306 -14 q 123 160 163 78 q 83 349 83 242 q 121 574 83 469 q 225 760 158 679 q 380 885 292 840 q 568 931 468 931 q 721 893 654 931 q 758 889 740 889 q 828 905 803 889 q 863 968 853 921 l 878 1043 l 882 1047 l 906 1047 q 929 1043 921 1047 q 938 1025 938 1039 q 916 952 938 988 q 857 893 894 917 q 772 869 819 869 q 758 869 765 869 q 853 746 819 824 q 886 568 886 668 q 851 351 886 456 q 752 165 817 247 q 599 34 688 82 q 401 -14 510 -14 m 433 17 q 578 56 510 17 q 698 166 646 94 q 780 334 750 238 q 810 546 810 431 q 774 732 810 653 q 678 856 739 811 q 538 900 617 900 q 388 860 457 900 q 268 748 319 819 q 188 581 217 676 q 160 374 160 485 q 195 187 160 267 q 292 62 231 107 q 433 17 354 17 m 389 1011 q 456 1138 428 1107 q 517 1169 483 1169 q 562 1152 542 1169 q 600 1111 582 1135 q 635 1070 618 1088 q 672 1053 653 1053 q 720 1081 699 1053 q 771 1169 742 1110 l 785 1169 q 719 1042 747 1074 q 657 1011 690 1011 q 612 1028 632 1011 q 574 1069 592 1046 q 538 1110 556 1093 q 501 1128 521 1128 q 453 1099 475 1128 q 403 1011 432 1071 l 389 1011 z "},"Œ":{"ha":1228,"x_min":83,"x_max":1197,"o":"m 525 0 q 197 98 310 0 q 83 392 83 196 q 119 593 83 499 q 224 760 154 688 q 394 875 293 833 q 624 917 494 917 l 1197 917 l 1158 692 l 1138 692 l 1119 875 l 804 875 l 738 494 l 963 494 l 1014 610 l 1039 610 l 992 340 l 967 340 l 956 453 l 729 453 l 657 42 l 1019 42 l 1106 239 l 1126 239 l 1085 0 l 525 0 m 518 42 l 579 42 l 728 875 l 615 875 q 370 814 472 875 q 214 643 268 753 q 160 386 160 533 q 251 132 160 222 q 518 42 342 42 z "},"Ŕ":{"ha":776,"x_min":13,"x_max":721,"o":"m 13 0 l 17 21 l 118 44 l 265 874 l 169 897 l 174 917 l 410 917 q 596 865 531 917 q 661 724 661 814 q 613 564 661 638 q 449 458 564 490 l 649 39 l 721 21 l 717 0 l 581 0 l 378 442 l 265 442 l 194 44 l 286 21 l 282 0 l 13 0 m 411 875 l 342 875 l 272 483 l 358 483 q 483 517 433 483 q 558 601 533 550 q 583 707 583 653 q 542 829 583 783 q 411 875 500 875 m 433 986 l 588 1197 l 654 1197 q 641 1160 651 1176 q 611 1128 631 1144 l 447 986 l 433 986 z "},"Ř":{"ha":776,"x_min":13,"x_max":721,"o":"m 13 0 l 17 21 l 118 44 l 265 874 l 169 897 l 174 917 l 410 917 q 596 865 531 917 q 661 724 661 814 q 613 564 661 638 q 449 458 564 490 l 649 39 l 721 21 l 717 0 l 581 0 l 378 442 l 265 442 l 194 44 l 286 21 l 282 0 l 13 0 m 411 875 l 342 875 l 272 483 l 358 483 q 483 517 433 483 q 558 601 533 550 q 583 707 583 653 q 542 829 583 783 q 411 875 500 875 m 429 986 l 301 1197 l 315 1197 l 449 1058 l 644 1197 l 658 1197 l 453 986 l 429 986 z "},"Ŗ":{"ha":776,"x_min":13,"x_max":721,"o":"m 13 0 l 17 21 l 118 44 l 265 874 l 169 897 l 174 917 l 410 917 q 596 865 531 917 q 661 724 661 814 q 613 564 661 638 q 449 458 564 490 l 649 39 l 721 21 l 717 0 l 581 0 l 378 442 l 265 442 l 194 44 l 286 21 l 282 0 l 13 0 m 411 875 l 342 875 l 272 483 l 358 483 q 483 517 433 483 q 558 601 533 550 q 583 707 583 653 q 542 829 583 783 q 411 875 500 875 m 276 -332 q 253 -331 267 -332 q 231 -328 240 -331 l 235 -314 q 254 -316 244 -315 q 275 -317 264 -317 q 347 -298 317 -317 q 378 -239 378 -279 q 346 -185 378 -200 q 244 -169 314 -169 l 251 -147 q 263 -131 256 -135 q 293 -126 269 -126 q 390 -153 354 -128 q 425 -226 425 -179 q 383 -303 425 -275 q 276 -332 342 -332 z "},"Ȑ":{"ha":776,"x_min":13,"x_max":721,"o":"m 13 0 l 17 21 l 118 44 l 265 874 l 169 897 l 174 917 l 410 917 q 596 865 531 917 q 661 724 661 814 q 613 564 661 638 q 449 458 564 490 l 649 39 l 721 21 l 717 0 l 581 0 l 378 442 l 265 442 l 194 44 l 286 21 l 282 0 l 13 0 m 411 875 l 342 875 l 272 483 l 358 483 q 483 517 433 483 q 558 601 533 550 q 583 707 583 653 q 542 829 583 783 q 411 875 500 875 m 507 986 l 381 1110 q 351 1155 357 1133 q 349 1197 346 1176 l 401 1197 l 521 986 l 507 986 m 358 986 l 232 1110 q 203 1155 208 1133 q 200 1197 197 1176 l 253 1197 l 372 986 l 358 986 z "},"Ȓ":{"ha":776,"x_min":13,"x_max":721,"o":"m 13 0 l 17 21 l 118 44 l 265 874 l 169 897 l 174 917 l 410 917 q 596 865 531 917 q 661 724 661 814 q 613 564 661 638 q 449 458 564 490 l 649 39 l 721 21 l 717 0 l 581 0 l 378 442 l 265 442 l 194 44 l 286 21 l 282 0 l 13 0 m 411 875 l 342 875 l 272 483 l 358 483 q 483 517 433 483 q 558 601 533 550 q 583 707 583 653 q 542 829 583 783 q 411 875 500 875 m 264 988 q 349 1147 300 1096 q 474 1199 399 1199 q 585 1147 553 1199 q 621 988 618 1094 l 607 988 q 578 1091 596 1056 q 533 1139 560 1126 q 465 1151 507 1151 q 395 1138 426 1151 q 335 1090 364 1125 q 278 988 307 1054 l 264 988 z "},"Ṛ":{"ha":776,"x_min":13,"x_max":721,"o":"m 13 0 l 17 21 l 118 44 l 265 874 l 169 897 l 174 917 l 410 917 q 596 865 531 917 q 661 724 661 814 q 613 564 661 638 q 449 458 564 490 l 649 39 l 721 21 l 717 0 l 581 0 l 378 442 l 265 442 l 194 44 l 286 21 l 282 0 l 13 0 m 411 875 l 342 875 l 272 483 l 358 483 q 483 517 433 483 q 558 601 533 550 q 583 707 583 653 q 542 829 583 783 q 411 875 500 875 z "},"Ṟ":{"ha":776,"x_min":13,"x_max":721,"o":"m 13 0 l 17 21 l 118 44 l 265 874 l 169 897 l 174 917 l 410 917 q 596 865 531 917 q 661 724 661 814 q 613 564 661 638 q 449 458 564 490 l 649 39 l 721 21 l 717 0 l 581 0 l 378 442 l 265 442 l 194 44 l 286 21 l 282 0 l 13 0 m 411 875 l 342 875 l 272 483 l 358 483 q 483 517 433 483 q 558 601 533 550 q 583 707 583 653 q 542 829 583 783 q 411 875 500 875 z "},"ẞ":{"ha":1378,"x_min":42,"x_max":1308,"o":"m 267 -14 q 142 3 193 -14 q 42 50 92 19 l 68 250 l 90 250 l 119 85 q 193 42 144 58 q 290 26 242 26 q 444 85 389 26 q 500 236 500 143 q 476 325 500 289 q 410 391 453 361 q 311 458 368 421 q 191 560 226 514 q 156 675 156 607 q 192 797 156 738 q 288 893 228 856 q 421 931 347 931 q 526 915 476 931 q 619 872 575 900 l 594 678 l 572 678 l 550 831 q 497 872 532 853 q 413 890 461 890 q 272 844 325 890 q 219 715 219 797 q 233 642 219 675 q 281 575 246 608 q 383 500 317 542 q 484 430 443 464 q 546 354 525 396 q 567 253 567 313 q 529 130 567 192 q 424 27 492 68 q 267 -14 357 -14 m 956 -14 q 831 3 882 -14 q 731 50 781 19 l 757 250 l 779 250 l 808 85 q 882 42 833 58 q 979 26 931 26 q 1133 85 1078 26 q 1189 236 1189 143 q 1165 325 1189 289 q 1099 391 1142 361 q 1000 458 1057 421 q 880 560 915 514 q 844 675 844 607 q 881 797 844 738 q 976 893 917 856 q 1110 931 1036 931 q 1215 915 1165 931 q 1308 872 1264 900 l 1283 678 l 1261 678 l 1239 831 q 1185 872 1221 853 q 1101 890 1150 890 q 961 844 1014 890 q 908 715 908 797 q 922 642 908 675 q 970 575 935 608 q 1072 500 1006 542 q 1173 430 1132 464 q 1235 354 1214 396 q 1256 253 1256 313 q 1218 130 1256 192 q 1113 27 1181 68 q 956 -14 1046 -14 z "},"Ś":{"ha":689,"x_min":42,"x_max":675,"o":"m 267 -14 q 142 3 193 -14 q 42 50 92 19 l 68 250 l 90 250 l 119 85 q 193 42 144 58 q 290 26 242 26 q 444 85 389 26 q 500 236 500 143 q 476 325 500 289 q 410 391 453 361 q 311 458 368 421 q 191 560 226 514 q 156 675 156 607 q 192 797 156 738 q 288 893 228 856 q 421 931 347 931 q 526 915 476 931 q 619 872 575 900 l 594 678 l 572 678 l 550 831 q 497 872 532 853 q 413 890 461 890 q 272 844 325 890 q 219 715 219 797 q 233 642 219 675 q 281 575 246 608 q 383 500 317 542 q 484 430 443 464 q 546 354 525 396 q 567 253 567 313 q 529 130 567 192 q 424 27 492 68 q 267 -14 357 -14 m 454 982 l 608 1193 l 675 1193 q 662 1156 672 1172 q 632 1124 651 1140 l 468 982 l 454 982 z "},"Ŝ":{"ha":689,"x_min":42,"x_max":632,"o":"m 267 -14 q 142 3 193 -14 q 42 50 92 19 l 68 250 l 90 250 l 119 85 q 193 42 144 58 q 290 26 242 26 q 444 85 389 26 q 500 236 500 143 q 476 325 500 289 q 410 391 453 361 q 311 458 368 421 q 191 560 226 514 q 156 675 156 607 q 192 797 156 738 q 288 893 228 856 q 421 931 347 931 q 526 915 476 931 q 619 872 575 900 l 594 678 l 572 678 l 550 831 q 497 872 532 853 q 413 890 461 890 q 272 844 325 890 q 219 715 219 797 q 233 642 219 675 q 281 575 246 608 q 383 500 317 542 q 484 430 443 464 q 546 354 525 396 q 567 253 567 313 q 529 130 567 192 q 424 27 492 68 q 267 -14 357 -14 m 275 982 l 486 1193 l 510 1193 l 632 982 l 618 982 l 485 1121 l 289 982 l 275 982 z "},"Š":{"ha":689,"x_min":42,"x_max":679,"o":"m 267 -14 q 142 3 193 -14 q 42 50 92 19 l 68 250 l 90 250 l 119 85 q 193 42 144 58 q 290 26 242 26 q 444 85 389 26 q 500 236 500 143 q 476 325 500 289 q 410 391 453 361 q 311 458 368 421 q 191 560 226 514 q 156 675 156 607 q 192 797 156 738 q 288 893 228 856 q 421 931 347 931 q 526 915 476 931 q 619 872 575 900 l 594 678 l 572 678 l 550 831 q 497 872 532 853 q 413 890 461 890 q 272 844 325 890 q 219 715 219 797 q 233 642 219 675 q 281 575 246 608 q 383 500 317 542 q 484 430 443 464 q 546 354 525 396 q 567 253 567 313 q 529 130 567 192 q 424 27 492 68 q 267 -14 357 -14 m 450 982 l 322 1193 l 336 1193 l 469 1054 l 665 1193 l 679 1193 l 474 982 l 450 982 z "},"Ş":{"ha":689,"x_min":42,"x_max":619,"o":"m 267 -14 q 142 3 193 -14 q 42 50 92 19 l 68 250 l 90 250 l 119 85 q 193 42 144 58 q 290 26 242 26 q 444 85 389 26 q 500 236 500 143 q 476 325 500 289 q 410 391 453 361 q 311 458 368 421 q 191 560 226 514 q 156 675 156 607 q 192 797 156 738 q 288 893 228 856 q 421 931 347 931 q 526 915 476 931 q 619 872 575 900 l 594 678 l 572 678 l 550 831 q 497 872 532 853 q 413 890 461 890 q 272 844 325 890 q 219 715 219 797 q 233 642 219 675 q 281 575 246 608 q 383 500 317 542 q 484 430 443 464 q 546 354 525 396 q 567 253 567 313 q 533 135 567 194 q 438 35 499 76 q 294 -12 376 -6 l 242 -96 q 344 -139 308 -111 q 381 -217 381 -167 q 339 -301 381 -269 q 238 -333 297 -333 q 187 -326 213 -333 q 147 -306 161 -319 l 150 -292 l 154 -292 q 194 -309 174 -304 q 236 -314 214 -314 q 308 -293 281 -314 q 336 -232 336 -272 q 304 -169 336 -190 q 192 -132 272 -147 l 267 -14 l 267 -14 z "},"Ș":{"ha":689,"x_min":42,"x_max":619,"o":"m 267 -14 q 142 3 193 -14 q 42 50 92 19 l 68 250 l 90 250 l 119 85 q 193 42 144 58 q 290 26 242 26 q 444 85 389 26 q 500 236 500 143 q 476 325 500 289 q 410 391 453 361 q 311 458 368 421 q 191 560 226 514 q 156 675 156 607 q 192 797 156 738 q 288 893 228 856 q 421 931 347 931 q 526 915 476 931 q 619 872 575 900 l 594 678 l 572 678 l 550 831 q 497 872 532 853 q 413 890 461 890 q 272 844 325 890 q 219 715 219 797 q 233 642 219 675 q 281 575 246 608 q 383 500 317 542 q 484 430 443 464 q 546 354 525 396 q 567 253 567 313 q 529 130 567 192 q 424 27 492 68 q 267 -14 357 -14 z "},"Ṡ":{"ha":689,"x_min":42,"x_max":619,"o":"m 267 -14 q 142 3 193 -14 q 42 50 92 19 l 68 250 l 90 250 l 119 85 q 193 42 144 58 q 290 26 242 26 q 444 85 389 26 q 500 236 500 143 q 476 325 500 289 q 410 391 453 361 q 311 458 368 421 q 191 560 226 514 q 156 675 156 607 q 192 797 156 738 q 288 893 228 856 q 421 931 347 931 q 526 915 476 931 q 619 872 575 900 l 594 678 l 572 678 l 550 831 q 497 872 532 853 q 413 890 461 890 q 272 844 325 890 q 219 715 219 797 q 233 642 219 675 q 281 575 246 608 q 383 500 317 542 q 484 430 443 464 q 546 354 525 396 q 567 253 567 313 q 529 130 567 192 q 424 27 492 68 q 267 -14 357 -14 m 481 1036 q 444 1051 458 1036 q 429 1088 429 1065 q 444 1124 429 1110 q 481 1139 458 1139 q 517 1124 503 1139 q 532 1088 532 1110 q 517 1051 532 1065 q 481 1036 503 1036 z "},"Ṣ":{"ha":689,"x_min":42,"x_max":619,"o":"m 267 -14 q 142 3 193 -14 q 42 50 92 19 l 68 250 l 90 250 l 119 85 q 193 42 144 58 q 290 26 242 26 q 444 85 389 26 q 500 236 500 143 q 476 325 500 289 q 410 391 453 361 q 311 458 368 421 q 191 560 226 514 q 156 675 156 607 q 192 797 156 738 q 288 893 228 856 q 421 931 347 931 q 526 915 476 931 q 619 872 575 900 l 594 678 l 572 678 l 550 831 q 497 872 532 853 q 413 890 461 890 q 272 844 325 890 q 219 715 219 797 q 233 642 219 675 q 281 575 246 608 q 383 500 317 542 q 484 430 443 464 q 546 354 525 396 q 567 253 567 313 q 529 130 567 192 q 424 27 492 68 q 267 -14 357 -14 z "},"Ṥ":{"ha":689,"x_min":42,"x_max":675,"o":"m 267 -14 q 142 3 193 -14 q 42 50 92 19 l 68 250 l 90 250 l 119 85 q 193 42 144 58 q 290 26 242 26 q 444 85 389 26 q 500 236 500 143 q 476 325 500 289 q 410 391 453 361 q 311 458 368 421 q 191 560 226 514 q 156 675 156 607 q 192 797 156 738 q 288 893 228 856 q 421 931 347 931 q 526 915 476 931 q 619 872 575 900 l 594 678 l 572 678 l 550 831 q 497 872 532 853 q 413 890 461 890 q 272 844 325 890 q 219 715 219 797 q 233 642 219 675 q 281 575 246 608 q 383 500 317 542 q 484 430 443 464 q 546 354 525 396 q 567 253 567 313 q 529 130 567 192 q 424 27 492 68 q 267 -14 357 -14 z "},"Ṧ":{"ha":689,"x_min":42,"x_max":679,"o":"m 267 -14 q 142 3 193 -14 q 42 50 92 19 l 68 250 l 90 250 l 119 85 q 193 42 144 58 q 290 26 242 26 q 444 85 389 26 q 500 236 500 143 q 476 325 500 289 q 410 391 453 361 q 311 458 368 421 q 191 560 226 514 q 156 675 156 607 q 192 797 156 738 q 288 893 228 856 q 421 931 347 931 q 526 915 476 931 q 619 872 575 900 l 594 678 l 572 678 l 550 831 q 497 872 532 853 q 413 890 461 890 q 272 844 325 890 q 219 715 219 797 q 233 642 219 675 q 281 575 246 608 q 383 500 317 542 q 484 430 443 464 q 546 354 525 396 q 567 253 567 313 q 529 130 567 192 q 424 27 492 68 q 267 -14 357 -14 z "},"Ṩ":{"ha":689,"x_min":42,"x_max":619,"o":"m 267 -14 q 142 3 193 -14 q 42 50 92 19 l 68 250 l 90 250 l 119 85 q 193 42 144 58 q 290 26 242 26 q 444 85 389 26 q 500 236 500 143 q 476 325 500 289 q 410 391 453 361 q 311 458 368 421 q 191 560 226 514 q 156 675 156 607 q 192 797 156 738 q 288 893 228 856 q 421 931 347 931 q 526 915 476 931 q 619 872 575 900 l 594 678 l 572 678 l 550 831 q 497 872 532 853 q 413 890 461 890 q 272 844 325 890 q 219 715 219 797 q 233 642 219 675 q 281 575 246 608 q 383 500 317 542 q 484 430 443 464 q 546 354 525 396 q 567 253 567 313 q 529 130 567 192 q 424 27 492 68 q 267 -14 357 -14 m 481 1036 q 444 1051 458 1036 q 429 1088 429 1065 q 444 1124 429 1110 q 481 1139 458 1139 q 517 1124 503 1139 q 532 1088 532 1110 q 517 1051 532 1065 q 481 1036 503 1036 z "},"Ť":{"ha":890,"x_min":104,"x_max":918,"o":"m 196 0 l 200 21 l 342 49 l 489 875 l 214 875 l 125 671 l 104 671 l 147 917 l 918 917 l 875 671 l 854 671 l 840 875 l 564 875 l 417 49 l 551 21 l 547 0 l 196 0 m 535 986 l 407 1197 l 421 1197 l 554 1058 l 750 1197 l 764 1197 l 558 986 l 535 986 z "},"Ț":{"ha":890,"x_min":104,"x_max":918,"o":"m 196 0 l 200 21 l 342 49 l 489 875 l 214 875 l 125 671 l 104 671 l 147 917 l 918 917 l 875 671 l 854 671 l 840 875 l 564 875 l 417 49 l 551 21 l 547 0 l 196 0 z "},"Ŧ":{"ha":890,"x_min":104,"x_max":918,"o":"m 235 458 l 243 500 l 422 500 l 489 875 l 214 875 l 125 671 l 104 671 l 147 917 l 918 917 l 875 671 l 854 671 l 840 875 l 564 875 l 497 500 l 678 500 l 669 458 l 490 458 l 417 49 l 551 21 l 549 0 l 196 0 l 200 21 l 342 49 l 415 458 l 235 458 z "},"Ţ":{"ha":890,"x_min":104,"x_max":918,"o":"m 196 0 l 200 21 l 342 49 l 489 875 l 214 875 l 125 671 l 104 671 l 147 917 l 918 917 l 875 671 l 854 671 l 840 875 l 564 875 l 417 49 l 551 21 l 549 0 l 385 0 l 324 -96 q 426 -139 390 -111 q 463 -217 463 -167 q 421 -301 463 -269 q 319 -333 379 -333 q 269 -326 294 -333 q 229 -306 244 -319 l 232 -292 l 236 -292 q 276 -309 256 -304 q 318 -314 296 -314 q 390 -293 361 -314 q 418 -232 418 -272 q 387 -169 418 -190 q 274 -132 356 -147 l 358 0 l 196 0 z "},"Ṭ":{"ha":890,"x_min":104,"x_max":918,"o":"m 196 0 l 200 21 l 342 49 l 489 875 l 214 875 l 125 671 l 104 671 l 147 917 l 918 917 l 875 671 l 854 671 l 840 875 l 564 875 l 417 49 l 551 21 l 547 0 l 196 0 z "},"Ṯ":{"ha":890,"x_min":104,"x_max":918,"o":"m 196 0 l 200 21 l 342 49 l 489 875 l 214 875 l 125 671 l 104 671 l 147 917 l 918 917 l 875 671 l 854 671 l 840 875 l 564 875 l 417 49 l 551 21 l 547 0 l 196 0 z "},"Ù":{"ha":1015,"x_min":174,"x_max":1021,"o":"m 454 -14 q 252 51 331 -14 q 174 257 174 115 q 176 304 174 281 q 183 356 179 328 l 274 875 l 174 897 l 178 917 l 467 917 l 461 897 l 351 875 l 264 376 q 256 321 258 347 q 254 271 254 294 q 285 133 254 185 q 368 60 315 82 q 489 38 421 38 q 601 67 543 38 q 706 160 660 96 q 772 328 753 224 l 868 872 l 750 897 l 754 917 l 1021 917 l 1017 897 l 915 872 l 824 356 q 747 139 800 219 q 618 22 693 58 q 454 -14 543 -14 m 618 986 l 456 1132 q 439 1162 440 1144 q 443 1197 438 1179 l 497 1197 l 632 986 l 618 986 z "},"Ú":{"ha":1015,"x_min":174,"x_max":1021,"o":"m 454 -14 q 252 51 331 -14 q 174 257 174 115 q 176 304 174 281 q 183 356 179 328 l 274 875 l 174 897 l 178 917 l 467 917 l 461 897 l 351 875 l 264 376 q 256 321 258 347 q 254 271 254 294 q 285 133 254 185 q 368 60 315 82 q 489 38 421 38 q 601 67 543 38 q 706 160 660 96 q 772 328 753 224 l 868 872 l 750 897 l 754 917 l 1021 917 l 1017 897 l 915 872 l 824 356 q 747 139 800 219 q 618 22 693 58 q 454 -14 543 -14 m 618 986 l 772 1197 l 839 1197 q 826 1160 836 1176 q 796 1128 815 1144 l 632 986 l 618 986 z "},"Û":{"ha":1015,"x_min":174,"x_max":1021,"o":"m 454 -14 q 252 51 331 -14 q 174 257 174 115 q 176 304 174 281 q 183 356 179 328 l 274 875 l 174 897 l 178 917 l 467 917 l 461 897 l 351 875 l 264 376 q 256 321 258 347 q 254 271 254 294 q 285 133 254 185 q 368 60 315 82 q 489 38 421 38 q 601 67 543 38 q 706 160 660 96 q 772 328 753 224 l 868 872 l 750 897 l 754 917 l 1021 917 l 1017 897 l 915 872 l 824 356 q 747 139 800 219 q 618 22 693 58 q 454 -14 543 -14 m 439 986 l 650 1197 l 674 1197 l 796 986 l 782 986 l 649 1125 l 453 986 l 439 986 z "},"Ũ":{"ha":1015,"x_min":174,"x_max":1021,"o":"m 454 -14 q 252 51 331 -14 q 174 257 174 115 q 176 304 174 281 q 183 356 179 328 l 274 875 l 174 897 l 178 917 l 467 917 l 461 897 l 351 875 l 264 376 q 256 321 258 347 q 254 271 254 294 q 285 133 254 185 q 368 60 315 82 q 489 38 421 38 q 601 67 543 38 q 706 160 660 96 q 772 328 753 224 l 868 872 l 750 897 l 754 917 l 1021 917 l 1017 897 l 915 872 l 824 356 q 747 139 800 219 q 618 22 693 58 q 454 -14 543 -14 m 447 1011 q 514 1138 486 1107 q 575 1169 542 1169 q 620 1152 600 1169 q 658 1111 640 1135 q 694 1070 676 1088 q 731 1053 711 1053 q 778 1081 757 1053 q 829 1169 800 1110 l 843 1169 q 777 1042 806 1074 q 715 1011 749 1011 q 670 1028 690 1011 q 632 1069 650 1046 q 597 1110 614 1093 q 560 1128 579 1128 q 512 1099 533 1128 q 461 1011 490 1071 l 447 1011 z "},"Ü":{"ha":1015,"x_min":174,"x_max":1021,"o":"m 454 -14 q 252 51 331 -14 q 174 257 174 115 q 176 304 174 281 q 183 356 179 328 l 274 875 l 174 897 l 178 917 l 467 917 l 461 897 l 351 875 l 264 376 q 256 321 258 347 q 254 271 254 294 q 285 133 254 185 q 368 60 315 82 q 489 38 421 38 q 601 67 543 38 q 706 160 660 96 q 772 328 753 224 l 868 872 l 750 897 l 754 917 l 1021 917 l 1017 897 l 915 872 l 824 356 q 747 139 800 219 q 618 22 693 58 q 454 -14 543 -14 m 517 1040 q 480 1055 494 1040 q 465 1092 465 1069 q 480 1128 465 1114 q 517 1143 494 1143 q 553 1128 539 1143 q 568 1092 568 1114 q 553 1055 568 1069 q 517 1040 539 1040 m 772 1040 q 735 1055 750 1040 q 721 1092 721 1069 q 735 1128 721 1114 q 772 1143 750 1143 q 809 1128 794 1143 q 824 1092 824 1114 q 809 1055 824 1069 q 772 1040 794 1040 z "},"Ū":{"ha":1015,"x_min":174,"x_max":1021,"o":"m 454 -14 q 252 51 331 -14 q 174 257 174 115 q 176 304 174 281 q 183 356 179 328 l 274 875 l 174 897 l 178 917 l 467 917 l 461 897 l 351 875 l 264 376 q 256 321 258 347 q 254 271 254 294 q 285 133 254 185 q 368 60 315 82 q 489 38 421 38 q 601 67 543 38 q 706 160 660 96 q 772 328 753 224 l 868 872 l 750 897 l 754 917 l 1021 917 l 1017 897 l 915 872 l 824 356 q 747 139 800 219 q 618 22 693 58 q 454 -14 543 -14 m 471 1074 l 478 1113 l 813 1113 l 806 1074 l 471 1074 z "},"Ŭ":{"ha":1015,"x_min":174,"x_max":1021,"o":"m 454 -14 q 252 51 331 -14 q 174 257 174 115 q 176 304 174 281 q 183 356 179 328 l 274 875 l 174 897 l 178 917 l 467 917 l 461 897 l 351 875 l 264 376 q 256 321 258 347 q 254 271 254 294 q 285 133 254 185 q 368 60 315 82 q 489 38 421 38 q 601 67 543 38 q 706 160 660 96 q 772 328 753 224 l 868 872 l 750 897 l 754 917 l 1021 917 l 1017 897 l 915 872 l 824 356 q 747 139 800 219 q 618 22 693 58 q 454 -14 543 -14 m 625 986 q 513 1038 546 986 q 478 1197 481 1090 l 492 1197 q 521 1093 504 1128 q 565 1046 538 1058 q 633 1033 593 1033 q 703 1047 672 1033 q 763 1095 735 1060 q 821 1197 790 1131 l 835 1197 q 749 1038 799 1089 q 625 986 700 986 z "},"Ů":{"ha":1015,"x_min":174,"x_max":1021,"o":"m 454 -14 q 252 51 331 -14 q 174 257 174 115 q 176 304 174 281 q 183 356 179 328 l 274 875 l 174 897 l 178 917 l 467 917 l 461 897 l 351 875 l 264 376 q 256 321 258 347 q 254 271 254 294 q 285 133 254 185 q 368 60 315 82 q 489 38 421 38 q 601 67 543 38 q 706 160 660 96 q 772 328 753 224 l 868 872 l 750 897 l 754 917 l 1021 917 l 1017 897 l 915 872 l 824 356 q 747 139 800 219 q 618 22 693 58 q 454 -14 543 -14 m 625 986 q 558 1011 581 986 q 536 1076 536 1036 q 572 1167 536 1128 q 663 1206 607 1206 q 728 1181 706 1206 q 751 1115 751 1156 q 716 1025 751 1064 q 625 986 681 986 m 633 1010 q 685 1040 665 1010 q 704 1114 704 1071 q 694 1161 704 1140 q 656 1182 685 1182 q 603 1152 624 1182 q 583 1075 583 1122 q 593 1029 583 1049 q 633 1010 603 1010 z "},"Ű":{"ha":1015,"x_min":174,"x_max":1021,"o":"m 454 -14 q 252 51 331 -14 q 174 257 174 115 q 176 304 174 281 q 183 356 179 328 l 274 875 l 174 897 l 178 917 l 467 917 l 461 897 l 351 875 l 264 376 q 256 321 258 347 q 254 271 254 294 q 285 133 254 185 q 368 60 315 82 q 489 38 421 38 q 601 67 543 38 q 706 160 660 96 q 772 328 753 224 l 868 872 l 750 897 l 754 917 l 1021 917 l 1017 897 l 915 872 l 824 356 q 747 139 800 219 q 618 22 693 58 q 454 -14 543 -14 m 546 986 l 658 1197 l 711 1197 q 708 1155 714 1176 q 679 1110 703 1133 l 560 986 l 546 986 m 694 986 l 807 1197 l 860 1197 q 857 1155 863 1176 q 828 1110 851 1133 l 708 986 l 694 986 z "},"Ų":{"ha":1015,"x_min":174,"x_max":1019,"o":"m 514 -293 q 472 -321 499 -308 q 410 -333 444 -333 q 328 -306 360 -333 q 297 -232 297 -279 q 341 -119 297 -174 q 446 -14 385 -64 q 249 53 325 -12 q 174 257 174 118 q 176 304 174 281 q 183 356 179 328 l 274 875 l 174 897 l 176 917 l 465 917 l 461 897 l 351 875 l 264 376 q 256 321 258 347 q 254 271 254 294 q 285 133 254 185 q 368 60 315 82 q 489 38 421 38 q 601 67 543 38 q 706 160 660 96 q 772 328 753 224 l 868 872 l 750 897 l 753 917 l 1019 917 l 1017 897 l 915 872 l 824 356 q 750 147 800 226 q 630 28 700 67 q 476 -14 560 -10 q 381 -120 413 -72 q 349 -224 349 -168 q 372 -283 349 -264 q 435 -301 394 -301 q 474 -295 453 -301 q 513 -278 496 -289 l 517 -278 l 514 -293 z "},"Ụ":{"ha":1015,"x_min":174,"x_max":1021,"o":"m 454 -14 q 252 51 331 -14 q 174 257 174 115 q 176 304 174 281 q 183 356 179 328 l 274 875 l 174 897 l 178 917 l 467 917 l 461 897 l 351 875 l 264 376 q 256 321 258 347 q 254 271 254 294 q 285 133 254 185 q 368 60 315 82 q 489 38 421 38 q 601 67 543 38 q 706 160 660 96 q 772 328 753 224 l 868 872 l 750 897 l 754 917 l 1021 917 l 1017 897 l 915 872 l 824 356 q 747 139 800 219 q 618 22 693 58 q 454 -14 543 -14 z "},"Ȕ":{"ha":1015,"x_min":174,"x_max":1021,"o":"m 454 -14 q 252 51 331 -14 q 174 257 174 115 q 176 304 174 281 q 183 356 179 328 l 274 875 l 174 897 l 178 917 l 467 917 l 461 897 l 351 875 l 264 376 q 256 321 258 347 q 254 271 254 294 q 285 133 254 185 q 368 60 315 82 q 489 38 421 38 q 601 67 543 38 q 706 160 660 96 q 772 328 753 224 l 868 872 l 750 897 l 754 917 l 1021 917 l 1017 897 l 915 872 l 824 356 q 747 139 800 219 q 618 22 693 58 q 454 -14 543 -14 m 692 986 l 565 1110 q 536 1155 542 1133 q 533 1197 531 1176 l 586 1197 l 706 986 l 692 986 m 543 986 l 417 1110 q 388 1155 393 1133 q 385 1197 382 1176 l 438 1197 l 557 986 l 543 986 z "},"Ȗ":{"ha":1015,"x_min":174,"x_max":1021,"o":"m 454 -14 q 252 51 331 -14 q 174 257 174 115 q 176 304 174 281 q 183 356 179 328 l 274 875 l 174 897 l 178 917 l 467 917 l 461 897 l 351 875 l 264 376 q 256 321 258 347 q 254 271 254 294 q 285 133 254 185 q 368 60 315 82 q 489 38 421 38 q 601 67 543 38 q 706 160 660 96 q 772 328 753 224 l 868 872 l 750 897 l 754 917 l 1021 917 l 1017 897 l 915 872 l 824 356 q 747 139 800 219 q 618 22 693 58 q 454 -14 543 -14 m 449 988 q 534 1147 485 1096 q 658 1199 583 1199 q 770 1147 738 1199 q 806 988 803 1094 l 792 988 q 763 1091 781 1056 q 718 1139 744 1126 q 650 1151 692 1151 q 580 1138 611 1151 q 520 1090 549 1125 q 463 988 492 1054 l 449 988 z "},"Ủ":{"ha":1015,"x_min":174,"x_max":1021,"o":"m 454 -14 q 252 51 331 -14 q 174 257 174 115 q 176 304 174 281 q 183 356 179 328 l 274 875 l 174 897 l 178 917 l 467 917 l 461 897 l 351 875 l 264 376 q 256 321 258 347 q 254 271 254 294 q 285 133 254 185 q 368 60 315 82 q 489 38 421 38 q 601 67 543 38 q 706 160 660 96 q 772 328 753 224 l 868 872 l 750 897 l 754 917 l 1021 917 l 1017 897 l 915 872 l 824 356 q 747 139 800 219 q 618 22 693 58 q 454 -14 543 -14 m 563 975 l 557 983 l 557 985 q 659 1026 625 1003 q 693 1092 693 1050 q 669 1147 693 1125 q 585 1178 644 1169 l 599 1215 q 702 1177 672 1208 q 732 1110 732 1146 q 563 975 732 1013 z "},"Ṹ":{"ha":1015,"x_min":174,"x_max":1021,"o":"m 454 -14 q 252 51 331 -14 q 174 257 174 115 q 176 304 174 281 q 183 356 179 328 l 274 875 l 174 897 l 178 917 l 467 917 l 461 897 l 351 875 l 264 376 q 256 321 258 347 q 254 271 254 294 q 285 133 254 185 q 368 60 315 82 q 489 38 421 38 q 601 67 543 38 q 706 160 660 96 q 772 328 753 224 l 868 872 l 750 897 l 754 917 l 1021 917 l 1017 897 l 915 872 l 824 356 q 747 139 800 219 q 618 22 693 58 q 454 -14 543 -14 z "},"Ṻ":{"ha":1015,"x_min":174,"x_max":1021,"o":"m 454 -14 q 252 51 331 -14 q 174 257 174 115 q 176 304 174 281 q 183 356 179 328 l 274 875 l 174 897 l 178 917 l 467 917 l 461 897 l 351 875 l 264 376 q 256 321 258 347 q 254 271 254 294 q 285 133 254 185 q 368 60 315 82 q 489 38 421 38 q 601 67 543 38 q 706 160 660 96 q 772 328 753 224 l 868 872 l 750 897 l 754 917 l 1021 917 l 1017 897 l 915 872 l 824 356 q 747 139 800 219 q 618 22 693 58 q 454 -14 543 -14 z "},"Ư":{"ha":1015,"x_min":174,"x_max":1197,"o":"m 454 -14 q 252 51 331 -14 q 174 257 174 115 q 176 304 174 281 q 183 356 179 328 l 274 875 l 174 897 l 176 917 l 465 917 l 461 897 l 351 875 l 264 376 q 256 321 258 347 q 254 271 254 294 q 285 133 254 185 q 368 60 315 82 q 489 38 421 38 q 601 67 543 38 q 706 160 660 96 q 772 328 753 224 l 868 872 l 750 897 l 753 917 l 1028 917 q 1097 931 1075 917 q 1126 986 1118 946 l 1138 1040 l 1143 1044 l 1167 1044 q 1190 1041 1183 1044 q 1197 1025 1197 1038 q 1155 933 1197 971 q 1039 894 1113 894 l 1006 894 l 915 872 l 824 356 q 747 139 800 219 q 618 22 693 58 q 454 -14 543 -14 z "},"Ứ":{"ha":1015,"x_min":174,"x_max":1197,"o":"m 454 -14 q 252 51 331 -14 q 174 257 174 115 q 176 304 174 281 q 183 356 179 328 l 274 875 l 174 897 l 176 917 l 465 917 l 461 897 l 351 875 l 264 376 q 256 321 258 347 q 254 271 254 294 q 285 133 254 185 q 368 60 315 82 q 489 38 421 38 q 601 67 543 38 q 706 160 660 96 q 772 328 753 224 l 868 872 l 750 897 l 753 917 l 1028 917 q 1097 931 1075 917 q 1126 986 1118 946 l 1138 1040 l 1143 1044 l 1167 1044 q 1190 1041 1183 1044 q 1197 1025 1197 1038 q 1155 933 1197 971 q 1039 894 1113 894 l 1006 894 l 915 872 l 824 356 q 747 139 800 219 q 618 22 693 58 q 454 -14 543 -14 m 614 986 l 768 1197 l 835 1197 q 822 1160 832 1176 q 792 1128 811 1144 l 628 986 l 614 986 z "},"Ự":{"ha":1015,"x_min":174,"x_max":1197,"o":"m 454 -14 q 252 51 331 -14 q 174 257 174 115 q 176 304 174 281 q 183 356 179 328 l 274 875 l 174 897 l 176 917 l 465 917 l 461 897 l 351 875 l 264 376 q 256 321 258 347 q 254 271 254 294 q 285 133 254 185 q 368 60 315 82 q 489 38 421 38 q 601 67 543 38 q 706 160 660 96 q 772 328 753 224 l 868 872 l 750 897 l 753 917 l 1028 917 q 1097 931 1075 917 q 1126 986 1118 946 l 1138 1040 l 1143 1044 l 1167 1044 q 1190 1041 1183 1044 q 1197 1025 1197 1038 q 1155 933 1197 971 q 1039 894 1113 894 l 1006 894 l 915 872 l 824 356 q 747 139 800 219 q 618 22 693 58 q 454 -14 543 -14 z "},"Ừ":{"ha":1015,"x_min":174,"x_max":1197,"o":"m 454 -14 q 252 51 331 -14 q 174 257 174 115 q 176 304 174 281 q 183 356 179 328 l 274 875 l 174 897 l 176 917 l 465 917 l 461 897 l 351 875 l 264 376 q 256 321 258 347 q 254 271 254 294 q 285 133 254 185 q 368 60 315 82 q 489 38 421 38 q 601 67 543 38 q 706 160 660 96 q 772 328 753 224 l 868 872 l 750 897 l 753 917 l 1028 917 q 1097 931 1075 917 q 1126 986 1118 946 l 1138 1040 l 1143 1044 l 1167 1044 q 1190 1041 1183 1044 q 1197 1025 1197 1038 q 1155 933 1197 971 q 1039 894 1113 894 l 1006 894 l 915 872 l 824 356 q 747 139 800 219 q 618 22 693 58 q 454 -14 543 -14 m 614 986 l 451 1132 q 435 1162 436 1144 q 439 1197 433 1179 l 493 1197 l 628 986 l 614 986 z "},"Ử":{"ha":1015,"x_min":174,"x_max":1197,"o":"m 454 -14 q 252 51 331 -14 q 174 257 174 115 q 176 304 174 281 q 183 356 179 328 l 274 875 l 174 897 l 176 917 l 465 917 l 461 897 l 351 875 l 264 376 q 256 321 258 347 q 254 271 254 294 q 285 133 254 185 q 368 60 315 82 q 489 38 421 38 q 601 67 543 38 q 706 160 660 96 q 772 328 753 224 l 868 872 l 750 897 l 753 917 l 1028 917 q 1097 931 1075 917 q 1126 986 1118 946 l 1138 1040 l 1143 1044 l 1167 1044 q 1190 1041 1183 1044 q 1197 1025 1197 1038 q 1155 933 1197 971 q 1039 894 1113 894 l 1006 894 l 915 872 l 824 356 q 747 139 800 219 q 618 22 693 58 q 454 -14 543 -14 m 558 975 l 553 983 l 553 985 q 655 1026 621 1003 q 689 1092 689 1050 q 665 1147 689 1125 q 581 1178 640 1169 l 594 1215 q 698 1177 668 1208 q 728 1110 728 1146 q 558 975 728 1013 z "},"Ữ":{"ha":1015,"x_min":174,"x_max":1197,"o":"m 454 -14 q 252 51 331 -14 q 174 257 174 115 q 176 304 174 281 q 183 356 179 328 l 274 875 l 174 897 l 176 917 l 465 917 l 461 897 l 351 875 l 264 376 q 256 321 258 347 q 254 271 254 294 q 285 133 254 185 q 368 60 315 82 q 489 38 421 38 q 601 67 543 38 q 706 160 660 96 q 772 328 753 224 l 868 872 l 750 897 l 753 917 l 1028 917 q 1097 931 1075 917 q 1126 986 1118 946 l 1138 1040 l 1143 1044 l 1167 1044 q 1190 1041 1183 1044 q 1197 1025 1197 1038 q 1155 933 1197 971 q 1039 894 1113 894 l 1006 894 l 915 872 l 824 356 q 747 139 800 219 q 618 22 693 58 q 454 -14 543 -14 m 443 1011 q 510 1138 482 1107 q 571 1169 538 1169 q 616 1152 596 1169 q 654 1111 636 1135 q 690 1070 672 1088 q 726 1053 707 1053 q 774 1081 753 1053 q 825 1169 796 1110 l 839 1169 q 773 1042 801 1074 q 711 1011 744 1011 q 666 1028 686 1011 q 628 1069 646 1046 q 592 1110 610 1093 q 556 1128 575 1128 q 508 1099 529 1128 q 457 1011 486 1071 l 443 1011 z "},"Ẁ":{"ha":1311,"x_min":125,"x_max":1339,"o":"m 306 -7 l 206 876 l 125 897 l 129 917 l 390 917 l 386 897 l 285 876 l 357 125 l 361 125 l 736 924 l 765 924 l 882 125 l 888 125 l 1206 878 l 1104 897 l 1108 917 l 1339 917 l 1335 897 l 1261 878 l 858 -7 l 832 -7 l 717 767 l 710 767 l 332 -7 l 306 -7 m 754 986 l 592 1132 q 575 1162 576 1144 q 579 1197 574 1179 l 633 1197 l 768 986 l 754 986 z "},"Ẃ":{"ha":1311,"x_min":125,"x_max":1339,"o":"m 306 -7 l 206 876 l 125 897 l 129 917 l 390 917 l 386 897 l 285 876 l 357 125 l 361 125 l 736 924 l 765 924 l 882 125 l 888 125 l 1206 878 l 1104 897 l 1108 917 l 1339 917 l 1335 897 l 1261 878 l 858 -7 l 832 -7 l 717 767 l 710 767 l 332 -7 l 306 -7 m 754 986 l 908 1197 l 975 1197 q 962 1160 972 1176 q 932 1128 951 1144 l 768 986 l 754 986 z "},"Ŵ":{"ha":1311,"x_min":125,"x_max":1339,"o":"m 306 -7 l 206 876 l 125 897 l 129 917 l 390 917 l 386 897 l 285 876 l 357 125 l 361 125 l 736 924 l 765 924 l 882 125 l 888 125 l 1206 878 l 1104 897 l 1108 917 l 1339 917 l 1335 897 l 1261 878 l 858 -7 l 832 -7 l 717 767 l 710 767 l 332 -7 l 306 -7 m 575 986 l 786 1197 l 810 1197 l 932 986 l 918 986 l 785 1125 l 589 986 l 575 986 z "},"Ẅ":{"ha":1311,"x_min":125,"x_max":1339,"o":"m 306 -7 l 206 876 l 125 897 l 129 917 l 390 917 l 386 897 l 285 876 l 357 125 l 361 125 l 736 924 l 765 924 l 882 125 l 888 125 l 1206 878 l 1104 897 l 1108 917 l 1339 917 l 1335 897 l 1261 878 l 858 -7 l 832 -7 l 717 767 l 710 767 l 332 -7 l 306 -7 m 653 1040 q 616 1055 631 1040 q 601 1092 601 1069 q 616 1128 601 1114 q 653 1143 631 1143 q 690 1128 675 1143 q 704 1092 704 1114 q 690 1055 704 1069 q 653 1040 675 1040 m 908 1040 q 872 1055 886 1040 q 857 1092 857 1069 q 872 1128 857 1114 q 908 1143 886 1143 q 945 1128 931 1143 q 960 1092 960 1114 q 945 1055 960 1069 q 908 1040 931 1040 z "},"Ỳ":{"ha":925,"x_min":125,"x_max":954,"o":"m 240 0 l 244 21 l 365 49 l 435 432 l 229 874 l 125 897 l 129 917 l 425 917 l 421 897 l 314 875 l 314 871 l 496 468 l 803 871 l 803 875 l 699 897 l 703 917 l 954 917 l 950 897 l 864 875 l 510 435 l 440 49 l 554 21 l 550 0 l 240 0 m 563 986 l 400 1132 q 383 1162 385 1144 q 388 1197 382 1179 l 442 1197 l 576 986 l 563 986 z "},"Ý":{"ha":925,"x_min":125,"x_max":954,"o":"m 240 0 l 244 21 l 365 49 l 435 432 l 229 874 l 125 897 l 129 917 l 425 917 l 421 897 l 314 875 l 314 871 l 496 468 l 803 871 l 803 875 l 699 897 l 703 917 l 954 917 l 950 897 l 864 875 l 510 435 l 440 49 l 554 21 l 550 0 l 240 0 m 563 986 l 717 1197 l 783 1197 q 770 1160 781 1176 q 740 1128 760 1144 l 576 986 l 563 986 z "},"Ŷ":{"ha":925,"x_min":125,"x_max":954,"o":"m 240 0 l 244 21 l 365 49 l 435 432 l 229 874 l 125 897 l 129 917 l 425 917 l 421 897 l 314 875 l 314 871 l 496 468 l 803 871 l 803 875 l 699 897 l 703 917 l 954 917 l 950 897 l 864 875 l 510 435 l 440 49 l 554 21 l 550 0 l 240 0 m 383 986 l 594 1197 l 618 1197 l 740 986 l 726 986 l 593 1125 l 397 986 l 383 986 z "},"Ÿ":{"ha":925,"x_min":125,"x_max":954,"o":"m 240 0 l 244 21 l 365 49 l 435 432 l 229 874 l 125 897 l 129 917 l 425 917 l 421 897 l 314 875 l 314 871 l 496 468 l 803 871 l 803 875 l 699 897 l 703 917 l 954 917 l 950 897 l 864 875 l 510 435 l 440 49 l 554 21 l 550 0 l 240 0 m 461 1040 q 424 1055 439 1040 q 410 1092 410 1069 q 424 1128 410 1114 q 461 1143 439 1143 q 498 1128 483 1143 q 513 1092 513 1114 q 498 1055 513 1069 q 461 1040 483 1040 m 717 1040 q 680 1055 694 1040 q 665 1092 665 1069 q 680 1128 665 1114 q 717 1143 694 1143 q 753 1128 739 1143 q 768 1092 768 1114 q 753 1055 768 1069 q 717 1040 739 1040 z "},"Ỹ":{"ha":925,"x_min":125,"x_max":954,"o":"m 240 0 l 244 21 l 365 49 l 435 432 l 229 874 l 125 897 l 129 917 l 425 917 l 421 897 l 314 875 l 314 871 l 496 468 l 803 871 l 803 875 l 699 897 l 703 917 l 954 917 l 950 897 l 864 875 l 510 435 l 440 49 l 554 21 l 550 0 l 240 0 m 392 1011 q 458 1138 431 1107 q 519 1169 486 1169 q 565 1152 544 1169 q 603 1111 585 1135 q 638 1070 621 1088 q 675 1053 656 1053 q 723 1081 701 1053 q 774 1169 744 1110 l 788 1169 q 722 1042 750 1074 q 660 1011 693 1011 q 615 1028 635 1011 q 576 1069 594 1046 q 541 1110 558 1093 q 504 1128 524 1128 q 456 1099 478 1128 q 406 1011 435 1071 l 392 1011 z "},"Ȳ":{"ha":925,"x_min":125,"x_max":954,"o":"m 240 0 l 244 21 l 365 49 l 435 432 l 229 874 l 125 897 l 129 917 l 425 917 l 421 897 l 314 875 l 314 871 l 496 468 l 803 871 l 803 875 l 699 897 l 703 917 l 954 917 l 950 897 l 864 875 l 510 435 l 440 49 l 554 21 l 550 0 l 240 0 m 415 1074 l 422 1113 l 757 1113 l 750 1074 l 415 1074 z "},"Ỵ":{"ha":925,"x_min":125,"x_max":954,"o":"m 240 0 l 244 21 l 365 49 l 435 432 l 229 874 l 125 897 l 129 917 l 425 917 l 421 897 l 314 875 l 314 871 l 496 468 l 803 871 l 803 875 l 699 897 l 703 917 l 954 917 l 950 897 l 864 875 l 510 435 l 440 49 l 554 21 l 550 0 l 240 0 z "},"Ỷ":{"ha":925,"x_min":125,"x_max":954,"o":"m 240 0 l 244 21 l 365 49 l 435 432 l 229 874 l 125 897 l 129 917 l 425 917 l 421 897 l 314 875 l 314 871 l 496 468 l 803 871 l 803 875 l 699 897 l 703 917 l 954 917 l 950 897 l 864 875 l 510 435 l 440 49 l 554 21 l 550 0 l 240 0 m 507 975 l 501 983 l 501 985 q 603 1026 569 1003 q 638 1092 638 1050 q 613 1147 638 1125 q 529 1178 589 1169 l 543 1215 q 647 1177 617 1208 q 676 1110 676 1146 q 507 975 676 1013 z "},"Ẏ":{"ha":925,"x_min":125,"x_max":954,"o":"m 240 0 l 244 21 l 365 49 l 435 432 l 229 874 l 125 897 l 129 917 l 425 917 l 421 897 l 314 875 l 314 871 l 496 468 l 803 871 l 803 875 l 699 897 l 703 917 l 954 917 l 950 897 l 864 875 l 510 435 l 440 49 l 554 21 l 550 0 l 240 0 m 589 1040 q 552 1055 567 1040 q 538 1092 538 1069 q 552 1128 538 1114 q 589 1143 567 1143 q 626 1128 611 1143 q 640 1092 640 1114 q 626 1055 640 1069 q 589 1040 611 1040 z "},"Ź":{"ha":853,"x_min":49,"x_max":804,"o":"m 49 0 l 53 28 l 704 875 l 292 875 l 206 685 l 185 685 l 225 917 l 804 917 l 800 889 l 157 49 l 601 49 l 686 247 l 707 247 l 663 0 l 49 0 m 517 986 l 671 1197 l 738 1197 q 724 1160 735 1176 q 694 1128 714 1144 l 531 986 l 517 986 z "},"Ž":{"ha":853,"x_min":49,"x_max":804,"o":"m 49 0 l 53 28 l 704 875 l 292 875 l 206 685 l 185 685 l 225 917 l 804 917 l 800 889 l 157 49 l 601 49 l 686 247 l 707 247 l 663 0 l 49 0 m 513 986 l 385 1197 l 399 1197 l 532 1058 l 728 1197 l 742 1197 l 536 986 l 513 986 z "},"Ż":{"ha":853,"x_min":49,"x_max":804,"o":"m 49 0 l 53 28 l 704 875 l 292 875 l 206 685 l 185 685 l 225 917 l 804 917 l 800 889 l 157 49 l 601 49 l 686 247 l 707 247 l 663 0 l 49 0 m 543 1040 q 506 1055 521 1040 q 492 1092 492 1069 q 506 1128 492 1114 q 543 1143 521 1143 q 580 1128 565 1143 q 594 1092 594 1114 q 580 1055 594 1069 q 543 1040 565 1040 z "},"Ẓ":{"ha":853,"x_min":49,"x_max":804,"o":"m 49 0 l 53 28 l 704 875 l 292 875 l 206 685 l 185 685 l 225 917 l 804 917 l 800 889 l 157 49 l 601 49 l 686 247 l 707 247 l 663 0 l 49 0 z "},"Ə":{"ha":849,"x_min":64,"x_max":786,"o":"m 346 -14 q 132 78 200 -14 q 64 339 64 171 q 68 411 64 374 l 75 417 l 701 417 q 708 518 708 467 q 639 776 708 681 q 422 872 569 872 q 262 835 335 872 q 132 742 189 797 l 125 742 l 131 768 q 272 883 186 836 q 461 931 357 931 q 642 882 569 931 q 750 747 714 833 q 786 550 786 661 q 754 338 786 439 q 664 157 722 236 q 525 32 606 78 q 346 -14 444 -14 m 143 336 q 189 110 143 192 q 356 28 235 28 q 513 73 443 28 q 628 197 582 118 q 694 375 675 276 l 144 375 q 144 354 144 364 q 143 336 143 344 z "},"Ŋ":{"ha":997,"x_min":14,"x_max":983,"o":"m 14 0 l 17 21 l 118 44 l 265 874 l 156 897 l 158 917 l 338 917 l 713 147 l 840 872 l 722 897 l 725 917 l 983 917 l 981 897 l 888 872 l 722 -61 q 678 -199 707 -149 q 613 -279 650 -249 q 450 -333 543 -333 q 411 -324 424 -333 q 406 -293 399 -315 l 415 -265 l 421 -262 l 469 -262 q 612 -215 567 -262 q 676 -54 657 -168 l 690 22 l 304 808 l 169 49 l 278 21 l 275 0 l 14 0 z "},"Ð":{"ha":943,"x_min":14,"x_max":867,"o":"m 14 0 l 19 21 l 118 44 l 192 457 l 92 457 l 100 499 l 199 499 l 265 872 l 169 896 l 175 917 l 425 917 q 679 866 582 917 q 822 731 776 815 q 867 544 867 646 q 847 402 867 476 q 788 256 828 328 q 684 127 747 185 q 534 35 621 69 q 335 0 447 0 l 14 0 m 526 457 l 268 457 l 194 42 l 351 42 q 592 104 494 42 q 740 279 690 167 q 790 542 790 392 q 694 785 790 694 q 410 875 599 875 l 342 875 l 275 499 l 535 499 l 526 457 z "},"Þ":{"ha":749,"x_min":14,"x_max":676,"o":"m 446 917 l 442 897 l 342 874 l 317 735 l 378 735 q 595 680 514 735 q 676 515 676 625 q 635 371 676 436 q 520 266 594 306 q 344 226 446 226 l 226 226 l 194 46 l 288 21 l 285 0 l 14 0 l 17 21 l 118 46 l 265 874 l 171 897 l 175 917 l 446 917 m 381 694 l 310 694 l 233 267 l 332 267 q 534 334 468 267 q 600 510 600 401 q 538 647 600 600 q 381 694 476 694 z "},"Ǆ":{"ha":1754,"x_min":14,"x_max":1706,"o":"m 14 0 l 19 21 l 118 44 l 265 872 l 169 896 l 175 917 l 425 917 q 679 866 582 917 q 822 731 776 815 q 867 544 867 646 q 847 402 867 476 q 788 256 828 328 q 684 127 747 185 q 534 35 621 69 q 335 0 447 0 l 14 0 m 410 875 l 342 875 l 194 42 l 351 42 q 592 104 494 42 q 740 279 690 167 q 790 542 790 392 q 694 785 790 694 q 410 875 599 875 m 950 0 l 954 28 l 1606 875 l 1193 875 l 1107 685 l 1086 685 l 1126 917 l 1706 917 l 1701 889 l 1058 49 l 1503 49 l 1588 247 l 1608 247 l 1564 0 l 950 0 m 1414 986 l 1286 1197 l 1300 1197 l 1433 1058 l 1629 1197 l 1643 1197 l 1438 986 l 1414 986 z "},"Ǉ":{"ha":1231,"x_min":14,"x_max":1224,"o":"m 14 0 l 19 21 l 118 44 l 265 872 l 171 897 l 175 917 l 460 917 l 456 897 l 340 872 l 194 42 l 532 42 l 633 288 l 658 288 l 608 0 l 14 0 m 722 -240 q 690 -226 703 -240 q 685 -192 676 -212 l 706 -137 l 713 -137 q 746 -147 733 -144 q 775 -150 758 -150 q 824 -133 801 -150 q 866 -69 847 -117 q 901 71 885 -22 l 1043 874 l 949 897 l 953 917 l 1224 917 l 1219 897 l 1119 874 l 1015 292 q 950 13 985 119 q 858 -150 915 -94 q 795 -210 818 -190 q 757 -235 772 -229 q 722 -240 742 -240 z "},"Ǌ":{"ha":1463,"x_min":13,"x_max":1456,"o":"m 13 0 l 17 21 l 118 44 l 265 874 l 154 897 l 158 917 l 338 917 l 713 147 l 840 872 l 721 897 l 725 917 l 983 917 l 979 897 l 888 872 l 732 -7 l 704 -7 l 304 808 l 169 49 l 278 21 l 274 0 l 13 0 m 954 -240 q 922 -226 935 -240 q 917 -192 908 -212 l 938 -137 l 944 -137 q 978 -147 965 -144 q 1007 -150 990 -150 q 1056 -133 1033 -150 q 1098 -69 1079 -117 q 1133 71 1117 -22 l 1275 874 l 1181 897 l 1185 917 l 1456 917 l 1451 897 l 1351 874 l 1247 292 q 1182 13 1217 119 q 1090 -150 1147 -94 q 1027 -210 1050 -190 q 989 -235 1004 -229 q 954 -240 974 -240 z "},"Ђ":{"ha":1092,"x_min":104,"x_max":964,"o":"m 182 0 l 186 21 l 328 49 l 475 875 l 214 875 l 125 671 l 104 671 l 147 917 l 918 917 l 875 671 l 854 671 l 840 875 l 550 875 l 475 458 q 584 516 524 490 q 706 542 644 542 q 903 472 842 542 q 939 258 964 403 q 876 8 913 110 q 771 -156 840 -93 q 705 -211 731 -193 q 660 -235 679 -229 q 622 -240 642 -240 q 592 -232 604 -240 q 583 -201 581 -224 q 590 -184 585 -199 q 608 -137 596 -169 l 617 -137 q 653 -147 639 -144 q 685 -150 667 -150 q 743 -132 717 -150 q 793 -58 769 -114 q 838 111 817 -3 l 865 258 q 844 437 889 383 q 689 490 799 490 q 574 472 626 490 q 468 418 522 453 l 403 49 l 538 21 l 533 0 l 182 0 z "},"Є":{"ha":921,"x_min":83,"x_max":838,"o":"m 450 -14 q 261 32 344 -14 q 131 163 178 78 q 83 361 83 247 q 121 572 83 469 q 228 755 158 674 q 391 883 297 836 q 597 931 485 931 q 740 910 689 931 q 838 863 792 890 l 808 660 l 788 660 l 763 826 q 675 873 722 858 q 568 888 628 888 q 373 835 456 888 q 240 694 290 783 q 171 494 189 606 l 538 494 l 592 610 l 619 610 l 572 340 l 544 340 l 531 453 l 165 453 q 161 374 161 414 q 204 192 161 272 q 318 66 247 113 q 474 19 389 19 q 567 30 525 19 q 644 61 608 40 l 740 253 l 761 253 l 718 54 q 604 4 664 22 q 450 -14 544 -14 z "},"Ѕ":{"ha":689,"x_min":42,"x_max":619,"o":"m 267 -14 q 142 3 193 -14 q 42 50 92 19 l 68 250 l 90 250 l 119 85 q 193 42 144 58 q 290 26 242 26 q 444 85 389 26 q 500 236 500 143 q 476 325 500 289 q 410 391 453 361 q 311 458 368 421 q 191 560 226 514 q 156 675 156 607 q 192 797 156 738 q 288 893 228 856 q 421 931 347 931 q 526 915 476 931 q 619 872 575 900 l 594 678 l 572 678 l 550 831 q 497 872 532 853 q 413 890 461 890 q 272 844 325 890 q 219 715 219 797 q 233 642 219 675 q 281 575 246 608 q 383 500 317 542 q 484 430 443 464 q 546 354 525 396 q 567 253 567 313 q 529 130 567 192 q 424 27 492 68 q 267 -14 357 -14 z "},"І":{"ha":460,"x_min":13,"x_max":446,"o":"m 13 0 l 17 21 l 118 46 l 265 874 l 171 897 l 175 917 l 446 917 l 442 897 l 342 874 l 194 46 l 288 21 l 283 0 l 13 0 z "},"Ї":{"ha":460,"x_min":13,"x_max":522,"o":"m 13 0 l 17 21 l 118 46 l 265 874 l 171 897 l 175 917 l 446 917 l 442 897 l 342 874 l 194 46 l 288 21 l 283 0 l 13 0 m 215 1040 q 178 1055 193 1040 q 164 1092 164 1069 q 178 1128 164 1114 q 215 1143 193 1143 q 252 1128 238 1143 q 267 1092 267 1114 q 252 1055 267 1069 q 215 1040 238 1040 m 471 1040 q 434 1055 449 1040 q 419 1092 419 1069 q 434 1128 419 1114 q 471 1143 449 1143 q 508 1128 493 1143 q 522 1092 522 1114 q 508 1055 522 1069 q 471 1040 493 1040 z "},"Ј":{"ha":465,"x_min":-89,"x_max":458,"o":"m -43 -240 q -76 -226 -62 -240 q -81 -192 -89 -212 l -60 -137 l -53 -137 q -19 -147 -32 -144 q 10 -150 -7 -150 q 59 -133 36 -150 q 101 -69 82 -117 q 136 71 119 -22 l 278 874 l 183 897 l 188 917 l 458 917 l 454 897 l 354 874 l 250 292 q 185 13 219 119 q 93 -150 150 -94 q 30 -210 53 -190 q -8 -235 7 -229 q -43 -240 -24 -240 z "},"Љ":{"ha":1210,"x_min":-10,"x_max":1113,"o":"m 400 799 q 310 387 360 567 q 200 107 260 207 q 119 17 164 47 q 32 -14 75 -14 q -3 -6 3 -14 q -6 26 -10 3 l 1 63 l 11 71 l 18 71 q 156 156 97 71 q 260 403 214 240 q 347 797 306 565 l 361 874 l 256 896 l 261 917 l 926 917 l 925 896 l 794 872 l 733 524 l 846 524 q 1047 462 981 524 q 1113 310 1113 400 q 1071 157 1113 228 q 947 43 1029 86 q 742 0 864 0 l 467 0 l 468 19 l 571 43 l 719 875 l 414 875 l 400 799 m 647 40 l 758 40 q 910 76 847 40 q 1005 171 972 111 q 1038 303 1038 231 q 986 433 1038 383 q 832 483 935 483 l 725 483 l 647 40 z "},"Њ":{"ha":1263,"x_min":14,"x_max":1165,"o":"m 14 0 l 17 21 l 118 46 l 265 874 l 158 896 l 164 917 l 450 917 l 444 896 l 340 871 l 276 511 l 707 511 l 771 872 l 678 896 l 682 917 l 982 917 l 978 896 l 847 872 l 783 511 l 899 511 q 1099 453 1033 511 q 1165 310 1165 394 q 1124 157 1165 228 q 999 43 1082 86 q 794 0 917 0 l 518 0 l 521 19 l 624 43 l 700 469 l 269 469 l 193 43 l 303 21 l 300 0 l 14 0 m 700 40 l 811 40 q 963 76 900 40 q 1058 171 1025 111 q 1090 303 1090 231 q 1039 425 1090 379 q 885 471 988 471 l 776 471 l 700 40 z "},"Ћ":{"ha":1103,"x_min":104,"x_max":990,"o":"m 182 0 l 186 21 l 328 49 l 475 875 l 214 875 l 125 671 l 104 671 l 147 917 l 918 917 l 875 671 l 854 671 l 840 875 l 550 875 l 475 458 q 584 516 524 490 q 706 542 644 542 q 881 479 825 542 q 917 299 938 417 l 874 49 l 990 21 l 988 0 l 794 0 l 846 294 q 823 446 864 401 q 689 490 782 490 q 574 472 626 490 q 468 418 522 453 l 403 49 l 538 21 l 533 0 l 182 0 z "},"Џ":{"ha":981,"x_min":14,"x_max":967,"o":"m 360 0 l 14 0 l 19 21 l 121 46 l 268 874 l 161 896 l 164 917 l 450 917 l 447 896 l 343 871 l 196 42 l 639 42 l 788 874 l 678 896 l 681 917 l 967 917 l 964 896 l 863 871 l 715 43 l 822 21 l 817 0 l 463 0 l 389 -204 l 361 -204 l 360 0 z "},"А":{"ha":897,"x_min":-21,"x_max":786,"o":"m -21 0 l -15 21 l 44 40 l 526 924 l 553 924 l 719 42 l 786 21 l 782 0 l 521 0 l 526 21 l 640 42 l 583 354 l 265 354 l 101 40 l 215 21 l 211 0 l -21 0 m 288 396 l 576 396 l 503 806 l 288 396 z "},"Б":{"ha":776,"x_min":14,"x_max":721,"o":"m 176 917 l 721 917 l 682 692 l 661 692 l 643 875 l 343 875 l 278 510 l 408 510 q 609 449 543 510 q 675 303 675 389 q 633 153 675 222 q 509 42 592 85 q 304 0 426 0 l 14 0 l 17 19 l 119 43 l 267 872 l 174 896 l 176 917 m 196 40 l 321 40 q 472 75 410 40 q 567 167 535 110 q 600 296 600 225 q 549 422 600 374 q 394 469 497 469 l 271 469 l 196 40 z "},"В":{"ha":744,"x_min":14,"x_max":661,"o":"m 14 0 l 18 21 l 119 44 l 267 874 l 171 897 l 175 917 l 401 917 q 591 868 521 917 q 661 719 661 819 q 608 578 661 646 q 458 482 554 510 q 606 407 557 463 q 656 267 656 351 q 609 129 656 189 q 484 35 563 69 q 313 0 406 0 l 14 0 m 403 874 l 342 874 l 275 494 l 346 494 q 476 524 422 494 q 558 603 529 554 q 586 711 586 653 q 403 874 586 874 m 360 453 l 267 453 l 194 40 l 318 40 q 515 106 450 40 q 581 265 581 171 q 521 408 581 364 q 360 453 461 453 z "},"Г":{"ha":765,"x_min":14,"x_max":735,"o":"m 14 0 l 19 21 l 118 44 l 265 872 l 169 896 l 175 917 l 735 917 l 696 692 l 675 692 l 657 875 l 342 875 l 196 44 l 307 21 l 301 0 l 14 0 z "},"Ѓ":{"ha":765,"x_min":14,"x_max":735,"o":"m 14 0 l 19 21 l 118 44 l 265 872 l 169 896 l 175 917 l 735 917 l 696 692 l 675 692 l 657 875 l 342 875 l 196 44 l 307 21 l 301 0 l 14 0 z "},"Ғ":{"ha":765,"x_min":14,"x_max":735,"o":"m 14 0 l 19 21 l 118 44 l 192 457 l 92 457 l 100 499 l 199 499 l 265 872 l 169 896 l 175 917 l 735 917 l 696 692 l 675 692 l 657 875 l 342 875 l 275 499 l 521 499 l 513 457 l 268 457 l 196 44 l 307 21 l 301 0 l 14 0 z "},"Д":{"ha":936,"x_min":-69,"x_max":922,"o":"m 53 0 l -42 -204 l -69 -204 l -25 42 l 67 42 q 151 176 111 94 q 224 359 190 257 q 283 573 257 461 q 331 797 310 685 l 344 874 l 239 896 l 244 917 l 922 917 l 917 896 l 815 871 l 668 42 l 793 42 l 749 -204 l 721 -204 l 699 0 l 53 0 m 383 799 q 337 574 364 686 q 278 360 310 461 q 208 176 246 258 q 131 42 171 94 l 592 42 l 740 875 l 397 875 l 383 799 z "},"Е":{"ha":765,"x_min":14,"x_max":735,"o":"m 14 0 l 19 21 l 118 44 l 265 872 l 169 896 l 175 917 l 735 917 l 696 692 l 675 692 l 657 875 l 342 875 l 275 494 l 501 494 l 553 610 l 578 610 l 531 340 l 506 340 l 494 453 l 267 453 l 194 42 l 557 42 l 643 239 l 664 239 l 622 0 l 14 0 z "},"Ё":{"ha":765,"x_min":14,"x_max":735,"o":"m 14 0 l 19 21 l 118 44 l 265 872 l 169 896 l 175 917 l 735 917 l 696 692 l 675 692 l 657 875 l 342 875 l 275 494 l 501 494 l 553 610 l 578 610 l 531 340 l 506 340 l 494 453 l 267 453 l 194 42 l 557 42 l 643 239 l 664 239 l 622 0 l 14 0 m 392 1040 q 355 1055 369 1040 q 340 1092 340 1069 q 355 1128 340 1114 q 392 1143 369 1143 q 428 1128 414 1143 q 443 1092 443 1114 q 428 1055 443 1069 q 392 1040 414 1040 m 647 1040 q 610 1055 625 1040 q 596 1092 596 1069 q 610 1128 596 1114 q 647 1143 625 1143 q 684 1128 669 1143 q 699 1092 699 1114 q 684 1055 699 1069 q 647 1040 669 1040 z "},"Ж":{"ha":1276,"x_min":-76,"x_max":1254,"o":"m 67 0 l -76 0 l -75 21 l -6 36 l 535 497 l 254 876 l 174 897 l 175 917 l 440 917 l 439 897 l 322 867 l 600 474 l 671 874 l 576 897 l 581 917 l 851 917 l 847 897 l 747 874 l 676 478 l 1089 867 l 985 897 l 989 917 l 1254 917 l 1250 897 l 1174 881 l 743 490 l 1114 36 l 1188 21 l 1183 0 l 1040 0 l 674 463 l 600 46 l 707 21 l 703 0 l 404 0 l 408 21 l 524 46 l 599 465 l 67 0 z "},"З":{"ha":735,"x_min":83,"x_max":654,"o":"m 428 897 q 347 884 379 897 q 288 856 314 871 l 192 664 l 171 664 l 214 863 q 313 911 267 892 q 425 931 358 931 q 555 902 506 931 q 627 828 604 874 q 650 731 650 783 q 626 626 650 678 q 556 533 601 574 q 449 475 511 492 q 599 406 544 461 q 654 264 654 351 q 611 126 654 189 q 495 24 568 63 q 333 -14 422 -14 q 183 7 239 -14 q 83 54 128 28 l 113 257 l 133 257 l 158 90 q 238 44 197 60 q 331 29 278 29 q 456 60 400 29 q 544 143 513 90 q 576 264 576 196 q 525 399 576 347 q 347 451 474 451 l 258 451 l 267 493 l 357 493 q 481 527 433 493 q 552 613 529 561 q 575 719 575 665 q 561 807 575 767 q 515 872 547 847 q 428 897 482 897 z "},"И":{"ha":1022,"x_min":14,"x_max":1008,"o":"m 14 0 l 17 21 l 118 46 l 265 874 l 158 896 l 164 917 l 450 917 l 444 896 l 340 871 l 218 183 l 815 807 l 826 874 l 717 896 l 722 917 l 1008 917 l 1003 896 l 901 871 l 754 43 l 861 21 l 858 0 l 572 0 l 575 21 l 679 46 l 801 732 l 204 108 l 193 43 l 303 21 l 300 0 l 14 0 z "},"Й":{"ha":1022,"x_min":14,"x_max":1008,"o":"m 14 0 l 17 21 l 118 46 l 265 874 l 158 896 l 164 917 l 450 917 l 444 896 l 340 871 l 218 183 l 815 807 l 826 874 l 717 896 l 722 917 l 1008 917 l 1003 896 l 901 871 l 754 43 l 861 21 l 858 0 l 572 0 l 575 21 l 679 46 l 801 732 l 204 108 l 193 43 l 303 21 l 300 0 l 14 0 m 415 1197 l 499 1197 q 510 1065 488 1115 q 594 1015 533 1015 q 694 1066 651 1015 q 749 1197 738 1117 l 832 1197 q 750 1044 818 1103 q 590 986 682 986 q 449 1044 497 986 q 415 1197 401 1103 z "},"Ӣ":{"ha":1022,"x_min":14,"x_max":1008,"o":"m 14 0 l 17 21 l 118 46 l 265 874 l 158 896 l 164 917 l 450 917 l 444 896 l 340 871 l 218 183 l 815 807 l 826 874 l 717 896 l 722 917 l 1008 917 l 1003 896 l 901 871 l 754 43 l 861 21 l 858 0 l 572 0 l 575 21 l 679 46 l 801 732 l 204 108 l 193 43 l 303 21 l 300 0 l 14 0 z "},"К":{"ha":885,"x_min":13,"x_max":863,"o":"m 13 0 l 17 21 l 118 46 l 265 874 l 171 897 l 175 917 l 446 917 l 442 897 l 342 874 l 271 478 l 697 868 l 593 897 l 597 917 l 863 917 l 858 897 l 782 881 l 338 490 l 722 36 l 796 21 l 792 0 l 649 0 l 268 463 l 194 46 l 301 21 l 297 0 l 13 0 z "},"Ќ":{"ha":885,"x_min":13,"x_max":863,"o":"m 13 0 l 17 21 l 118 46 l 265 874 l 171 897 l 175 917 l 446 917 l 442 897 l 342 874 l 271 478 l 697 868 l 593 897 l 597 917 l 863 917 l 858 897 l 782 881 l 338 490 l 722 36 l 796 21 l 792 0 l 649 0 l 268 463 l 194 46 l 301 21 l 297 0 l 13 0 z "},"Л":{"ha":939,"x_min":-10,"x_max":925,"o":"m 489 0 l 492 21 l 596 46 l 743 875 l 414 875 l 400 799 q 310 387 360 567 q 200 107 260 207 q 119 17 164 47 q 32 -14 75 -14 q -3 -6 3 -14 q -6 26 -10 3 l 1 63 l 11 71 l 18 71 q 156 156 97 71 q 260 403 214 240 q 347 797 306 565 l 361 874 l 256 896 l 261 917 l 925 917 l 919 896 l 818 871 l 671 43 l 778 21 l 775 0 l 489 0 z "},"М":{"ha":1204,"x_min":14,"x_max":1190,"o":"m 14 0 l 19 21 l 121 44 l 293 869 l 189 899 l 193 917 l 386 917 l 561 128 l 1000 917 l 1190 917 l 1186 897 l 1076 869 l 972 44 l 1056 21 l 1051 0 l 793 0 l 799 21 l 894 43 l 1000 825 l 535 -7 l 508 -7 l 328 831 l 176 43 l 274 21 l 269 0 l 14 0 z "},"Н":{"ha":1008,"x_min":14,"x_max":994,"o":"m 14 0 l 17 21 l 118 46 l 265 874 l 158 896 l 164 917 l 450 917 l 444 896 l 340 871 l 274 497 l 746 497 l 813 874 l 703 896 l 708 917 l 994 917 l 989 896 l 888 871 l 740 43 l 847 21 l 844 0 l 558 0 l 561 21 l 665 46 l 738 456 l 267 456 l 193 43 l 303 21 l 300 0 l 14 0 z "},"О":{"ha":969,"x_min":83,"x_max":886,"o":"m 401 -14 q 234 32 306 -14 q 123 160 163 78 q 83 349 83 242 q 121 574 83 469 q 225 760 158 679 q 380 885 292 840 q 568 931 468 931 q 737 885 665 931 q 847 757 808 839 q 886 568 886 675 q 851 351 886 456 q 752 165 817 247 q 599 34 688 82 q 401 -14 510 -14 m 433 17 q 578 56 510 17 q 698 166 646 94 q 780 334 750 238 q 810 546 810 431 q 774 732 810 653 q 678 856 739 811 q 538 900 617 900 q 388 860 457 900 q 268 748 319 819 q 188 581 217 676 q 160 374 160 485 q 195 187 160 267 q 292 62 231 107 q 433 17 354 17 z "},"П":{"ha":981,"x_min":14,"x_max":967,"o":"m 14 0 l 17 21 l 118 46 l 265 874 l 158 896 l 164 917 l 967 917 l 961 896 l 860 871 l 713 43 l 819 21 l 817 0 l 531 0 l 533 21 l 638 46 l 785 875 l 342 875 l 193 43 l 303 21 l 300 0 l 14 0 z "},"Р":{"ha":749,"x_min":13,"x_max":707,"o":"m 13 0 l 17 21 l 118 44 l 265 874 l 171 897 l 175 917 l 408 917 q 626 863 544 917 q 707 697 707 808 q 666 553 707 619 q 551 448 625 488 q 375 408 476 408 l 258 408 l 194 44 l 317 21 l 313 0 l 13 0 m 342 876 l 265 449 l 363 449 q 565 516 499 449 q 631 692 631 583 q 569 829 631 782 q 411 876 507 876 l 342 876 z "},"С":{"ha":921,"x_min":83,"x_max":838,"o":"m 450 -14 q 261 32 344 -14 q 131 163 178 78 q 83 361 83 247 q 121 572 83 469 q 228 755 158 674 q 391 883 297 836 q 597 931 485 931 q 740 910 689 931 q 838 863 792 890 l 808 660 l 788 660 l 763 826 q 675 873 722 858 q 568 888 628 888 q 393 847 469 888 q 265 735 317 807 q 188 571 214 664 q 161 374 161 478 q 204 192 161 272 q 318 66 247 113 q 474 19 389 19 q 567 30 525 19 q 644 61 608 40 l 740 253 l 761 253 l 718 54 q 604 4 664 22 q 450 -14 544 -14 z "},"Т":{"ha":890,"x_min":104,"x_max":918,"o":"m 196 0 l 200 21 l 342 49 l 489 875 l 214 875 l 125 671 l 104 671 l 147 917 l 918 917 l 875 671 l 854 671 l 840 875 l 564 875 l 417 49 l 551 21 l 547 0 l 196 0 z "},"У":{"ha":925,"x_min":125,"x_max":967,"o":"m 428 153 q 313 19 364 53 q 211 -14 261 -14 q 176 -6 183 -14 q 174 26 169 3 l 181 63 l 190 71 l 197 71 q 316 101 269 71 q 403 192 363 132 l 201 879 l 125 897 l 129 917 l 397 917 l 393 897 l 283 874 l 283 869 l 453 285 l 465 285 l 821 871 l 821 875 l 719 897 l 722 917 l 967 917 l 964 897 l 889 874 l 428 153 z "},"Ў":{"ha":925,"x_min":125,"x_max":967,"o":"m 428 153 q 313 19 364 53 q 211 -14 261 -14 q 176 -6 183 -14 q 174 26 169 3 l 181 63 l 190 71 l 197 71 q 316 101 269 71 q 403 192 363 132 l 201 879 l 125 897 l 129 917 l 397 917 l 393 897 l 283 874 l 283 869 l 453 285 l 465 285 l 821 871 l 821 875 l 719 897 l 722 917 l 967 917 l 964 897 l 889 874 l 428 153 m 411 1197 l 494 1197 q 506 1065 483 1115 q 590 1015 529 1015 q 690 1066 647 1015 q 744 1197 733 1117 l 828 1197 q 746 1044 814 1103 q 586 986 678 986 q 445 1044 493 986 q 411 1197 397 1103 z "},"Ӯ":{"ha":925,"x_min":125,"x_max":967,"o":"m 428 153 q 313 19 364 53 q 211 -14 261 -14 q 176 -6 183 -14 q 174 26 169 3 l 181 63 l 190 71 l 197 71 q 316 101 269 71 q 403 192 363 132 l 201 879 l 125 897 l 129 917 l 397 917 l 393 897 l 283 874 l 283 869 l 453 285 l 465 285 l 821 871 l 821 875 l 719 897 l 722 917 l 967 917 l 964 897 l 889 874 l 428 153 z "},"Ф":{"ha":1094,"x_min":49,"x_max":1046,"o":"m 326 -28 l 331 -7 l 432 18 l 449 111 q 154 196 260 115 q 49 407 49 276 q 115 603 49 514 q 299 746 182 692 q 569 806 417 800 l 586 901 l 492 925 l 496 944 l 767 944 l 763 925 l 663 901 l 646 806 q 940 722 835 801 q 1046 510 1046 642 q 979 314 1046 403 q 795 170 913 225 q 525 111 678 115 l 508 18 l 601 -7 l 597 -28 l 326 -28 m 126 425 q 214 232 126 306 q 454 147 301 158 l 564 771 q 328 727 426 771 q 178 606 231 683 q 126 425 126 528 m 968 492 q 880 685 968 611 q 639 769 792 758 l 531 146 q 766 190 668 146 q 916 311 864 233 q 968 492 968 389 z "},"Х":{"ha":926,"x_min":-35,"x_max":949,"o":"m -35 0 l -31 21 l 92 51 l 440 458 l 242 874 l 138 897 l 142 917 l 438 917 l 433 897 l 326 876 l 326 872 l 499 507 l 788 871 l 788 875 l 668 897 l 672 917 l 949 917 l 944 897 l 853 875 l 517 471 l 714 51 l 826 21 l 822 0 l 497 0 l 501 21 l 633 50 l 633 54 l 458 419 l 157 54 l 157 50 l 267 21 l 263 0 l -35 0 z "},"Ц":{"ha":981,"x_min":14,"x_max":967,"o":"m 746 0 l 14 0 l 19 21 l 121 46 l 268 874 l 161 896 l 164 917 l 450 917 l 447 896 l 343 871 l 196 42 l 639 42 l 788 874 l 678 896 l 681 917 l 967 917 l 964 896 l 863 871 l 714 42 l 840 42 l 796 -204 l 768 -204 l 746 0 z "},"Ч":{"ha":981,"x_min":131,"x_max":967,"o":"m 531 0 l 533 21 l 638 46 l 707 439 q 597 413 658 425 q 461 400 536 400 q 247 468 315 400 q 206 694 178 536 l 238 874 l 131 896 l 136 917 l 422 917 l 417 896 l 313 871 l 281 693 q 303 503 257 560 q 468 446 350 446 q 601 456 538 446 q 715 481 664 465 l 785 874 l 675 896 l 681 917 l 967 917 l 961 896 l 860 871 l 713 43 l 819 21 l 817 0 l 531 0 z "},"Ш":{"ha":1328,"x_min":14,"x_max":1314,"o":"m 450 917 l 447 896 l 343 871 l 196 42 l 554 42 l 703 874 l 593 896 l 596 917 l 882 917 l 879 896 l 778 871 l 631 42 l 986 42 l 1135 874 l 1025 896 l 1028 917 l 1314 917 l 1311 896 l 1210 871 l 1063 43 l 1169 21 l 1164 0 l 14 0 l 19 21 l 121 46 l 268 874 l 161 896 l 164 917 l 450 917 z "},"Щ":{"ha":1328,"x_min":14,"x_max":1314,"o":"m 450 917 l 447 896 l 343 871 l 196 42 l 554 42 l 703 874 l 593 896 l 596 917 l 882 917 l 879 896 l 778 871 l 631 42 l 986 42 l 1135 874 l 1025 896 l 1028 917 l 1314 917 l 1311 896 l 1210 871 l 1063 42 l 1189 42 l 1144 -204 l 1117 -204 l 1094 0 l 14 0 l 19 21 l 121 46 l 268 874 l 161 896 l 164 917 l 450 917 z "},"Ъ":{"ha":882,"x_min":104,"x_max":785,"o":"m 599 917 l 597 896 l 467 872 l 406 524 l 518 524 q 719 462 653 524 q 785 310 785 400 q 743 157 785 228 q 619 43 701 86 q 414 0 536 0 l 139 0 l 140 19 l 243 43 l 392 875 l 214 875 l 125 671 l 104 671 l 147 917 l 599 917 m 319 40 l 431 40 q 582 76 519 40 q 677 171 644 111 q 710 303 710 231 q 658 433 710 383 q 504 483 607 483 l 397 483 l 319 40 z "},"Ы":{"ha":1218,"x_min":14,"x_max":1204,"o":"m 176 917 l 476 917 l 474 896 l 343 872 l 282 524 l 394 524 q 595 462 529 524 q 661 310 661 400 q 619 157 661 228 q 495 43 578 86 q 290 0 413 0 l 14 0 l 17 19 l 119 43 l 267 872 l 174 896 l 176 917 m 196 40 l 307 40 q 458 76 396 40 q 553 171 521 111 q 586 303 586 231 q 535 433 586 383 q 381 483 483 483 l 274 483 l 196 40 m 771 0 l 775 21 l 876 46 l 1024 874 l 929 897 l 933 917 l 1204 917 l 1200 897 l 1100 874 l 953 46 l 1046 21 l 1042 0 l 771 0 z "},"Ь":{"ha":758,"x_min":14,"x_max":661,"o":"m 176 917 l 476 917 l 474 896 l 343 872 l 282 524 l 394 524 q 595 462 529 524 q 661 310 661 400 q 619 157 661 228 q 495 43 578 86 q 290 0 413 0 l 14 0 l 17 19 l 119 43 l 267 872 l 174 896 l 176 917 m 196 40 l 307 40 q 458 76 396 40 q 553 171 521 111 q 586 303 586 231 q 535 433 586 383 q 381 483 483 483 l 274 483 l 196 40 z "},"Э":{"ha":921,"x_min":83,"x_max":838,"o":"m 376 604 l 390 492 l 758 492 q 760 543 760 517 q 717 724 760 644 q 602 851 674 804 q 447 897 531 897 q 353 887 394 897 q 276 856 313 876 l 181 664 l 160 664 l 203 863 q 317 913 257 894 q 471 931 376 931 q 660 885 578 931 q 790 754 743 839 q 838 556 838 669 q 800 345 838 447 q 693 162 763 243 q 530 33 624 81 q 324 -14 436 -14 q 181 6 232 -14 q 83 54 129 26 l 113 257 l 133 257 l 158 90 q 246 44 199 58 q 353 29 293 29 q 554 85 469 29 q 690 237 639 142 q 754 450 740 332 l 383 450 l 329 335 l 301 335 l 349 604 l 376 604 z "},"Ю":{"ha":1304,"x_min":14,"x_max":1221,"o":"m 14 0 l 17 21 l 118 46 l 265 874 l 158 896 l 164 917 l 450 917 l 444 896 l 340 871 l 274 497 l 461 497 q 554 720 488 622 q 714 874 621 818 q 917 931 807 931 q 1078 885 1010 931 q 1183 757 1146 839 q 1221 568 1221 675 q 1187 351 1221 456 q 1090 165 1153 247 q 941 34 1028 82 q 750 -14 854 -14 q 590 32 658 -14 q 483 160 521 78 q 446 349 446 242 q 454 456 446 403 l 267 456 l 193 43 l 303 21 l 300 0 l 14 0 m 782 17 q 922 56 856 17 q 1038 166 988 94 q 1116 334 1088 238 q 1144 546 1144 431 q 1111 732 1144 653 q 1019 856 1078 811 q 886 900 961 900 q 742 860 808 900 q 627 748 676 819 q 550 581 578 676 q 522 374 522 485 q 556 187 522 267 q 647 62 589 107 q 782 17 706 17 z "},"Я":{"ha":869,"x_min":-28,"x_max":856,"o":"m 108 0 l -28 0 l -26 21 l 44 36 l 406 425 q 261 489 314 436 q 208 621 208 542 q 250 767 208 700 q 374 876 292 835 q 579 917 457 917 l 856 917 l 853 897 l 750 874 l 603 44 l 696 21 l 693 0 l 393 0 l 396 21 l 526 44 l 592 413 l 482 413 l 108 0 m 489 453 l 599 453 l 674 876 l 563 876 q 411 842 474 876 q 316 752 349 808 q 283 628 283 696 q 335 501 283 549 q 489 453 386 453 z "},"Ґ":{"ha":749,"x_min":14,"x_max":749,"o":"m 14 0 l 19 21 l 118 44 l 265 872 l 169 896 l 175 917 l 646 917 l 728 1100 l 749 1100 l 710 875 l 342 875 l 196 44 l 307 21 l 301 0 l 14 0 z "},"Қ":{"ha":899,"x_min":13,"x_max":863,"o":"m 13 0 l 17 21 l 118 46 l 265 874 l 171 897 l 175 917 l 446 917 l 442 897 l 342 874 l 271 478 l 697 868 l 593 897 l 597 917 l 863 917 l 858 897 l 782 881 l 338 490 l 718 42 l 838 42 l 793 -204 l 765 -204 l 743 0 l 649 0 l 268 463 l 194 46 l 301 21 l 297 0 l 13 0 z "},"Җ":{"ha":1276,"x_min":-76,"x_max":1254,"o":"m 67 0 l -76 0 l -75 21 l -6 36 l 535 497 l 254 876 l 174 897 l 175 917 l 440 917 l 439 897 l 322 867 l 600 474 l 671 874 l 576 897 l 581 917 l 851 917 l 847 897 l 747 874 l 676 478 l 1089 867 l 985 897 l 989 917 l 1254 917 l 1250 897 l 1174 881 l 743 490 l 1110 42 l 1222 42 l 1178 -204 l 1150 -204 l 1128 0 l 1040 0 l 674 463 l 600 46 l 707 21 l 703 0 l 404 0 l 408 21 l 524 46 l 599 465 l 67 0 z "},"Ҳ":{"ha":906,"x_min":-35,"x_max":949,"o":"m -35 0 l -31 21 l 92 51 l 440 458 l 242 874 l 138 897 l 142 917 l 438 917 l 433 897 l 326 876 l 326 872 l 499 507 l 788 871 l 788 875 l 668 897 l 672 917 l 949 917 l 944 897 l 853 875 l 515 471 l 718 42 l 844 42 l 800 -204 l 772 -204 l 750 0 l 497 0 l 501 21 l 633 50 l 633 54 l 458 419 l 157 54 l 157 50 l 267 21 l 263 0 l -35 0 z "},"Ң":{"ha":1008,"x_min":14,"x_max":994,"o":"m 14 0 l 17 21 l 118 46 l 265 874 l 158 896 l 164 917 l 450 917 l 444 896 l 340 871 l 274 497 l 746 497 l 813 874 l 703 896 l 708 917 l 994 917 l 989 896 l 888 871 l 740 42 l 872 42 l 828 -204 l 800 -204 l 778 0 l 558 0 l 561 21 l 665 46 l 738 456 l 267 456 l 193 43 l 303 21 l 300 0 l 14 0 z "},"Ҷ":{"ha":981,"x_min":131,"x_max":967,"o":"m 531 0 l 533 21 l 638 46 l 707 438 q 597 412 658 424 q 461 400 536 400 q 247 468 315 400 q 206 694 178 536 l 238 874 l 131 896 l 136 917 l 422 917 l 417 896 l 313 871 l 281 693 q 303 503 257 560 q 468 446 350 446 q 601 456 538 446 q 715 481 664 465 l 785 874 l 675 896 l 681 917 l 967 917 l 961 896 l 860 871 l 711 42 l 838 42 l 793 -204 l 765 -204 l 743 0 l 531 0 z "},"Ү":{"ha":925,"x_min":125,"x_max":954,"o":"m 240 0 l 244 21 l 365 49 l 435 432 l 229 874 l 125 897 l 129 917 l 425 917 l 421 897 l 314 875 l 314 871 l 496 468 l 803 871 l 803 875 l 699 897 l 703 917 l 954 917 l 950 897 l 864 875 l 510 435 l 440 49 l 554 21 l 550 0 l 240 0 z "},"Ұ":{"ha":925,"x_min":125,"x_max":954,"o":"m 240 0 l 244 21 l 365 49 l 428 393 l 254 393 l 263 435 l 435 435 l 229 874 l 125 897 l 129 917 l 425 917 l 421 897 l 314 875 l 314 871 l 496 468 l 803 871 l 803 875 l 699 897 l 703 917 l 954 917 l 950 897 l 864 875 l 511 435 l 683 435 l 675 393 l 503 393 l 440 49 l 554 21 l 550 0 l 240 0 z "},"Һ":{"ha":981,"x_min":65,"x_max":901,"o":"m 501 917 l 499 896 l 394 871 l 325 478 q 435 504 374 492 q 571 517 496 517 q 785 449 717 517 q 826 222 854 381 l 794 43 l 901 21 l 896 0 l 610 0 l 615 21 l 719 46 l 751 224 q 728 414 775 357 q 564 471 682 471 q 431 461 494 471 q 317 436 368 451 l 247 43 l 357 21 l 351 0 l 65 0 l 71 21 l 172 46 l 319 874 l 213 896 l 215 917 l 501 917 z "},"Ӏ":{"ha":460,"x_min":13,"x_max":446,"o":"m 13 0 l 17 21 l 118 46 l 265 874 l 171 897 l 175 917 l 446 917 l 442 897 l 342 874 l 194 46 l 288 21 l 283 0 l 13 0 z "},"Ә":{"ha":849,"x_min":64,"x_max":786,"o":"m 346 -14 q 132 78 200 -14 q 64 339 64 171 q 68 411 64 374 l 75 417 l 701 417 q 708 518 708 467 q 639 776 708 681 q 422 872 569 872 q 262 835 335 872 q 132 742 189 797 l 125 742 l 131 768 q 272 883 186 836 q 461 931 357 931 q 642 882 569 931 q 750 747 714 833 q 786 550 786 661 q 754 338 786 439 q 664 157 722 236 q 525 32 606 78 q 346 -14 444 -14 m 143 336 q 189 110 143 192 q 356 28 235 28 q 513 73 443 28 q 628 197 582 118 q 694 375 675 276 l 144 375 q 144 354 144 364 q 143 336 143 344 z "},"Ө":{"ha":969,"x_min":83,"x_max":886,"o":"m 401 -14 q 234 32 306 -14 q 123 160 163 78 q 83 349 83 242 q 121 574 83 469 q 225 760 158 679 q 380 885 292 840 q 568 931 468 931 q 737 885 665 931 q 847 757 808 839 q 886 568 886 675 q 851 351 886 456 q 752 165 817 247 q 599 34 688 82 q 401 -14 510 -14 m 538 900 q 368 848 444 900 q 240 703 292 796 q 169 493 188 611 l 808 493 q 810 546 810 519 q 774 732 810 653 q 678 856 739 811 q 538 900 617 900 m 433 17 q 603 72 525 17 q 735 224 682 126 q 804 451 789 322 l 164 451 q 160 374 160 413 q 195 187 160 267 q 292 62 231 107 q 433 17 353 17 z "},"Ѣ":{"ha":900,"x_min":83,"x_max":803,"o":"m 189 725 l 104 549 l 83 549 l 122 767 l 390 767 l 408 872 l 315 896 l 318 917 l 618 917 l 615 896 l 485 872 l 465 767 l 754 767 l 715 576 l 694 576 l 676 725 l 458 725 l 415 482 l 536 482 q 737 424 671 482 q 803 282 803 365 q 761 144 803 208 q 637 40 719 79 q 432 0 554 0 l 156 0 l 158 19 l 261 43 l 382 725 l 189 725 m 338 40 l 449 40 q 600 72 538 40 q 695 158 663 104 q 728 275 728 211 q 676 396 728 350 q 522 442 625 442 l 408 442 l 338 40 z "},"Ѳ":{"ha":969,"x_min":83,"x_max":886,"o":"m 401 -14 q 234 32 306 -14 q 123 160 163 78 q 83 349 83 242 q 121 574 83 469 q 225 760 158 679 q 380 885 292 840 q 568 931 468 931 q 737 885 665 931 q 847 757 808 839 q 886 568 886 675 q 851 351 886 456 q 752 165 817 247 q 599 34 688 82 q 401 -14 510 -14 m 538 900 q 363 844 442 900 q 233 692 285 789 q 165 471 182 596 q 306 512 232 507 q 454 506 381 517 q 595 481 528 494 q 717 465 663 468 q 807 488 772 463 q 810 546 810 515 q 774 732 810 653 q 678 856 739 811 q 538 900 617 900 m 433 17 q 604 72 525 17 q 736 226 683 128 q 804 454 789 325 q 685 415 750 419 q 551 422 621 410 q 410 447 481 433 q 277 463 340 461 q 163 440 214 465 q 160 374 160 407 q 195 187 160 267 q 292 62 231 107 q 433 17 354 17 z "},"Ѵ":{"ha":946,"x_min":125,"x_max":963,"o":"m 758 713 l 385 -7 l 358 -7 l 206 875 l 125 897 l 129 917 l 390 917 l 386 897 l 285 878 l 407 124 l 414 124 l 696 703 q 747 798 722 758 q 796 863 772 838 q 863 917 832 903 q 921 931 894 931 q 956 922 950 931 q 958 890 963 914 l 951 853 l 942 844 l 935 844 q 857 832 886 844 q 806 790 828 819 q 758 713 783 761 z "},"ȷ":{"ha":400,"x_min":-83,"x_max":275,"o":"m -83 -306 l -83 -282 q 0 -215 -36 -250 q 61 -128 36 -179 q 100 0 86 -76 l 203 579 l 115 592 l 115 606 l 257 639 l 275 639 l 161 0 q 81 -176 143 -97 q -83 -306 19 -254 z "},"ĸ":{"ha":636,"x_min":63,"x_max":581,"o":"m 63 0 l 164 579 l 76 592 l 76 606 l 225 639 l 236 639 l 122 0 l 63 0 m 435 -14 q 403 -5 417 -14 q 371 31 389 4 q 324 110 353 58 l 193 350 l 193 357 q 357 525 296 464 q 455 613 418 586 q 524 639 492 639 q 549 636 539 639 q 567 628 558 633 q 576 610 576 622 q 572 592 576 603 l 553 556 l 550 556 l 538 563 q 514 574 528 569 q 488 579 500 579 q 427 554 460 579 q 375 510 394 529 l 247 376 l 374 151 q 424 70 408 90 q 460 50 439 50 q 508 77 479 50 q 561 164 536 104 l 581 157 q 513 33 550 79 q 435 -14 475 -14 z "},"ẗ":{"ha":418,"x_min":68,"x_max":460,"o":"m 172 -14 q 112 11 132 -14 q 92 81 92 36 q 96 124 92 100 l 175 585 l 68 585 l 68 594 l 194 629 l 261 778 l 274 778 l 246 625 l 410 625 l 410 585 l 238 585 l 167 172 q 162 133 164 150 q 160 103 160 117 q 170 54 160 68 q 201 40 181 40 q 274 79 236 40 q 344 193 313 118 l 364 186 q 273 33 321 81 q 172 -14 225 -14 m 181 944 q 144 959 158 944 q 129 996 129 974 q 144 1033 129 1018 q 181 1047 158 1047 q 217 1033 203 1047 q 232 996 232 1018 q 217 959 232 974 q 181 944 203 944 m 408 944 q 372 959 386 944 q 357 996 357 974 q 372 1033 357 1018 q 408 1047 386 1047 q 445 1033 431 1047 q 460 996 460 1018 q 445 959 460 974 q 408 944 431 944 z "},"a":{"ha":796,"x_min":-21,"x_max":685,"o":"m -21 0 l -17 21 l 40 39 l 456 785 l 482 785 l 625 40 l 685 21 l 681 0 l 451 0 l 456 21 l 553 40 l 506 297 l 236 297 l 97 39 l 190 21 l 186 0 l -21 0 m 258 339 l 497 339 l 436 672 l 258 339 z "},"b":{"ha":668,"x_min":14,"x_max":585,"o":"m 14 0 l 18 21 l 107 39 l 233 740 l 150 757 l 154 778 l 358 778 q 524 737 464 778 q 585 611 585 696 q 538 491 585 549 q 407 410 492 433 q 538 346 494 393 q 581 226 581 299 q 540 110 581 161 q 432 30 500 60 q 282 0 364 0 l 14 0 m 357 736 l 301 736 l 244 424 l 307 424 q 460 477 406 424 q 514 604 514 531 q 357 736 514 736 m 319 382 l 238 382 l 175 42 l 283 42 q 453 94 396 42 q 510 225 510 147 q 458 345 510 308 q 319 382 407 382 z "},"c":{"ha":822,"x_min":83,"x_max":739,"o":"m 403 -14 q 169 74 256 -14 q 83 311 83 161 q 114 492 83 406 q 202 647 144 579 q 342 754 260 715 q 531 793 425 793 q 655 776 610 793 q 739 735 700 758 l 714 561 l 693 561 l 672 699 q 506 750 607 750 q 313 693 392 750 q 194 542 235 636 q 154 333 154 447 q 224 101 154 183 q 424 19 293 19 q 503 28 468 19 q 569 56 539 38 l 653 214 l 674 214 l 635 44 q 535 1 588 17 q 403 -14 482 -14 z "},"d":{"ha":836,"x_min":14,"x_max":760,"o":"m 14 0 l 18 21 l 106 44 l 231 733 l 150 757 l 154 778 l 389 778 q 670 691 581 778 q 760 463 760 604 q 703 231 760 336 q 540 63 647 125 q 282 0 433 0 l 14 0 m 367 736 l 301 736 l 174 42 l 282 42 q 588 152 488 42 q 689 453 689 263 q 609 663 689 589 q 367 736 529 736 z "},"e":{"ha":675,"x_min":14,"x_max":644,"o":"m 14 0 l 18 21 l 107 46 l 232 732 l 150 757 l 154 778 l 644 778 l 610 586 l 589 586 l 576 736 l 301 736 l 244 424 l 439 424 l 488 521 l 508 521 l 465 286 l 444 286 l 432 382 l 238 382 l 175 42 l 488 42 l 563 204 l 583 204 l 546 0 l 14 0 z "},"f":{"ha":675,"x_min":14,"x_max":644,"o":"m 14 0 l 18 21 l 107 46 l 232 732 l 150 757 l 154 778 l 644 778 l 610 586 l 589 586 l 576 736 l 301 736 l 244 424 l 439 424 l 488 521 l 508 521 l 465 286 l 444 286 l 432 382 l 238 382 l 176 46 l 272 21 l 268 0 l 14 0 z "},"g":{"ha":860,"x_min":83,"x_max":767,"o":"m 383 -14 q 224 28 292 -14 q 120 142 157 69 q 83 306 83 214 q 114 487 83 400 q 201 643 144 574 q 339 753 258 713 q 519 793 419 793 q 656 776 606 793 q 749 735 707 760 l 722 561 l 701 561 l 676 697 q 604 738 644 725 q 508 750 564 750 q 315 693 394 750 q 195 542 236 636 q 154 335 154 447 q 224 107 154 192 q 422 22 293 22 q 490 30 456 22 q 564 54 525 38 l 607 299 l 507 319 l 511 340 l 767 340 l 764 319 l 676 299 l 633 64 q 522 6 586 25 q 383 -14 458 -14 z "},"h":{"ha":882,"x_min":14,"x_max":868,"o":"m 14 0 l 18 21 l 104 46 l 229 732 l 139 757 l 143 778 l 393 778 l 389 757 l 297 732 l 242 426 l 650 426 l 706 732 l 613 757 l 618 778 l 868 778 l 864 757 l 774 732 l 650 46 l 743 21 l 739 0 l 488 0 l 492 21 l 581 46 l 642 385 l 235 385 l 174 46 l 269 21 l 265 0 l 14 0 z "},"i":{"ha":399,"x_min":14,"x_max":385,"o":"m 14 0 l 18 21 l 103 46 l 225 732 l 146 757 l 150 778 l 385 778 l 381 757 l 293 732 l 172 46 l 251 21 l 247 0 l 14 0 z "},"ı":{"ha":399,"x_min":14,"x_max":385,"o":"m 14 0 l 18 21 l 103 46 l 225 732 l 146 757 l 150 778 l 385 778 l 381 757 l 293 732 l 172 46 l 251 21 l 247 0 l 14 0 z "},"j":{"ha":388,"x_min":-89,"x_max":381,"o":"m -51 -204 q -78 -194 -67 -204 q -82 -165 -89 -183 l -64 -115 l -57 -115 q -35 -122 -43 -119 q -17 -124 -28 -124 q 54 -85 25 -124 q 103 61 83 -46 l 222 732 l 143 757 l 147 778 l 381 778 l 376 757 l 290 732 l 206 250 q 149 12 179 103 q 69 -126 118 -79 q 15 -177 35 -161 q -19 -199 -6 -193 q -51 -204 -33 -204 z "},"k":{"ha":776,"x_min":14,"x_max":754,"o":"m 14 0 l 18 21 l 104 46 l 229 732 l 149 757 l 153 778 l 392 778 l 388 757 l 297 732 l 238 401 l 600 732 l 515 757 l 519 778 l 754 778 l 750 757 l 678 739 l 307 415 l 614 39 l 685 21 l 681 0 l 553 0 l 236 396 l 174 46 l 268 21 l 264 0 l 14 0 z "},"l":{"ha":683,"x_min":14,"x_max":576,"o":"m 14 0 l 18 21 l 104 46 l 229 732 l 149 757 l 153 778 l 404 778 l 399 757 l 297 732 l 174 42 l 465 42 l 556 246 l 576 246 l 532 0 l 14 0 z "},"m":{"ha":1051,"x_min":14,"x_max":1038,"o":"m 14 0 l 18 21 l 107 44 l 253 732 l 164 757 l 168 778 l 344 778 l 489 117 l 863 778 l 1038 778 l 1033 757 l 938 732 l 850 44 l 922 21 l 918 0 l 690 0 l 694 21 l 779 44 l 867 696 l 465 -6 l 442 -6 l 288 704 l 157 44 l 240 21 l 236 0 l 14 0 z "},"n":{"ha":874,"x_min":14,"x_max":860,"o":"m 14 0 l 18 21 l 106 44 l 232 735 l 136 757 l 140 778 l 299 778 l 619 136 l 726 733 l 624 757 l 628 778 l 860 778 l 856 757 l 775 733 l 642 -6 l 614 -6 l 268 681 l 154 49 l 247 21 l 243 0 l 14 0 z "},"o":{"ha":865,"x_min":83,"x_max":782,"o":"m 361 -14 q 215 26 278 -14 q 118 135 153 65 q 83 299 83 206 q 116 490 83 400 q 207 648 149 579 q 342 755 265 717 q 506 793 418 793 q 651 754 589 793 q 748 645 714 715 q 782 483 782 575 q 752 299 782 388 q 667 139 722 210 q 534 27 611 68 q 361 -14 457 -14 m 385 24 q 553 81 479 24 q 669 238 626 138 q 711 467 711 338 q 651 676 711 597 q 479 756 592 756 q 313 698 386 756 q 197 541 239 640 q 154 317 154 442 q 215 105 154 186 q 385 24 275 24 z "},"p":{"ha":664,"x_min":14,"x_max":622,"o":"m 14 0 l 17 21 l 104 46 l 229 732 l 149 757 l 153 778 l 361 778 q 551 732 481 778 q 622 593 622 686 q 586 466 622 522 q 485 377 550 410 q 329 344 419 344 l 228 344 l 174 46 l 281 21 l 276 0 l 14 0 m 299 736 l 235 386 l 319 386 q 494 442 438 386 q 551 588 551 497 q 498 698 551 660 q 363 736 444 736 l 299 736 z "},"q":{"ha":915,"x_min":83,"x_max":888,"o":"m 703 -204 q 597 -190 658 -204 q 460 -133 535 -175 q 300 -8 385 -90 q 142 95 200 13 q 83 299 83 178 q 116 490 83 400 q 207 648 149 579 q 342 755 265 717 q 506 793 418 793 q 651 754 589 793 q 748 645 714 715 q 782 483 782 575 q 756 308 782 393 q 679 155 729 224 q 560 42 629 86 q 403 -11 490 -3 q 555 -108 488 -76 q 674 -149 622 -139 q 765 -160 726 -160 q 835 -153 803 -160 q 888 -140 868 -147 l 882 -169 q 803 -194 850 -185 q 703 -204 756 -204 m 385 24 q 553 81 479 24 q 669 238 626 138 q 711 467 711 338 q 651 676 711 597 q 479 756 592 756 q 313 698 386 756 q 197 541 239 640 q 154 317 154 442 q 215 105 154 186 q 385 24 275 24 z "},"r":{"ha":690,"x_min":14,"x_max":614,"o":"m 14 0 l 17 21 l 104 46 l 229 732 l 147 757 l 151 778 l 364 778 q 526 733 468 778 q 583 611 583 689 q 540 474 583 536 q 396 389 496 413 l 549 35 l 614 21 l 610 0 l 483 0 l 329 372 l 232 372 l 174 46 l 254 21 l 250 0 l 14 0 m 363 736 l 299 736 l 240 414 l 317 414 q 425 442 382 414 q 490 513 468 469 q 511 601 511 556 q 475 700 511 664 q 363 736 439 736 z "},"s":{"ha":547,"x_min":0,"x_max":506,"o":"m 197 -14 q 88 0 132 -14 q 0 40 44 14 l 22 213 l 44 213 l 69 75 q 131 40 90 53 q 215 26 172 26 q 349 74 300 26 q 397 197 397 121 q 377 272 397 242 q 320 329 357 303 q 232 388 283 356 q 129 474 160 435 q 99 572 99 514 q 127 677 99 626 q 208 760 156 728 q 332 793 260 793 q 424 780 381 793 q 506 743 467 767 l 483 576 l 463 576 l 442 704 q 397 738 428 722 q 325 753 365 753 q 204 714 250 753 q 158 607 158 675 q 169 542 158 569 q 211 488 181 515 q 297 426 242 461 q 417 334 376 378 q 458 214 458 290 q 426 101 458 153 q 334 17 393 49 q 197 -14 275 -14 z "},"t":{"ha":783,"x_min":104,"x_max":811,"o":"m 183 0 l 188 21 l 311 46 l 436 736 l 201 736 l 125 568 l 104 568 l 144 778 l 811 778 l 774 568 l 753 568 l 742 736 l 504 736 l 381 46 l 497 21 l 493 0 l 183 0 z "},"u":{"ha":910,"x_min":174,"x_max":914,"o":"m 422 -12 q 245 43 314 -12 q 176 219 176 99 q 185 303 176 257 l 261 735 l 174 757 l 178 778 l 432 778 l 428 757 l 332 735 l 257 319 q 249 231 249 269 q 302 81 249 125 q 438 36 356 36 q 606 100 539 36 q 693 279 674 164 l 772 732 l 671 757 l 675 778 l 914 778 l 910 757 l 821 732 l 743 303 q 676 117 722 186 q 565 18 629 49 q 422 -12 500 -12 z "},"v":{"ha":797,"x_min":125,"x_max":825,"o":"m 325 -6 l 196 738 l 125 757 l 129 778 l 369 778 l 365 757 l 267 739 l 368 118 l 376 118 l 696 739 l 603 757 l 607 778 l 825 778 l 821 757 l 754 739 l 351 -6 l 325 -6 z "},"w":{"ha":1161,"x_min":125,"x_max":1189,"o":"m 281 -6 l 194 739 l 125 757 l 129 778 l 358 778 l 354 757 l 267 739 l 332 133 l 338 133 l 658 785 l 686 785 l 783 135 l 789 135 l 1061 739 l 975 757 l 979 778 l 1189 778 l 1185 757 l 1118 740 l 765 -6 l 740 -6 l 639 638 l 633 638 l 308 -6 l 281 -6 z "},"x":{"ha":800,"x_min":-35,"x_max":821,"o":"m -35 0 l -31 21 l 78 49 l 376 392 l 207 736 l 114 757 l 118 778 l 379 778 l 375 757 l 286 738 l 286 735 l 433 435 l 667 732 l 667 736 l 564 757 l 569 778 l 821 778 l 817 757 l 736 739 l 451 397 l 622 50 l 722 18 l 718 0 l 429 0 l 432 18 l 546 46 l 546 49 l 394 356 l 143 51 l 143 49 l 240 21 l 236 0 l -35 0 z "},"y":{"ha":818,"x_min":125,"x_max":846,"o":"m 225 0 l 229 21 l 333 46 l 392 368 l 215 735 l 125 757 l 129 778 l 389 778 l 385 757 l 292 738 l 292 733 l 446 407 l 701 732 l 701 736 l 613 757 l 617 778 l 846 778 l 842 757 l 764 736 l 460 368 l 403 46 l 501 21 l 497 0 l 225 0 z "},"z":{"ha":754,"x_min":49,"x_max":706,"o":"m 49 0 l 51 24 l 604 736 l 260 736 l 186 579 l 165 579 l 201 778 l 706 778 l 701 754 l 146 42 l 529 42 l 603 211 l 624 211 l 583 0 l 49 0 z "},"à":{"ha":796,"x_min":-21,"x_max":685,"o":"m -21 0 l -17 21 l 40 39 l 456 785 l 482 785 l 625 40 l 685 21 l 681 0 l 451 0 l 456 21 l 553 40 l 506 297 l 236 297 l 97 39 l 190 21 l 186 0 l -21 0 m 258 339 l 497 339 l 436 672 l 258 339 m 478 882 l 315 1063 q 303 1128 292 1090 l 357 1128 l 492 882 l 478 882 z "},"á":{"ha":796,"x_min":-21,"x_max":700,"o":"m -21 0 l -17 21 l 40 39 l 456 785 l 482 785 l 625 40 l 685 21 l 681 0 l 451 0 l 456 21 l 553 40 l 506 297 l 236 297 l 97 39 l 190 21 l 186 0 l -21 0 m 258 339 l 497 339 l 436 672 l 258 339 m 479 882 l 633 1128 l 700 1128 q 686 1092 697 1107 q 657 1058 675 1076 l 493 882 l 479 882 z "},"â":{"ha":796,"x_min":-21,"x_max":685,"o":"m -21 0 l -17 21 l 40 39 l 456 785 l 482 785 l 625 40 l 685 21 l 681 0 l 451 0 l 456 21 l 553 40 l 506 297 l 236 297 l 97 39 l 190 21 l 186 0 l -21 0 m 258 339 l 497 339 l 436 672 l 258 339 m 307 882 l 515 1128 l 539 1128 l 664 882 l 650 882 l 515 1051 l 321 882 l 307 882 z "},"ã":{"ha":796,"x_min":-21,"x_max":703,"o":"m -21 0 l -17 21 l 40 39 l 456 785 l 482 785 l 625 40 l 685 21 l 681 0 l 451 0 l 456 21 l 553 40 l 506 297 l 236 297 l 97 39 l 190 21 l 186 0 l -21 0 m 258 339 l 497 339 l 436 672 l 258 339 m 307 918 q 354 1024 333 988 q 394 1076 375 1061 q 436 1090 414 1090 q 481 1071 461 1090 q 517 1026 500 1051 q 552 981 535 1000 q 589 961 569 961 q 637 994 615 961 q 689 1090 658 1026 l 703 1090 q 655 984 675 1021 q 615 933 635 947 q 574 918 596 918 q 529 938 549 918 q 492 983 510 957 q 458 1028 475 1008 q 421 1047 440 1047 q 374 1015 394 1047 q 321 918 353 982 l 307 918 z "},"ä":{"ha":796,"x_min":-21,"x_max":685,"o":"m -21 0 l -17 21 l 40 39 l 456 785 l 482 785 l 625 40 l 685 21 l 681 0 l 451 0 l 456 21 l 553 40 l 506 297 l 236 297 l 97 39 l 190 21 l 186 0 l -21 0 m 258 339 l 497 339 l 436 672 l 258 339 m 390 951 q 353 966 368 951 q 339 1003 339 981 q 353 1040 339 1025 q 390 1054 368 1054 q 427 1040 413 1054 q 442 1003 442 1025 q 427 966 442 981 q 390 951 413 951 m 618 951 q 581 966 596 951 q 567 1003 567 981 q 581 1040 567 1025 q 618 1054 596 1054 q 655 1040 640 1054 q 669 1003 669 1025 q 655 966 669 981 q 618 951 640 951 z "},"ā":{"ha":796,"x_min":-21,"x_max":685,"o":"m -21 0 l -17 21 l 40 39 l 456 785 l 482 785 l 625 40 l 685 21 l 681 0 l 451 0 l 456 21 l 553 40 l 506 297 l 236 297 l 97 39 l 190 21 l 186 0 l -21 0 m 258 339 l 497 339 l 436 672 l 258 339 m 333 983 l 340 1022 l 675 1022 l 668 983 l 333 983 z "},"ă":{"ha":796,"x_min":-21,"x_max":703,"o":"m -21 0 l -17 21 l 40 39 l 456 785 l 482 785 l 625 40 l 685 21 l 681 0 l 451 0 l 456 21 l 553 40 l 506 297 l 236 297 l 97 39 l 190 21 l 186 0 l -21 0 m 258 339 l 497 339 l 436 672 l 258 339 m 488 896 q 376 957 406 896 q 346 1128 347 1018 l 360 1128 q 388 1011 371 1051 q 430 957 404 971 q 497 943 456 943 q 568 958 538 943 q 627 1014 599 974 q 689 1128 656 1054 l 703 1128 q 611 953 660 1010 q 488 896 563 896 z "},"å":{"ha":796,"x_min":-21,"x_max":685,"o":"m -21 0 l -17 21 l 40 39 l 456 785 l 482 785 l 625 40 l 685 21 l 681 0 l 451 0 l 456 21 l 553 40 l 506 297 l 236 297 l 97 39 l 190 21 l 186 0 l -21 0 m 258 339 l 497 339 l 436 672 l 258 339 m 488 896 q 421 921 443 896 q 399 986 399 946 q 434 1076 399 1038 q 525 1115 469 1115 q 591 1090 568 1115 q 614 1025 614 1065 q 578 935 614 974 q 488 896 543 896 m 496 919 q 547 950 528 919 q 567 1024 567 981 q 557 1071 567 1050 q 518 1092 547 1092 q 466 1062 486 1092 q 446 985 446 1032 q 456 939 446 958 q 496 919 465 919 z "},"ǻ":{"ha":796,"x_min":-21,"x_max":751,"o":"m -21 0 l -17 21 l 40 39 l 456 785 l 482 785 l 625 40 l 685 21 l 681 0 l 451 0 l 456 21 l 553 40 l 506 297 l 236 297 l 97 39 l 190 21 l 186 0 l -21 0 m 258 339 l 497 339 l 436 672 l 258 339 m 488 896 q 421 921 443 896 q 399 986 399 946 q 434 1076 399 1038 q 525 1115 469 1115 q 591 1090 568 1115 q 614 1025 614 1065 q 578 935 614 974 q 488 896 543 896 m 496 919 q 547 950 528 919 q 567 1024 567 981 q 557 1071 567 1050 q 518 1092 547 1092 q 466 1062 486 1092 q 446 985 446 1032 q 456 939 446 958 q 496 919 465 919 m 531 1192 l 685 1438 l 751 1438 q 738 1401 749 1417 q 708 1368 726 1386 l 544 1192 l 531 1192 z "},"ạ":{"ha":796,"x_min":-21,"x_max":685,"o":"m -21 0 l -17 21 l 40 39 l 456 785 l 482 785 l 625 40 l 685 21 l 681 0 l 451 0 l 456 21 l 553 40 l 506 297 l 236 297 l 97 39 l 190 21 l 186 0 l -21 0 m 258 339 l 497 339 l 436 672 l 258 339 m 294 -262 q 258 -248 272 -262 q 243 -211 243 -233 q 258 -174 243 -189 q 294 -160 272 -160 q 331 -174 317 -160 q 346 -211 346 -189 q 331 -248 346 -233 q 294 -262 317 -262 z "},"ą":{"ha":796,"x_min":-21,"x_max":685,"o":"m -21 0 l -17 21 l 40 39 l 456 785 l 482 785 l 625 40 l 685 21 l 681 0 l 603 0 q 497 -115 532 -65 q 461 -224 461 -164 q 484 -283 461 -264 q 547 -301 507 -301 q 588 -295 567 -301 q 625 -278 608 -289 l 629 -278 l 626 -293 q 585 -321 611 -308 q 522 -333 558 -333 q 441 -306 472 -333 q 410 -232 410 -279 q 460 -112 410 -171 q 575 0 510 -53 l 451 0 l 456 21 l 553 40 l 506 297 l 236 297 l 97 39 l 190 21 l 186 0 l -21 0 m 258 339 l 497 339 l 436 672 l 258 339 z "},"ȁ":{"ha":796,"x_min":-21,"x_max":685,"o":"m -21 0 l -17 21 l 40 39 l 456 785 l 482 785 l 625 40 l 685 21 l 681 0 l 451 0 l 456 21 l 553 40 l 506 297 l 236 297 l 97 39 l 190 21 l 186 0 l -21 0 m 258 339 l 497 339 l 436 672 l 258 339 m 551 882 l 425 1040 q 397 1088 403 1068 q 393 1128 390 1107 l 446 1128 l 565 882 l 551 882 m 394 882 l 268 1040 q 240 1088 246 1068 q 236 1128 233 1107 l 289 1128 l 408 882 l 394 882 z "},"ȃ":{"ha":796,"x_min":-21,"x_max":685,"o":"m -21 0 l -17 21 l 40 39 l 456 785 l 482 785 l 625 40 l 685 21 l 681 0 l 451 0 l 456 21 l 553 40 l 506 297 l 236 297 l 97 39 l 190 21 l 186 0 l -21 0 m 258 339 l 497 339 l 436 672 l 258 339 m 303 896 q 394 1071 346 1014 q 518 1128 443 1128 q 629 1067 600 1128 q 660 896 658 1006 l 646 896 q 618 1013 635 974 q 576 1067 601 1053 q 508 1081 550 1081 q 438 1065 468 1081 q 378 1010 407 1050 q 317 896 350 969 l 303 896 z "},"ắ":{"ha":796,"x_min":-21,"x_max":706,"o":"m -21 0 l -17 21 l 40 39 l 456 785 l 482 785 l 625 40 l 685 21 l 681 0 l 451 0 l 456 21 l 553 40 l 506 297 l 236 297 l 97 39 l 190 21 l 186 0 l -21 0 m 258 339 l 497 339 l 436 672 l 258 339 z "},"ặ":{"ha":796,"x_min":-21,"x_max":703,"o":"m -21 0 l -17 21 l 40 39 l 456 785 l 482 785 l 625 40 l 685 21 l 681 0 l 451 0 l 456 21 l 553 40 l 506 297 l 236 297 l 97 39 l 190 21 l 186 0 l -21 0 m 258 339 l 497 339 l 436 672 l 258 339 m 488 896 q 376 957 406 896 q 346 1128 347 1018 l 360 1128 q 388 1011 371 1051 q 430 957 404 971 q 497 943 456 943 q 568 958 538 943 q 627 1014 599 974 q 689 1128 656 1054 l 703 1128 q 611 953 660 1010 q 488 896 563 896 m 294 -262 q 258 -248 272 -262 q 243 -211 243 -233 q 258 -174 243 -189 q 294 -160 272 -160 q 331 -174 317 -160 q 346 -211 346 -189 q 331 -248 346 -233 q 294 -262 317 -262 z "},"ằ":{"ha":796,"x_min":-21,"x_max":703,"o":"m -21 0 l -17 21 l 40 39 l 456 785 l 482 785 l 625 40 l 685 21 l 681 0 l 451 0 l 456 21 l 553 40 l 506 297 l 236 297 l 97 39 l 190 21 l 186 0 l -21 0 m 258 339 l 497 339 l 436 672 l 258 339 z "},"ẳ":{"ha":796,"x_min":-21,"x_max":703,"o":"m -21 0 l -17 21 l 40 39 l 456 785 l 482 785 l 625 40 l 685 21 l 681 0 l 451 0 l 456 21 l 553 40 l 506 297 l 236 297 l 97 39 l 190 21 l 186 0 l -21 0 m 258 339 l 497 339 l 436 672 l 258 339 z "},"ẵ":{"ha":796,"x_min":-21,"x_max":740,"o":"m -21 0 l -17 21 l 40 39 l 456 785 l 482 785 l 625 40 l 685 21 l 681 0 l 451 0 l 456 21 l 553 40 l 506 297 l 236 297 l 97 39 l 190 21 l 186 0 l -21 0 m 258 339 l 497 339 l 436 672 l 258 339 z "},"ấ":{"ha":796,"x_min":-21,"x_max":829,"o":"m -21 0 l -17 21 l 40 39 l 456 785 l 482 785 l 625 40 l 685 21 l 681 0 l 451 0 l 456 21 l 553 40 l 506 297 l 236 297 l 97 39 l 190 21 l 186 0 l -21 0 m 258 339 l 497 339 l 436 672 l 258 339 m 660 1031 l 763 1229 l 829 1229 q 815 1194 826 1208 q 786 1160 803 1179 l 674 1031 l 660 1031 m 307 882 l 515 1128 l 539 1128 l 664 882 l 650 882 l 515 1051 l 321 882 l 307 882 z "},"ậ":{"ha":796,"x_min":-21,"x_max":685,"o":"m -21 0 l -17 21 l 40 39 l 456 785 l 482 785 l 625 40 l 685 21 l 681 0 l 451 0 l 456 21 l 553 40 l 506 297 l 236 297 l 97 39 l 190 21 l 186 0 l -21 0 m 258 339 l 497 339 l 436 672 l 258 339 m 307 882 l 515 1128 l 539 1128 l 664 882 l 650 882 l 515 1051 l 321 882 l 307 882 m 294 -262 q 258 -248 272 -262 q 243 -211 243 -233 q 258 -174 243 -189 q 294 -160 272 -160 q 331 -174 317 -160 q 346 -211 346 -189 q 331 -248 346 -233 q 294 -262 317 -262 z "},"ầ":{"ha":796,"x_min":-21,"x_max":685,"o":"m -21 0 l -17 21 l 40 39 l 456 785 l 482 785 l 625 40 l 685 21 l 681 0 l 451 0 l 456 21 l 553 40 l 506 297 l 236 297 l 97 39 l 190 21 l 186 0 l -21 0 m 258 339 l 497 339 l 436 672 l 258 339 m 322 1031 l 208 1160 q 183 1191 193 1176 q 181 1229 172 1206 l 233 1229 l 336 1031 l 322 1031 m 307 882 l 515 1128 l 539 1128 l 664 882 l 650 882 l 515 1051 l 321 882 l 307 882 z "},"ẩ":{"ha":796,"x_min":-21,"x_max":685,"o":"m -21 0 l -17 21 l 40 39 l 456 785 l 482 785 l 625 40 l 685 21 l 681 0 l 451 0 l 456 21 l 553 40 l 506 297 l 236 297 l 97 39 l 190 21 l 186 0 l -21 0 m 258 339 l 497 339 l 436 672 l 258 339 z "},"ẫ":{"ha":796,"x_min":-21,"x_max":746,"o":"m -21 0 l -17 21 l 40 39 l 456 785 l 482 785 l 625 40 l 685 21 l 681 0 l 451 0 l 456 21 l 553 40 l 506 297 l 236 297 l 97 39 l 190 21 l 186 0 l -21 0 m 258 339 l 497 339 l 436 672 l 258 339 z "},"ả":{"ha":796,"x_min":-21,"x_max":685,"o":"m -21 0 l -17 21 l 40 39 l 456 785 l 482 785 l 625 40 l 685 21 l 681 0 l 451 0 l 456 21 l 553 40 l 506 297 l 236 297 l 97 39 l 190 21 l 186 0 l -21 0 m 258 339 l 497 339 l 436 672 l 258 339 m 421 896 l 421 897 q 523 939 489 915 q 557 1004 557 963 q 533 1060 557 1038 q 449 1090 508 1082 l 463 1128 q 566 1090 536 1121 q 596 1022 596 1058 q 426 888 596 925 l 421 896 z "},"æ":{"ha":1065,"x_min":-21,"x_max":1035,"o":"m -21 0 l -17 21 l 44 39 l 622 778 l 1035 778 l 1000 586 l 979 586 l 967 736 l 692 736 l 635 424 l 829 424 l 878 521 l 899 521 l 856 286 l 835 286 l 822 382 l 628 382 l 565 42 l 878 42 l 953 204 l 974 204 l 936 0 l 404 0 l 408 21 l 497 46 l 543 297 l 303 297 l 104 39 l 192 21 l 188 0 l -21 0 m 335 339 l 550 339 l 618 708 l 335 339 z "},"ǽ":{"ha":1065,"x_min":-21,"x_max":1035,"o":"m -21 0 l -17 21 l 44 39 l 622 778 l 1035 778 l 1000 586 l 979 586 l 967 736 l 692 736 l 635 424 l 829 424 l 878 521 l 899 521 l 856 286 l 835 286 l 822 382 l 628 382 l 565 42 l 878 42 l 953 204 l 974 204 l 936 0 l 404 0 l 408 21 l 497 46 l 543 297 l 303 297 l 104 39 l 192 21 l 188 0 l -21 0 m 335 339 l 550 339 l 618 708 l 335 339 m 688 882 l 842 1128 l 908 1128 q 894 1092 906 1107 q 865 1058 883 1076 l 701 882 l 688 882 z "},"ć":{"ha":822,"x_min":83,"x_max":747,"o":"m 403 -14 q 169 74 256 -14 q 83 311 83 161 q 114 492 83 406 q 202 647 144 579 q 342 754 260 715 q 531 793 425 793 q 655 776 610 793 q 739 735 700 758 l 714 561 l 693 561 l 672 699 q 506 750 607 750 q 313 693 392 750 q 194 542 235 636 q 154 333 154 447 q 224 101 154 183 q 424 19 293 19 q 503 28 468 19 q 569 56 539 38 l 653 214 l 674 214 l 635 44 q 535 1 588 17 q 403 -14 482 -14 m 526 882 l 681 1128 l 747 1128 q 733 1092 744 1107 q 704 1058 722 1076 l 540 882 l 526 882 z "},"ĉ":{"ha":822,"x_min":83,"x_max":739,"o":"m 403 -14 q 169 74 256 -14 q 83 311 83 161 q 114 492 83 406 q 202 647 144 579 q 342 754 260 715 q 531 793 425 793 q 655 776 610 793 q 739 735 700 758 l 714 561 l 693 561 l 672 699 q 506 750 607 750 q 313 693 392 750 q 194 542 235 636 q 154 333 154 447 q 224 101 154 183 q 424 19 293 19 q 503 28 468 19 q 569 56 539 38 l 653 214 l 674 214 l 635 44 q 535 1 588 17 q 403 -14 482 -14 m 354 882 l 563 1128 l 586 1128 l 711 882 l 697 882 l 563 1051 l 368 882 l 354 882 z "},"č":{"ha":822,"x_min":83,"x_max":753,"o":"m 403 -14 q 169 74 256 -14 q 83 311 83 161 q 114 492 83 406 q 202 647 144 579 q 342 754 260 715 q 531 793 425 793 q 655 776 610 793 q 739 735 700 758 l 714 561 l 693 561 l 672 699 q 506 750 607 750 q 313 693 392 750 q 194 542 235 636 q 154 333 154 447 q 224 101 154 183 q 424 19 293 19 q 503 28 468 19 q 569 56 539 38 l 653 214 l 674 214 l 635 44 q 535 1 588 17 q 403 -14 482 -14 m 524 882 l 396 1128 l 410 1128 l 543 958 l 739 1128 l 753 1128 l 547 882 l 524 882 z "},"ċ":{"ha":822,"x_min":83,"x_max":739,"o":"m 403 -14 q 169 74 256 -14 q 83 311 83 161 q 114 492 83 406 q 202 647 144 579 q 342 754 260 715 q 531 793 425 793 q 655 776 610 793 q 739 735 700 758 l 714 561 l 693 561 l 672 699 q 506 750 607 750 q 313 693 392 750 q 194 542 235 636 q 154 333 154 447 q 224 101 154 183 q 424 19 293 19 q 503 28 468 19 q 569 56 539 38 l 653 214 l 674 214 l 635 44 q 535 1 588 17 q 403 -14 482 -14 m 556 953 q 519 967 533 953 q 504 1004 504 982 q 519 1041 504 1026 q 556 1056 533 1056 q 592 1041 578 1056 q 607 1004 607 1026 q 592 967 607 982 q 556 953 578 953 z "},"ç":{"ha":822,"x_min":83,"x_max":739,"o":"m 403 -14 l 401 -14 l 350 -96 q 453 -139 417 -111 q 489 -217 489 -167 q 447 -301 489 -269 q 346 -333 406 -333 q 295 -326 321 -333 q 256 -306 269 -319 l 258 -292 l 263 -292 q 302 -309 282 -304 q 344 -314 322 -314 q 417 -293 389 -314 q 444 -232 444 -272 q 413 -169 444 -190 q 300 -132 381 -147 l 376 -12 q 162 82 240 -4 q 83 311 83 168 q 114 492 83 406 q 202 647 144 579 q 342 754 260 715 q 531 793 425 793 q 655 776 610 793 q 739 735 700 758 l 714 561 l 693 561 l 672 699 q 506 750 607 750 q 313 693 392 750 q 194 542 235 636 q 154 333 154 447 q 224 101 154 183 q 424 19 293 19 q 503 28 468 19 q 569 56 539 38 l 653 214 l 674 214 l 635 44 q 535 1 588 17 q 403 -14 482 -14 z "},"ḉ":{"ha":822,"x_min":83,"x_max":747,"o":"m 526 882 l 681 1128 l 747 1128 q 733 1092 744 1107 q 704 1058 722 1078 l 540 882 l 526 882 m 360 -333 q 309 -326 335 -333 q 269 -306 283 -319 l 272 -292 l 276 -292 q 316 -309 296 -304 q 358 -314 336 -314 q 431 -293 403 -314 q 458 -232 458 -272 q 426 -169 458 -190 q 314 -132 394 -147 l 389 -14 q 166 77 249 -10 q 83 311 83 164 q 114 492 83 406 q 202 647 144 579 q 342 754 260 715 q 531 793 425 793 q 655 776 610 793 q 739 735 700 758 l 714 561 l 693 561 l 672 699 q 506 750 607 750 q 313 693 392 750 q 194 542 235 636 q 154 333 154 447 q 224 101 154 183 q 424 19 293 19 q 503 28 468 19 q 569 56 539 38 l 653 214 l 674 214 l 635 44 q 540 3 590 18 q 415 -14 489 -12 l 364 -96 q 467 -139 431 -111 q 503 -217 503 -167 q 461 -301 503 -269 q 360 -333 419 -333 z "},"ď":{"ha":836,"x_min":14,"x_max":760,"o":"m 14 0 l 18 21 l 106 44 l 231 733 l 150 757 l 154 778 l 389 778 q 670 691 581 778 q 760 463 760 604 q 703 231 760 336 q 540 63 647 125 q 282 0 433 0 l 14 0 m 367 736 l 301 736 l 174 42 l 282 42 q 588 152 488 42 q 689 453 689 263 q 609 663 689 589 q 367 736 529 736 m 463 882 l 335 1128 l 349 1128 l 482 958 l 678 1128 l 692 1128 l 486 882 l 463 882 z "},"đ":{"ha":836,"x_min":14,"x_max":760,"o":"m 14 0 l 18 21 l 106 44 l 167 383 l 81 383 l 89 424 l 175 424 l 231 733 l 150 757 l 154 778 l 389 778 q 670 691 581 778 q 760 463 760 604 q 703 231 760 336 q 540 63 647 125 q 282 0 433 0 l 14 0 m 454 383 l 236 383 l 174 42 l 282 42 q 588 152 488 42 q 689 453 689 263 q 609 663 689 589 q 367 736 529 736 l 301 736 l 244 424 l 463 424 l 454 383 z "},"ḍ":{"ha":836,"x_min":14,"x_max":760,"o":"m 14 0 l 18 21 l 106 44 l 231 733 l 150 757 l 154 778 l 389 778 q 670 691 581 778 q 760 463 760 604 q 703 231 760 336 q 540 63 647 125 q 282 0 433 0 l 14 0 m 367 736 l 301 736 l 174 42 l 282 42 q 588 152 488 42 q 689 453 689 263 q 609 663 689 589 q 367 736 529 736 m 322 -262 q 285 -248 300 -262 q 271 -211 271 -233 q 285 -174 271 -189 q 322 -160 300 -160 q 359 -174 344 -160 q 374 -211 374 -189 q 359 -248 374 -233 q 322 -262 344 -262 z "},"ḏ":{"ha":836,"x_min":14,"x_max":760,"o":"m 14 0 l 18 21 l 106 44 l 231 733 l 150 757 l 154 778 l 389 778 q 670 691 581 778 q 760 463 760 604 q 703 231 760 336 q 540 63 647 125 q 282 0 433 0 l 14 0 m 367 736 l 301 736 l 174 42 l 282 42 q 588 152 488 42 q 689 453 689 263 q 609 663 689 589 q 367 736 529 736 m 151 -226 l 158 -187 l 493 -187 l 486 -226 l 151 -226 z "},"è":{"ha":675,"x_min":14,"x_max":644,"o":"m 14 0 l 18 21 l 107 46 l 232 732 l 150 757 l 154 778 l 644 778 l 610 586 l 589 586 l 576 736 l 301 736 l 244 424 l 439 424 l 488 521 l 508 521 l 465 286 l 444 286 l 432 382 l 238 382 l 175 42 l 488 42 l 563 204 l 583 204 l 546 0 l 14 0 m 438 882 l 275 1063 q 263 1128 251 1090 l 317 1128 l 451 882 l 438 882 z "},"é":{"ha":675,"x_min":14,"x_max":660,"o":"m 14 0 l 18 21 l 107 46 l 232 732 l 150 757 l 154 778 l 644 778 l 610 586 l 589 586 l 576 736 l 301 736 l 244 424 l 439 424 l 488 521 l 508 521 l 465 286 l 444 286 l 432 382 l 238 382 l 175 42 l 488 42 l 563 204 l 583 204 l 546 0 l 14 0 m 439 882 l 593 1128 l 660 1128 q 646 1092 657 1107 q 617 1058 635 1076 l 453 882 l 439 882 z "},"ê":{"ha":675,"x_min":14,"x_max":644,"o":"m 14 0 l 18 21 l 107 46 l 232 732 l 150 757 l 154 778 l 644 778 l 610 586 l 589 586 l 576 736 l 301 736 l 244 424 l 439 424 l 488 521 l 508 521 l 465 286 l 444 286 l 432 382 l 238 382 l 175 42 l 488 42 l 563 204 l 583 204 l 546 0 l 14 0 m 267 882 l 475 1128 l 499 1128 l 624 882 l 610 882 l 475 1051 l 281 882 l 267 882 z "},"ě":{"ha":675,"x_min":14,"x_max":665,"o":"m 14 0 l 18 21 l 107 46 l 232 732 l 150 757 l 154 778 l 644 778 l 610 586 l 589 586 l 576 736 l 301 736 l 244 424 l 439 424 l 488 521 l 508 521 l 465 286 l 444 286 l 432 382 l 238 382 l 175 42 l 488 42 l 563 204 l 583 204 l 546 0 l 14 0 m 436 882 l 308 1128 l 322 1128 l 456 958 l 651 1128 l 665 1128 l 460 882 l 436 882 z "},"ẽ":{"ha":675,"x_min":14,"x_max":663,"o":"m 14 0 l 18 21 l 107 46 l 232 732 l 150 757 l 154 778 l 644 778 l 610 586 l 589 586 l 576 736 l 301 736 l 244 424 l 439 424 l 488 521 l 508 521 l 465 286 l 444 286 l 432 382 l 238 382 l 175 42 l 488 42 l 563 204 l 583 204 l 546 0 l 14 0 m 267 918 q 314 1024 293 988 q 354 1076 335 1061 q 396 1090 374 1090 q 440 1071 421 1090 q 477 1026 460 1051 q 512 981 494 1000 q 549 961 529 961 q 597 994 575 961 q 649 1090 618 1026 l 663 1090 q 615 984 635 1021 q 575 933 594 947 q 533 918 556 918 q 489 938 508 918 q 452 983 469 957 q 417 1028 435 1008 q 381 1047 400 1047 q 333 1015 354 1047 q 281 918 313 982 l 267 918 z "},"ë":{"ha":675,"x_min":14,"x_max":644,"o":"m 14 0 l 18 21 l 107 46 l 232 732 l 150 757 l 154 778 l 644 778 l 610 586 l 589 586 l 576 736 l 301 736 l 244 424 l 439 424 l 488 521 l 508 521 l 465 286 l 444 286 l 432 382 l 238 382 l 175 42 l 488 42 l 563 204 l 583 204 l 546 0 l 14 0 m 350 951 q 313 966 328 951 q 299 1003 299 981 q 313 1040 299 1025 q 350 1054 328 1054 q 387 1040 372 1054 q 401 1003 401 1025 q 387 966 401 981 q 350 951 372 951 m 578 951 q 541 966 556 951 q 526 1003 526 981 q 541 1040 526 1025 q 578 1054 556 1054 q 615 1040 600 1054 q 629 1003 629 1025 q 615 966 629 981 q 578 951 600 951 z "},"ē":{"ha":675,"x_min":14,"x_max":644,"o":"m 14 0 l 18 21 l 107 46 l 232 732 l 150 757 l 154 778 l 644 778 l 610 586 l 589 586 l 576 736 l 301 736 l 244 424 l 439 424 l 488 521 l 508 521 l 465 286 l 444 286 l 432 382 l 238 382 l 175 42 l 488 42 l 563 204 l 583 204 l 546 0 l 14 0 m 293 983 l 300 1022 l 635 1022 l 628 983 l 293 983 z "},"ĕ":{"ha":675,"x_min":14,"x_max":663,"o":"m 14 0 l 18 21 l 107 46 l 232 732 l 150 757 l 154 778 l 644 778 l 610 586 l 589 586 l 576 736 l 301 736 l 244 424 l 439 424 l 488 521 l 508 521 l 465 286 l 444 286 l 432 382 l 238 382 l 175 42 l 488 42 l 563 204 l 583 204 l 546 0 l 14 0 m 447 896 q 336 957 365 896 q 306 1128 307 1018 l 319 1128 q 347 1011 331 1051 q 390 957 364 971 q 457 943 415 943 q 528 958 497 943 q 587 1014 558 974 q 649 1128 615 1054 l 663 1128 q 571 953 619 1010 q 447 896 522 896 z "},"ė":{"ha":675,"x_min":14,"x_max":644,"o":"m 14 0 l 18 21 l 107 46 l 232 732 l 150 757 l 154 778 l 644 778 l 610 586 l 589 586 l 576 736 l 301 736 l 244 424 l 439 424 l 488 521 l 508 521 l 465 286 l 444 286 l 432 382 l 238 382 l 175 42 l 488 42 l 563 204 l 583 204 l 546 0 l 14 0 m 468 953 q 431 967 446 953 q 417 1004 417 982 q 431 1041 417 1026 q 468 1056 446 1056 q 505 1041 490 1056 q 519 1004 519 1026 q 505 967 519 982 q 468 953 490 953 z "},"ę":{"ha":675,"x_min":14,"x_max":644,"o":"m 14 0 l 18 21 l 107 46 l 232 732 l 150 757 l 154 778 l 644 778 l 610 586 l 589 586 l 576 736 l 301 736 l 244 424 l 439 424 l 488 521 l 508 521 l 465 286 l 444 286 l 432 382 l 238 382 l 175 42 l 488 42 l 563 204 l 583 204 l 546 0 l 486 0 q 380 -115 415 -65 q 344 -224 344 -164 q 367 -283 344 -264 q 431 -301 390 -301 q 471 -295 450 -301 q 508 -278 492 -289 l 513 -278 l 510 -293 q 468 -321 494 -308 q 406 -333 442 -333 q 324 -306 356 -333 q 293 -232 293 -279 q 343 -112 293 -171 q 458 0 393 -53 l 14 0 z "},"ẹ":{"ha":675,"x_min":14,"x_max":644,"o":"m 14 0 l 18 21 l 107 46 l 232 732 l 150 757 l 154 778 l 644 778 l 610 586 l 589 586 l 576 736 l 301 736 l 244 424 l 439 424 l 488 521 l 508 521 l 465 286 l 444 286 l 432 382 l 238 382 l 175 42 l 488 42 l 563 204 l 583 204 l 546 0 l 14 0 m 281 -262 q 244 -248 258 -262 q 229 -211 229 -233 q 244 -174 229 -189 q 281 -160 258 -160 q 317 -174 303 -160 q 332 -211 332 -189 q 317 -248 332 -233 q 281 -262 303 -262 z "},"ȅ":{"ha":675,"x_min":14,"x_max":644,"o":"m 14 0 l 18 21 l 107 46 l 232 732 l 150 757 l 154 778 l 644 778 l 610 586 l 589 586 l 576 736 l 301 736 l 244 424 l 439 424 l 488 521 l 508 521 l 465 286 l 444 286 l 432 382 l 238 382 l 175 42 l 488 42 l 563 204 l 583 204 l 546 0 l 14 0 m 511 882 l 385 1040 q 356 1088 363 1068 q 353 1128 350 1107 l 406 1128 l 525 882 l 511 882 m 354 882 l 228 1040 q 199 1088 206 1068 q 196 1128 193 1107 l 249 1128 l 368 882 l 354 882 z "},"ȇ":{"ha":675,"x_min":14,"x_max":644,"o":"m 14 0 l 18 21 l 107 46 l 232 732 l 150 757 l 154 778 l 644 778 l 610 586 l 589 586 l 576 736 l 301 736 l 244 424 l 439 424 l 488 521 l 508 521 l 465 286 l 444 286 l 432 382 l 238 382 l 175 42 l 488 42 l 563 204 l 583 204 l 546 0 l 14 0 m 263 896 q 354 1071 306 1014 q 478 1128 403 1128 q 589 1067 560 1128 q 619 896 618 1006 l 606 896 q 578 1013 594 974 q 535 1067 561 1053 q 468 1081 510 1081 q 397 1065 428 1081 q 338 1010 367 1050 q 276 896 310 969 l 263 896 z "},"ế":{"ha":675,"x_min":14,"x_max":789,"o":"m 14 0 l 18 21 l 107 46 l 232 732 l 150 757 l 154 778 l 644 778 l 610 586 l 589 586 l 576 736 l 301 736 l 244 424 l 439 424 l 488 521 l 508 521 l 465 286 l 444 286 l 432 382 l 238 382 l 175 42 l 488 42 l 563 204 l 583 204 l 546 0 l 14 0 m 619 1031 l 722 1229 l 789 1229 q 774 1194 786 1208 q 746 1160 763 1179 l 633 1031 l 619 1031 m 267 882 l 475 1128 l 499 1128 l 624 882 l 610 882 l 475 1051 l 281 882 l 267 882 z "},"ệ":{"ha":675,"x_min":14,"x_max":644,"o":"m 14 0 l 18 21 l 107 46 l 232 732 l 150 757 l 154 778 l 644 778 l 610 586 l 589 586 l 576 736 l 301 736 l 244 424 l 439 424 l 488 521 l 508 521 l 465 286 l 444 286 l 432 382 l 238 382 l 175 42 l 488 42 l 563 204 l 583 204 l 546 0 l 14 0 m 267 882 l 475 1128 l 499 1128 l 624 882 l 610 882 l 475 1051 l 281 882 l 267 882 m 281 -262 q 244 -248 258 -262 q 229 -211 229 -233 q 244 -174 229 -189 q 281 -160 258 -160 q 317 -174 303 -160 q 332 -211 332 -189 q 317 -248 332 -233 q 281 -262 303 -262 z "},"ề":{"ha":675,"x_min":14,"x_max":644,"o":"m 14 0 l 18 21 l 107 46 l 232 732 l 150 757 l 154 778 l 644 778 l 610 586 l 589 586 l 576 736 l 301 736 l 244 424 l 439 424 l 488 521 l 508 521 l 465 286 l 444 286 l 432 382 l 238 382 l 175 42 l 488 42 l 563 204 l 583 204 l 546 0 l 14 0 m 282 1031 l 168 1160 q 142 1191 153 1176 q 140 1229 132 1206 l 193 1229 l 296 1031 l 282 1031 m 267 882 l 475 1128 l 499 1128 l 624 882 l 610 882 l 475 1051 l 281 882 l 267 882 z "},"ể":{"ha":675,"x_min":14,"x_max":644,"o":"m 14 0 l 18 21 l 107 46 l 232 732 l 150 757 l 154 778 l 644 778 l 610 586 l 589 586 l 576 736 l 301 736 l 244 424 l 439 424 l 488 521 l 508 521 l 465 286 l 444 286 l 432 382 l 238 382 l 175 42 l 488 42 l 563 204 l 583 204 l 546 0 l 14 0 z "},"ễ":{"ha":675,"x_min":14,"x_max":706,"o":"m 14 0 l 18 21 l 107 46 l 232 732 l 150 757 l 154 778 l 644 778 l 610 586 l 589 586 l 576 736 l 301 736 l 244 424 l 439 424 l 488 521 l 508 521 l 465 286 l 444 286 l 432 382 l 238 382 l 175 42 l 488 42 l 563 204 l 583 204 l 546 0 l 14 0 z "},"ẻ":{"ha":675,"x_min":14,"x_max":644,"o":"m 14 0 l 18 21 l 107 46 l 232 732 l 150 757 l 154 778 l 644 778 l 610 586 l 589 586 l 576 736 l 301 736 l 244 424 l 439 424 l 488 521 l 508 521 l 465 286 l 444 286 l 432 382 l 238 382 l 175 42 l 488 42 l 563 204 l 583 204 l 546 0 l 14 0 m 381 896 l 381 897 q 483 939 449 915 q 517 1004 517 963 q 492 1060 517 1038 q 408 1090 468 1082 l 422 1128 q 526 1090 496 1121 q 556 1022 556 1058 q 386 888 556 925 l 381 896 z "},"ḕ":{"ha":675,"x_min":14,"x_max":644,"o":"m 14 0 l 18 21 l 107 46 l 232 732 l 150 757 l 154 778 l 644 778 l 610 586 l 589 586 l 576 736 l 301 736 l 244 424 l 439 424 l 488 521 l 508 521 l 465 286 l 444 286 l 432 382 l 238 382 l 175 42 l 488 42 l 563 204 l 583 204 l 546 0 l 14 0 z "},"ḗ":{"ha":675,"x_min":14,"x_max":688,"o":"m 14 0 l 18 21 l 107 46 l 232 732 l 150 757 l 154 778 l 644 778 l 610 586 l 589 586 l 576 736 l 301 736 l 244 424 l 439 424 l 488 521 l 508 521 l 465 286 l 444 286 l 432 382 l 238 382 l 175 42 l 488 42 l 563 204 l 583 204 l 546 0 l 14 0 z "},"ḝ":{"ha":675,"x_min":14,"x_max":663,"o":"m 447 896 q 337 957 365 896 q 306 1128 308 1018 l 319 1128 q 347 1010 331 1050 q 390 957 364 971 q 457 943 417 943 q 528 958 497 943 q 587 1014 558 974 q 649 1128 615 1054 l 663 1128 q 571 953 619 1010 q 447 896 522 896 m 14 0 l 18 21 l 107 46 l 232 732 l 150 757 l 154 778 l 644 778 l 610 586 l 589 586 l 576 736 l 301 736 l 244 424 l 439 424 l 488 521 l 508 521 l 465 286 l 444 286 l 432 382 l 238 382 l 175 42 l 488 42 l 563 204 l 583 204 l 546 0 l 329 0 l 268 -96 q 371 -139 335 -111 q 407 -217 407 -167 q 365 -301 407 -269 q 264 -333 324 -333 q 214 -326 239 -333 q 174 -306 189 -319 l 176 -292 l 181 -292 q 220 -309 200 -304 q 263 -314 240 -314 q 334 -293 306 -314 q 363 -232 363 -272 q 331 -169 363 -190 q 218 -132 300 -147 l 303 0 l 14 0 z "},"ĝ":{"ha":860,"x_min":83,"x_max":767,"o":"m 383 -14 q 224 28 292 -14 q 120 142 157 69 q 83 306 83 214 q 114 487 83 400 q 201 643 144 574 q 339 753 258 713 q 519 793 419 793 q 656 776 606 793 q 749 735 707 760 l 722 561 l 701 561 l 676 697 q 604 738 644 725 q 508 750 564 750 q 315 693 394 750 q 195 542 236 636 q 154 335 154 447 q 224 107 154 192 q 422 22 293 22 q 490 30 456 22 q 564 54 525 38 l 607 299 l 507 319 l 511 340 l 767 340 l 764 319 l 676 299 l 633 64 q 522 6 586 25 q 383 -14 458 -14 m 353 882 l 561 1128 l 585 1128 l 710 882 l 696 882 l 561 1051 l 367 882 l 353 882 z "},"ğ":{"ha":860,"x_min":83,"x_max":767,"o":"m 383 -14 q 224 28 292 -14 q 120 142 157 69 q 83 306 83 214 q 114 487 83 400 q 201 643 144 574 q 339 753 258 713 q 519 793 419 793 q 656 776 606 793 q 749 735 707 760 l 722 561 l 701 561 l 676 697 q 604 738 644 725 q 508 750 564 750 q 315 693 394 750 q 195 542 236 636 q 154 335 154 447 q 224 107 154 192 q 422 22 293 22 q 490 30 456 22 q 564 54 525 38 l 607 299 l 507 319 l 511 340 l 767 340 l 764 319 l 676 299 l 633 64 q 522 6 586 25 q 383 -14 458 -14 m 533 896 q 422 957 451 896 q 392 1128 393 1018 l 406 1128 q 433 1011 417 1051 q 476 957 450 971 q 543 943 501 943 q 614 958 583 943 q 673 1014 644 974 q 735 1128 701 1054 l 749 1128 q 657 953 706 1010 q 533 896 608 896 z "},"ġ":{"ha":860,"x_min":83,"x_max":767,"o":"m 383 -14 q 224 28 292 -14 q 120 142 157 69 q 83 306 83 214 q 114 487 83 400 q 201 643 144 574 q 339 753 258 713 q 519 793 419 793 q 656 776 606 793 q 749 735 707 760 l 722 561 l 701 561 l 676 697 q 604 738 644 725 q 508 750 564 750 q 315 693 394 750 q 195 542 236 636 q 154 335 154 447 q 224 107 154 192 q 422 22 293 22 q 490 30 456 22 q 564 54 525 38 l 607 299 l 507 319 l 511 340 l 767 340 l 764 319 l 676 299 l 633 64 q 522 6 586 25 q 383 -14 458 -14 m 554 953 q 517 967 532 953 q 503 1004 503 982 q 517 1041 503 1026 q 554 1056 532 1056 q 591 1041 576 1056 q 606 1004 606 1026 q 591 967 606 982 q 554 953 576 953 z "},"ģ":{"ha":860,"x_min":83,"x_max":767,"o":"m 383 -14 q 224 28 292 -14 q 120 142 157 69 q 83 306 83 214 q 114 487 83 400 q 201 643 144 574 q 339 753 258 713 q 519 793 419 793 q 656 776 606 793 q 749 735 707 760 l 722 561 l 701 561 l 676 697 q 604 738 644 725 q 508 750 564 750 q 315 693 394 750 q 195 542 236 636 q 154 335 154 447 q 224 107 154 192 q 422 22 293 22 q 490 30 456 22 q 564 54 525 38 l 607 299 l 507 319 l 511 340 l 767 340 l 764 319 l 676 299 l 633 64 q 522 6 586 25 q 383 -14 458 -14 m 578 901 q 481 928 517 903 q 446 1001 446 954 q 488 1078 446 1050 q 594 1107 529 1107 q 617 1106 604 1107 q 640 1103 631 1104 l 636 1089 q 617 1091 626 1090 q 596 1092 607 1092 q 524 1073 554 1092 q 493 1014 493 1054 q 525 960 493 975 q 626 944 557 944 l 619 922 q 608 906 615 910 q 578 901 601 901 z "},"ǧ":{"ha":860,"x_min":83,"x_max":767,"o":"m 383 -14 q 224 28 292 -14 q 120 142 157 69 q 83 306 83 214 q 114 487 83 400 q 201 643 144 574 q 339 753 258 713 q 519 793 419 793 q 656 776 606 793 q 749 735 707 760 l 722 561 l 701 561 l 676 697 q 604 738 644 725 q 508 750 564 750 q 315 693 394 750 q 195 542 236 636 q 154 335 154 447 q 224 107 154 192 q 422 22 293 22 q 490 30 456 22 q 564 54 525 38 l 607 299 l 507 319 l 511 340 l 767 340 l 764 319 l 676 299 l 633 64 q 522 6 586 25 q 383 -14 458 -14 m 522 882 l 394 1128 l 408 1128 l 542 958 l 738 1128 l 751 1128 l 546 882 l 522 882 z "},"ḡ":{"ha":860,"x_min":83,"x_max":767,"o":"m 383 -14 q 224 28 292 -14 q 120 142 157 69 q 83 306 83 214 q 114 487 83 400 q 201 643 144 574 q 339 753 258 713 q 519 793 419 793 q 656 776 606 793 q 749 735 707 760 l 722 561 l 701 561 l 676 697 q 604 738 644 725 q 508 750 564 750 q 315 693 394 750 q 195 542 236 636 q 154 335 154 447 q 224 107 154 192 q 422 22 293 22 q 490 30 456 22 q 564 54 525 38 l 607 299 l 507 319 l 511 340 l 767 340 l 764 319 l 676 299 l 633 64 q 522 6 586 25 q 383 -14 458 -14 m 379 983 l 386 1022 l 721 1022 l 714 983 l 379 983 z "},"ĥ":{"ha":882,"x_min":14,"x_max":868,"o":"m 14 0 l 18 21 l 104 46 l 229 732 l 139 757 l 143 778 l 393 778 l 389 757 l 297 732 l 242 426 l 650 426 l 706 732 l 613 757 l 618 778 l 868 778 l 864 757 l 774 732 l 650 46 l 743 21 l 739 0 l 488 0 l 492 21 l 581 46 l 642 385 l 235 385 l 174 46 l 269 21 l 265 0 l 14 0 m 344 882 l 553 1128 l 576 1128 l 701 882 l 688 882 l 553 1051 l 358 882 l 344 882 z "},"ħ":{"ha":882,"x_min":14,"x_max":868,"o":"m 14 0 l 18 21 l 104 46 l 200 575 l 110 575 l 118 615 l 208 615 l 229 732 l 139 757 l 143 778 l 393 778 l 389 757 l 297 732 l 276 615 l 685 615 l 706 732 l 613 757 l 618 778 l 868 778 l 864 757 l 774 732 l 753 615 l 838 615 l 829 575 l 746 575 l 650 46 l 743 21 l 739 0 l 488 0 l 492 21 l 581 46 l 642 385 l 235 385 l 174 46 l 269 21 l 265 0 l 14 0 m 242 426 l 650 426 l 676 575 l 269 575 l 242 426 z "},"ḥ":{"ha":882,"x_min":14,"x_max":868,"o":"m 14 0 l 18 21 l 104 46 l 229 732 l 139 757 l 143 778 l 393 778 l 389 757 l 297 732 l 242 426 l 650 426 l 706 732 l 613 757 l 618 778 l 868 778 l 864 757 l 774 732 l 650 46 l 743 21 l 739 0 l 488 0 l 492 21 l 581 46 l 642 385 l 235 385 l 174 46 l 269 21 l 265 0 l 14 0 m 342 -262 q 305 -248 319 -262 q 290 -211 290 -233 q 305 -174 290 -189 q 342 -160 319 -160 q 378 -174 364 -160 q 393 -211 393 -189 q 378 -248 393 -233 q 342 -262 364 -262 z "},"ḫ":{"ha":882,"x_min":14,"x_max":868,"o":"m 14 0 l 18 21 l 104 46 l 229 732 l 139 757 l 143 778 l 393 778 l 389 757 l 297 732 l 242 426 l 650 426 l 706 732 l 613 757 l 618 778 l 868 778 l 864 757 l 774 732 l 650 46 l 743 21 l 739 0 l 488 0 l 492 21 l 581 46 l 642 385 l 235 385 l 174 46 l 269 21 l 265 0 l 14 0 m 324 -314 q 213 -253 242 -314 q 182 -82 183 -192 l 196 -82 q 224 -199 207 -158 q 266 -253 240 -239 q 333 -267 292 -267 q 404 -251 374 -267 q 463 -196 435 -236 q 525 -82 492 -156 l 539 -82 q 447 -257 496 -200 q 324 -314 399 -314 z "},"ì":{"ha":399,"x_min":14,"x_max":385,"o":"m 14 0 l 18 21 l 103 46 l 225 732 l 146 757 l 150 778 l 385 778 l 381 757 l 293 732 l 172 46 l 251 21 l 247 0 l 14 0 m 278 882 l 115 1063 q 103 1128 92 1090 l 157 1128 l 292 882 l 278 882 z "},"í":{"ha":399,"x_min":14,"x_max":500,"o":"m 14 0 l 18 21 l 103 46 l 225 732 l 146 757 l 150 778 l 385 778 l 381 757 l 293 732 l 172 46 l 251 21 l 247 0 l 14 0 m 279 882 l 433 1128 l 500 1128 q 486 1092 497 1107 q 457 1058 475 1076 l 293 882 l 279 882 z "},"î":{"ha":399,"x_min":14,"x_max":464,"o":"m 14 0 l 18 21 l 103 46 l 225 732 l 146 757 l 150 778 l 385 778 l 381 757 l 293 732 l 172 46 l 251 21 l 247 0 l 14 0 m 107 882 l 315 1128 l 339 1128 l 464 882 l 450 882 l 315 1051 l 121 882 l 107 882 z "},"ĩ":{"ha":399,"x_min":14,"x_max":503,"o":"m 14 0 l 18 21 l 103 46 l 225 732 l 146 757 l 150 778 l 385 778 l 381 757 l 293 732 l 172 46 l 251 21 l 247 0 l 14 0 m 107 918 q 154 1024 133 988 q 194 1076 175 1061 q 236 1090 214 1090 q 281 1071 261 1090 q 317 1026 300 1051 q 352 981 335 1000 q 389 961 369 961 q 437 994 415 961 q 489 1090 458 1026 l 503 1090 q 455 984 475 1021 q 415 933 435 947 q 374 918 396 918 q 329 938 349 918 q 292 983 310 957 q 258 1028 275 1008 q 221 1047 240 1047 q 174 1015 194 1047 q 121 918 153 982 l 107 918 z "},"ï":{"ha":399,"x_min":14,"x_max":469,"o":"m 14 0 l 18 21 l 103 46 l 225 732 l 146 757 l 150 778 l 385 778 l 381 757 l 293 732 l 172 46 l 251 21 l 247 0 l 14 0 m 190 951 q 153 966 168 951 q 139 1003 139 981 q 153 1040 139 1025 q 190 1054 168 1054 q 227 1040 213 1054 q 242 1003 242 1025 q 227 966 242 981 q 190 951 213 951 m 418 951 q 381 966 396 951 q 367 1003 367 981 q 381 1040 367 1025 q 418 1054 396 1054 q 455 1040 440 1054 q 469 1003 469 1025 q 455 966 469 981 q 418 951 440 951 z "},"ī":{"ha":399,"x_min":14,"x_max":475,"o":"m 14 0 l 18 21 l 103 46 l 225 732 l 146 757 l 150 778 l 385 778 l 381 757 l 293 732 l 172 46 l 251 21 l 247 0 l 14 0 m 133 983 l 140 1022 l 475 1022 l 468 983 l 133 983 z "},"ĭ":{"ha":399,"x_min":14,"x_max":503,"o":"m 14 0 l 18 21 l 103 46 l 225 732 l 146 757 l 150 778 l 385 778 l 381 757 l 293 732 l 172 46 l 251 21 l 247 0 l 14 0 m 288 896 q 176 957 206 896 q 146 1128 147 1018 l 160 1128 q 188 1011 171 1051 q 230 957 204 971 q 297 943 256 943 q 368 958 338 943 q 427 1014 399 974 q 489 1128 456 1054 l 503 1128 q 411 953 460 1010 q 288 896 363 896 z "},"į":{"ha":399,"x_min":-31,"x_max":385,"o":"m 14 0 l 18 21 l 103 46 l 225 732 l 146 757 l 150 778 l 385 778 l 381 757 l 293 732 l 172 46 l 251 21 l 247 0 l 163 0 q 56 -115 92 -65 q 21 -224 21 -164 q 44 -283 21 -264 q 107 -301 67 -301 q 147 -295 125 -301 q 185 -278 168 -289 l 189 -278 l 186 -293 q 144 -321 171 -308 q 82 -333 117 -333 q 1 -306 32 -333 q -31 -232 -31 -279 q 19 -112 -31 -171 q 135 0 69 -53 l 14 0 z "},"ị":{"ha":399,"x_min":14,"x_max":385,"o":"m 14 0 l 18 21 l 103 46 l 225 732 l 146 757 l 150 778 l 385 778 l 381 757 l 293 732 l 172 46 l 251 21 l 247 0 l 14 0 m 92 -262 q 55 -248 69 -262 q 40 -211 40 -233 q 55 -174 40 -189 q 92 -160 69 -160 q 128 -174 114 -160 q 143 -211 143 -189 q 128 -248 143 -233 q 92 -262 114 -262 z "},"ȉ":{"ha":399,"x_min":14,"x_max":385,"o":"m 14 0 l 18 21 l 103 46 l 225 732 l 146 757 l 150 778 l 385 778 l 381 757 l 293 732 l 172 46 l 251 21 l 247 0 l 14 0 m 351 882 l 225 1040 q 197 1088 203 1068 q 193 1128 190 1107 l 246 1128 l 365 882 l 351 882 m 194 882 l 68 1040 q 40 1088 46 1068 q 36 1128 33 1107 l 89 1128 l 208 882 l 194 882 z "},"ȋ":{"ha":399,"x_min":14,"x_max":460,"o":"m 14 0 l 18 21 l 103 46 l 225 732 l 146 757 l 150 778 l 385 778 l 381 757 l 293 732 l 172 46 l 251 21 l 247 0 l 14 0 m 103 896 q 194 1071 146 1014 q 318 1128 243 1128 q 429 1067 400 1128 q 460 896 458 1006 l 446 896 q 418 1013 435 974 q 376 1067 401 1053 q 308 1081 350 1081 q 238 1065 268 1081 q 178 1010 207 1050 q 117 896 150 969 l 103 896 z "},"ỉ":{"ha":399,"x_min":14,"x_max":396,"o":"m 14 0 l 18 21 l 103 46 l 225 732 l 146 757 l 150 778 l 385 778 l 381 757 l 293 732 l 172 46 l 251 21 l 247 0 l 14 0 m 221 896 l 221 897 q 323 939 289 915 q 357 1004 357 963 q 333 1060 357 1038 q 249 1090 308 1082 l 263 1128 q 366 1090 336 1121 q 396 1022 396 1058 q 226 888 396 925 l 221 896 z "},"ḯ":{"ha":399,"x_min":14,"x_max":529,"o":"m 14 0 l 18 21 l 103 46 l 225 732 l 146 757 l 150 778 l 385 778 l 381 757 l 293 732 l 172 46 l 251 21 l 247 0 l 14 0 z "},"ĳ":{"ha":786,"x_min":14,"x_max":779,"o":"m 14 0 l 18 21 l 103 46 l 225 732 l 146 757 l 150 778 l 385 778 l 381 757 l 293 732 l 172 46 l 251 21 l 247 0 l 14 0 m 347 -204 q 321 -194 332 -204 q 317 -165 310 -183 l 335 -115 l 342 -115 q 363 -122 356 -119 q 382 -124 371 -124 q 453 -85 424 -124 q 501 61 482 -46 l 621 732 l 542 757 l 546 778 l 779 778 l 775 757 l 689 732 l 604 250 q 547 12 578 103 q 468 -126 517 -79 q 413 -177 433 -161 q 379 -199 393 -193 q 347 -204 365 -204 z "},"ĵ":{"ha":388,"x_min":-89,"x_max":463,"o":"m -51 -204 q -78 -194 -67 -204 q -82 -165 -89 -183 l -64 -115 l -57 -115 q -35 -122 -43 -119 q -17 -124 -28 -124 q 54 -85 25 -124 q 103 61 83 -46 l 222 732 l 143 757 l 147 778 l 381 778 l 376 757 l 290 732 l 206 250 q 149 12 179 103 q 69 -126 118 -79 q 15 -177 35 -161 q -19 -199 -6 -193 q -51 -204 -33 -204 m 106 882 l 314 1128 l 338 1128 l 463 882 l 449 882 l 314 1051 l 119 882 l 106 882 z "},"ķ":{"ha":776,"x_min":14,"x_max":754,"o":"m 14 0 l 18 21 l 104 46 l 229 732 l 149 757 l 153 778 l 392 778 l 388 757 l 297 732 l 238 401 l 600 732 l 515 757 l 519 778 l 754 778 l 750 757 l 678 739 l 307 415 l 614 39 l 685 21 l 681 0 l 553 0 l 236 396 l 174 46 l 268 21 l 264 0 l 14 0 m 279 -332 q 256 -331 269 -332 q 233 -328 243 -331 l 238 -314 q 257 -316 247 -315 q 278 -317 267 -317 q 350 -298 319 -317 q 381 -239 381 -279 q 349 -185 381 -200 q 247 -169 317 -169 l 254 -147 q 265 -131 258 -135 q 296 -126 272 -126 q 392 -153 357 -128 q 428 -226 428 -179 q 386 -303 428 -275 q 279 -332 344 -332 z "},"ĺ":{"ha":683,"x_min":14,"x_max":576,"o":"m 14 0 l 18 21 l 104 46 l 229 732 l 149 757 l 153 778 l 404 778 l 399 757 l 297 732 l 174 42 l 465 42 l 556 246 l 576 246 l 532 0 l 14 0 m 283 882 l 438 1128 l 504 1128 q 490 1092 501 1107 q 461 1058 479 1076 l 297 882 l 283 882 z "},"ľ":{"ha":683,"x_min":14,"x_max":586,"o":"m 14 0 l 18 21 l 104 46 l 229 732 l 149 757 l 153 778 l 404 778 l 399 757 l 297 732 l 174 42 l 465 42 l 556 246 l 576 246 l 532 0 l 14 0 m 432 518 l 522 778 l 583 778 q 578 737 586 756 q 553 689 571 718 l 446 518 l 432 518 z "},"ļ":{"ha":683,"x_min":14,"x_max":576,"o":"m 14 0 l 18 21 l 104 46 l 229 732 l 149 757 l 153 778 l 404 778 l 399 757 l 297 732 l 174 42 l 465 42 l 556 246 l 576 246 l 532 0 l 14 0 m 231 -332 q 208 -331 221 -332 q 185 -328 194 -331 l 189 -314 q 208 -316 199 -315 q 229 -317 218 -317 q 301 -298 271 -317 q 332 -239 332 -279 q 300 -185 332 -200 q 199 -169 268 -169 l 206 -147 q 217 -131 210 -135 q 247 -126 224 -126 q 344 -153 308 -128 q 379 -226 379 -179 q 338 -303 379 -275 q 231 -332 296 -332 z "},"ł":{"ha":683,"x_min":14,"x_max":576,"o":"m 14 0 l 18 21 l 104 46 l 156 331 l 63 276 l 72 321 l 164 374 l 229 732 l 149 757 l 153 778 l 404 778 l 399 757 l 297 732 l 239 408 l 483 542 l 474 497 l 232 364 l 174 42 l 465 42 l 556 246 l 576 246 l 532 0 l 14 0 z "},"ŀ":{"ha":683,"x_min":14,"x_max":601,"o":"m 14 0 l 18 21 l 104 46 l 229 732 l 149 757 l 153 778 l 404 778 l 399 757 l 297 732 l 174 42 l 465 42 l 556 246 l 576 246 l 532 0 l 14 0 m 550 350 q 513 365 528 350 q 499 401 499 379 q 513 438 499 424 q 550 453 528 453 q 587 438 572 453 q 601 401 601 424 q 587 365 601 379 q 550 350 572 350 z "},"ḷ":{"ha":683,"x_min":14,"x_max":576,"o":"m 14 0 l 18 21 l 104 46 l 229 732 l 149 757 l 153 778 l 404 778 l 399 757 l 297 732 l 174 42 l 465 42 l 556 246 l 576 246 l 532 0 l 14 0 m 274 -262 q 237 -248 251 -262 q 222 -211 222 -233 q 237 -174 222 -189 q 274 -160 251 -160 q 310 -174 296 -160 q 325 -211 325 -189 q 310 -248 325 -233 q 274 -262 296 -262 z "},"ḻ":{"ha":683,"x_min":14,"x_max":576,"o":"m 14 0 l 18 21 l 104 46 l 229 732 l 149 757 l 153 778 l 404 778 l 399 757 l 297 732 l 174 42 l 465 42 l 556 246 l 576 246 l 532 0 l 14 0 m 103 -226 l 110 -187 l 444 -187 l 438 -226 l 103 -226 z "},"ṃ":{"ha":1051,"x_min":14,"x_max":1038,"o":"m 14 0 l 18 21 l 107 44 l 253 732 l 164 757 l 168 778 l 344 778 l 489 117 l 863 778 l 1038 778 l 1033 757 l 938 732 l 850 44 l 922 21 l 918 0 l 690 0 l 694 21 l 779 44 l 867 696 l 465 -6 l 442 -6 l 288 704 l 157 44 l 240 21 l 236 0 l 14 0 m 419 -264 q 383 -249 397 -264 q 368 -212 368 -235 q 383 -176 368 -190 q 419 -161 397 -161 q 456 -176 442 -161 q 471 -212 471 -190 q 456 -249 471 -235 q 419 -264 442 -264 z "},"ń":{"ha":874,"x_min":14,"x_max":860,"o":"m 14 0 l 18 21 l 106 44 l 232 735 l 136 757 l 140 778 l 299 778 l 619 136 l 726 733 l 624 757 l 628 778 l 860 778 l 856 757 l 775 733 l 642 -6 l 614 -6 l 268 681 l 154 49 l 247 21 l 243 0 l 14 0 m 529 882 l 683 1128 l 750 1128 q 736 1092 747 1107 q 707 1058 725 1076 l 543 882 l 529 882 z "},"ň":{"ha":874,"x_min":14,"x_max":860,"o":"m 14 0 l 18 21 l 106 44 l 232 735 l 136 757 l 140 778 l 299 778 l 619 136 l 726 733 l 624 757 l 628 778 l 860 778 l 856 757 l 775 733 l 642 -6 l 614 -6 l 268 681 l 154 49 l 247 21 l 243 0 l 14 0 m 526 882 l 399 1128 l 413 1128 l 546 958 l 742 1128 l 756 1128 l 550 882 l 526 882 z "},"ñ":{"ha":874,"x_min":14,"x_max":860,"o":"m 14 0 l 18 21 l 106 44 l 232 735 l 136 757 l 140 778 l 299 778 l 619 136 l 726 733 l 624 757 l 628 778 l 860 778 l 856 757 l 775 733 l 642 -6 l 614 -6 l 268 681 l 154 49 l 247 21 l 243 0 l 14 0 m 357 918 q 404 1024 383 988 q 444 1076 425 1061 q 486 1090 464 1090 q 531 1071 511 1090 q 567 1026 550 1051 q 602 981 585 1000 q 639 961 619 961 q 687 994 665 961 q 739 1090 708 1026 l 753 1090 q 705 984 725 1021 q 665 933 685 947 q 624 918 646 918 q 579 938 599 918 q 542 983 560 957 q 508 1028 525 1008 q 471 1047 490 1047 q 424 1015 444 1047 q 371 918 403 982 l 357 918 z "},"ņ":{"ha":874,"x_min":14,"x_max":860,"o":"m 14 0 l 18 21 l 106 44 l 232 735 l 136 757 l 140 778 l 299 778 l 619 136 l 726 733 l 624 757 l 628 778 l 860 778 l 856 757 l 775 733 l 642 -6 l 614 -6 l 268 681 l 154 49 l 247 21 l 243 0 l 14 0 m 313 -333 q 290 -333 303 -333 q 267 -329 276 -332 l 271 -315 q 290 -317 281 -317 q 311 -318 300 -318 q 383 -299 353 -318 q 414 -240 414 -281 q 382 -186 414 -201 q 281 -171 350 -171 l 288 -149 q 299 -132 292 -136 q 329 -128 306 -128 q 426 -155 390 -129 q 461 -228 461 -181 q 419 -305 461 -276 q 313 -333 378 -333 z "},"ṅ":{"ha":874,"x_min":14,"x_max":860,"o":"m 14 0 l 18 21 l 106 44 l 232 735 l 136 757 l 140 778 l 299 778 l 619 136 l 726 733 l 624 757 l 628 778 l 860 778 l 856 757 l 775 733 l 642 -6 l 614 -6 l 268 681 l 154 49 l 247 21 l 243 0 l 14 0 m 558 953 q 522 967 536 953 q 507 1004 507 982 q 522 1041 507 1026 q 558 1056 536 1056 q 595 1041 581 1056 q 610 1004 610 1026 q 595 967 610 982 q 558 953 581 953 z "},"ṇ":{"ha":874,"x_min":14,"x_max":860,"o":"m 14 0 l 18 21 l 106 44 l 232 735 l 136 757 l 140 778 l 299 778 l 619 136 l 726 733 l 624 757 l 628 778 l 860 778 l 856 757 l 775 733 l 642 -6 l 614 -6 l 268 681 l 154 49 l 247 21 l 243 0 l 14 0 m 356 -264 q 319 -249 333 -264 q 304 -212 304 -235 q 319 -176 304 -190 q 356 -161 333 -161 q 392 -176 378 -161 q 407 -212 407 -190 q 392 -249 407 -235 q 356 -264 378 -264 z "},"ṉ":{"ha":874,"x_min":14,"x_max":860,"o":"m 14 0 l 18 21 l 106 44 l 232 735 l 136 757 l 140 778 l 299 778 l 619 136 l 726 733 l 624 757 l 628 778 l 860 778 l 856 757 l 775 733 l 642 -6 l 614 -6 l 268 681 l 154 49 l 247 21 l 243 0 l 14 0 m 185 -228 l 192 -189 l 526 -189 l 519 -228 l 185 -228 z "},"ò":{"ha":865,"x_min":83,"x_max":782,"o":"m 361 -14 q 215 26 278 -14 q 118 135 153 65 q 83 299 83 206 q 116 490 83 400 q 207 648 149 579 q 342 755 265 717 q 506 793 418 793 q 651 754 589 793 q 748 645 714 715 q 782 483 782 575 q 752 299 782 388 q 667 139 722 210 q 534 27 611 68 q 361 -14 457 -14 m 385 24 q 553 81 479 24 q 669 238 626 138 q 711 467 711 338 q 651 676 711 597 q 479 756 592 756 q 313 698 386 756 q 197 541 239 640 q 154 317 154 442 q 215 105 154 186 q 385 24 275 24 m 501 882 l 339 1063 q 326 1128 315 1090 l 381 1128 l 515 882 l 501 882 z "},"ó":{"ha":865,"x_min":83,"x_max":782,"o":"m 361 -14 q 215 26 278 -14 q 118 135 153 65 q 83 299 83 206 q 116 490 83 400 q 207 648 149 579 q 342 755 265 717 q 506 793 418 793 q 651 754 589 793 q 748 645 714 715 q 782 483 782 575 q 752 299 782 388 q 667 139 722 210 q 534 27 611 68 q 361 -14 457 -14 m 385 24 q 553 81 479 24 q 669 238 626 138 q 711 467 711 338 q 651 676 711 597 q 479 756 592 756 q 313 698 386 756 q 197 541 239 640 q 154 317 154 442 q 215 105 154 186 q 385 24 275 24 m 503 882 l 657 1128 l 724 1128 q 710 1092 721 1107 q 681 1058 699 1076 l 517 882 l 503 882 z "},"ô":{"ha":865,"x_min":83,"x_max":782,"o":"m 361 -14 q 215 26 278 -14 q 118 135 153 65 q 83 299 83 206 q 116 490 83 400 q 207 648 149 579 q 342 755 265 717 q 506 793 418 793 q 651 754 589 793 q 748 645 714 715 q 782 483 782 575 q 752 299 782 388 q 667 139 722 210 q 534 27 611 68 q 361 -14 457 -14 m 385 24 q 553 81 479 24 q 669 238 626 138 q 711 467 711 338 q 651 676 711 597 q 479 756 592 756 q 313 698 386 756 q 197 541 239 640 q 154 317 154 442 q 215 105 154 186 q 385 24 275 24 m 331 882 l 539 1128 l 563 1128 l 688 882 l 674 882 l 539 1051 l 344 882 l 331 882 z "}}}
